<svg id="圖層_1" data-name="圖層 1" xmlns="http://www.w3.org/2000/svg" viewBox="0 0 100 120"><defs><style>.cls-1{fill:#1a1a1a;}.cls-2{fill:#fff;}</style></defs><title>新網頁使用元件</title><polygon class="cls-1" points="48.67 1.08 0.92 29.36 2.25 88.28 51.33 118.92 99.08 90.64 97.74 31.73 48.67 1.08"/><path class="cls-2" d="M51.32,120l-50-31.2L0,28.83,48.68,0l50,31.2,1.36,60ZM3.15,87.75l48.2,30.09L98.16,90.12,96.85,32.25,48.65,2.16,1.84,29.88Z"/><path class="cls-2" d="M36.32,41a27.56,27.56,0,0,1,1,2.76l-1,.36h.37v2.4c0,2-.49,3.84-3.57,5a6.83,6.83,0,0,0-1.25-1.66,3.87,3.87,0,0,0,2.37-1.48H31.53V44.53h1.76v2.14h1.47V44.11h1.07c0-.18-.09-.41-.14-.63-3.36.42-3.94.55-4.33.73v0c-.08-.35-.32-1.2-.49-1.66a3.2,3.2,0,0,0,1.27-.67,13.74,13.74,0,0,0,1-.93,5.62,5.62,0,0,0-1.74.3v0a11.83,11.83,0,0,0-.58-1.7,1.39,1.39,0,0,0,.8-.45,7,7,0,0,0,1.45-1.79H29.89V51.58H27.1V29.1h9.44v8.15H34.07l.91.51a13,13,0,0,1-1.69,1.85l1.27,0c.32-.37.61-.78.91-1.15l1.42,1a23.09,23.09,0,0,1-3.19,2.91l1.52-.15a6.9,6.9,0,0,0-.29-.8Zm-6.43-9.88v1.18H33.8V31.11Zm0,4.14H33.8V34.09H29.89Zm17.88,12.9c0,1.43-.19,2.25-1,2.76a7.09,7.09,0,0,1-3.6.55A11.59,11.59,0,0,0,42.54,49H41.36v-.7H39.9v2.94h-2V44.11h0c-.12-.41-.34-1.13-.51-1.56a2.56,2.56,0,0,0,1.3-.68,12.81,12.81,0,0,0,1-.93,5.52,5.52,0,0,0-1.73.3,11.13,11.13,0,0,0-.59-1.7,1.83,1.83,0,0,0,.81-.45,9.08,9.08,0,0,0,1.44-1.84H38.16V29.1h9.61Zm-4.55.42a9.26,9.26,0,0,0,1.32,0c.32,0,.42-.12.42-.45V37.25H40.53l1,.53a13.12,13.12,0,0,1-1.64,1.83l1.2,0c.36-.4.7-.8,1-1.2l1.39,1a29.43,29.43,0,0,1-3.15,3l1.49-.15c-.12-.27-.22-.55-.34-.8L42.81,41A25,25,0,0,1,44,43.73l-1.45.58c-.07-.23-.17-.53-.24-.83a34.76,34.76,0,0,0-4,.63H39.9v2.56h1.46V44.53h1.86Zm-2.3-17.46v1.18h4V31.11Zm0,4.14h4V34.09h-4Z"/><path class="cls-2" d="M61.72,37.53s0,.83,0,1.18c-.15,7.53-.32,10.36-1,11.24A2.2,2.2,0,0,1,59.16,51a14.09,14.09,0,0,1-2.48.1A7.27,7.27,0,0,0,56,48.45c.71,0,1.32.07,1.69.07a.75.75,0,0,0,.68-.37c.32-.51.49-2.49.59-7.91h-2.2c-.32,4.69-1.08,8.56-3.18,11.29a8.77,8.77,0,0,0-2.11-2.23C53.82,46.09,54,41.14,54,34.79H52.13V32h4.31a17,17,0,0,0-1.57-3l2.6-1a15.85,15.85,0,0,1,1.86,3.36L57.76,32h4.6v2.76H56.88c0,1,0,1.84-.05,2.74ZM70,28.8c-.18.6-.37,1.18-.59,1.75a15.78,15.78,0,0,0,5.53,6.18,11.47,11.47,0,0,0-2.08,2.36,18.2,18.2,0,0,1-4.72-5.68,16.63,16.63,0,0,1-5,5.85,10,10,0,0,0-2-2.36A15.18,15.18,0,0,0,67.25,28ZM65.39,44.38a46.78,46.78,0,0,1,7,4.44l-2,2.56a41.42,41.42,0,0,0-6.85-4.79Zm4-1a30.7,30.7,0,0,0-4.16-3.64l1.86-1.93a31.09,31.09,0,0,1,4.31,3.44Z"/><path class="cls-2" d="M47.6,76.65a24.72,24.72,0,0,1-4.06,5.49c.66,1.93,1.42,3.09,2.15,3.09.52,0,.81-1.21.93-4.17A7.48,7.48,0,0,0,49,82.77c-.46,4.39-1.37,5.49-3.59,5.49-1.79,0-3.16-1.5-4.21-4a25.58,25.58,0,0,1-4.53,3.06A13.33,13.33,0,0,0,34.76,85a24.79,24.79,0,0,0,5.45-3.54A48.13,48.13,0,0,1,39,74.69H34v2.86c1.25-.23,2.52-.48,3.77-.7L38,79.56l-4,.82v4.3c0,1.63-.34,2.43-1.32,2.91a10.35,10.35,0,0,1-4.41.57,12.45,12.45,0,0,0-1-3c1.37.08,2.78,0,3.23,0s.58-.13.58-.53V81c-1.56.33-3.08.65-4.38.91l-.71-3c1.4-.22,3.16-.5,5.09-.85V74.69H26.44V71.85h4.62V69c-1.32.23-2.66.4-3.91.55A12.11,12.11,0,0,0,26.32,67,61.18,61.18,0,0,0,36,64.93l2,2.53c-1.23.38-2.57.7-4,1v3.39h4.7c-.2-2.26-.27-4.59-.3-6.87h3.06a62,62,0,0,0,.25,6.87h6.65v2.84H42c.2,1.5.44,3,.71,4.24A20.73,20.73,0,0,0,45,75.52Zm-1.78-5.53A20.23,20.23,0,0,0,42.34,67l2.2-1.53a21.58,21.58,0,0,1,3.63,4Z"/><path class="cls-2" d="M65.44,75.64H61.23V88.11H58.54v-22c-.49,1.43-1,2.91-1.68,4.34V88.16H54.09V75.62a19.14,19.14,0,0,1-1.52,2,21.65,21.65,0,0,0-1.39-3.21A27.72,27.72,0,0,0,56,64.78l2.69.82-.14.48h6.87Zm-4.21-7.3v1.43h2V68.34Zm2,5V71.9h-2v1.48ZM73.81,84.7c0,1.66-.34,2.46-1.32,2.89s-2.54.55-4.84.55a11.47,11.47,0,0,0-.93-2.89c1.49.1,3.18.08,3.67,0s.63-.15.63-.62v-9H66.54V66.08h7.27Zm-5-16.36v1.43H71V68.34Zm2.18,5V71.9H68.84v1.48Z"/></svg>