<svg id="圖層_1" data-name="圖層 1" xmlns="http://www.w3.org/2000/svg" viewBox="0 0 289.45 335.55"><defs><style>.cls-1{fill:#fff;}</style></defs><title>新網頁使用元件</title><path class="cls-1" d="M53.9,88.34a.82.82,0,0,0,.22,0,2,2,0,0,0,2-1.77C60.62,45.5,93.74,12.38,134.84,7.84a2,2,0,0,0,1.75-2.18,1.91,1.91,0,0,0-2.18-1.75C91.48,8.65,56.88,43.24,52.16,86.16A2,2,0,0,0,53.9,88.34Z"/><path class="cls-1" d="M235.55,104.56a1.83,1.83,0,0,0-2.18,1.75,89.22,89.22,0,0,1-124.46,71.87,2,2,0,1,0-1.59,3.62,93.16,93.16,0,0,0,130-75.06A2,2,0,0,0,235.55,104.56Z"/><path class="cls-1" d="M130.67,96.48a2,2,0,0,0-2-2h-65a2,2,0,0,0,0,4h65A2,2,0,0,0,130.67,96.48Z"/><path class="cls-1" d="M188.52,64.86a51.59,51.59,0,0,1,8.85,29.64H160.76a2,2,0,0,0,0,4h36.32A51.26,51.26,0,0,1,188.52,123a2,2,0,0,0,3.28,2.23A55.28,55.28,0,0,0,201,98.46h24.74a2,2,0,0,0,0-4H201.33a55.51,55.51,0,0,0-9.55-31.87,2,2,0,1,0-3.26,2.23Z"/><path class="cls-1" d="M140,40.56a1.93,1.93,0,0,0,2.11,1.83,51.69,51.69,0,0,1,32.72,8.82,2,2,0,0,0,1.11.34,2,2,0,0,0,1.64-.87,2,2,0,0,0-.52-2.75,55.72,55.72,0,0,0-35.22-9.49A2,2,0,0,0,140,40.56Z"/><path class="cls-1" d="M114.78,126.93a2,2,0,0,0,1.4-.58l17.91-17.91a2,2,0,1,0-2.8-2.8l-17.91,17.91a2,2,0,0,0,0,2.8A1.94,1.94,0,0,0,114.78,126.93Z"/><path class="cls-1" d="M175.38,61.55,153.87,83.06a2,2,0,0,0,0,2.8,2,2,0,0,0,2.8,0l21.51-21.51a2,2,0,1,0-2.8-2.8Z"/><path class="cls-1" d="M187.49,59.76a5.32,5.32,0,1,0-7.53,0A5.31,5.31,0,0,0,187.49,59.76Z"/><path class="cls-1" d="M130.51,37A5.32,5.32,0,1,0,137,40.73,5.32,5.32,0,0,0,130.51,37Z"/><path class="cls-1" d="M104.07,128.13a5.32,5.32,0,1,0,7.52,0A5.31,5.31,0,0,0,104.07,128.13Z"/><path class="cls-1" d="M185.1,126.75a5.32,5.32,0,1,0,3.76,6.52A5.32,5.32,0,0,0,185.1,126.75Z"/><path class="cls-1" d="M144.73,10.65a5.33,5.33,0,1,0-5.33-5.33A5.33,5.33,0,0,0,144.73,10.65Z"/><circle class="cls-1" cx="144.73" cy="96.48" r="10.52"/><circle class="cls-1" cx="53.56" cy="96.48" r="5.32"/><path class="cls-1" d="M235.89,91.16a5.33,5.33,0,1,0,5.32,5.32A5.33,5.33,0,0,0,235.89,91.16Z"/><path class="cls-1" d="M101.81,170.82a5.32,5.32,0,1,0,1.94,7.27A5.32,5.32,0,0,0,101.81,170.82Z"/><path class="cls-1" d="M11.38,330.79,13.82,328a12.4,12.4,0,0,0,8.82,4c4.19,0,6.72-2.09,6.72-5.23S27,322.45,24,321.1l-4.62-2c-3-1.26-6.51-3.53-6.51-8.2,0-4.93,4.28-8.51,10.09-8.51a13.07,13.07,0,0,1,9.42,4l-2.13,2.57a10.39,10.39,0,0,0-7.29-3c-3.63,0-6,1.84-6,4.72,0,3.09,2.79,4.27,5.28,5.32l4.58,2c3.71,1.62,6.59,3.8,6.59,8.56,0,5.06-4.19,9.08-10.87,9.08A15.3,15.3,0,0,1,11.38,330.79Z"/><path class="cls-1" d="M43.73,323.15c0-7.9,5.19-12.48,11-12.48s11,4.58,11,12.48-5.2,12.4-11,12.4S43.73,331,43.73,323.15Zm17.89,0c0-5.45-2.79-9.16-6.89-9.16s-6.86,3.71-6.86,9.16,2.76,9.08,6.86,9.08S61.62,328.61,61.62,323.15Z"/><path class="cls-1" d="M78.09,330.27v-30h4v30.29c0,1.22.52,1.7,1.13,1.7a3.36,3.36,0,0,0,.83-.09l.57,3.06a6.07,6.07,0,0,1-2.31.35C79.31,335.55,78.09,333.63,78.09,330.27Z"/><path class="cls-1" d="M95.16,328.83c0-5.15,4.49-7.73,14.58-8.86,0-3.06-1-6-4.89-6a13.05,13.05,0,0,0-7.12,2.53l-1.57-2.75a17.78,17.78,0,0,1,9.34-3.1c5.76,0,8.21,3.88,8.21,9.73V335h-3.28l-.35-2.84H110c-2.26,1.88-4.93,3.41-7.85,3.41C98.13,335.55,95.16,333.1,95.16,328.83Zm14.58.39v-6.63c-8,1-10.7,2.92-10.7,6,0,2.71,1.84,3.8,4.19,3.8S107.42,331.27,109.74,329.22Z"/><path class="cls-1" d="M127.38,311.28h3.27l.35,4.32h.13c1.66-3,4.06-4.93,6.72-4.93a5.07,5.07,0,0,1,2.53.52l-.74,3.5a5.5,5.5,0,0,0-2.31-.4c-2,0-4.41,1.4-6,5.46V335h-4Z"/><path class="cls-1" d="M173.35,306.39h-9.69V303H187.1v3.44h-9.69V335h-4.06Z"/><path class="cls-1" d="M193.57,323.15c0-7.68,5.19-12.48,10.69-12.48,6,0,9.43,4.37,9.43,11.13a15.12,15.12,0,0,1-.18,2.27h-16c.26,5.06,3.36,8.29,7.86,8.29a10.18,10.18,0,0,0,5.93-1.88l1.44,2.62a14,14,0,0,1-7.85,2.45C198.63,335.55,193.57,331,193.57,323.15Zm16.63-2c0-4.76-2.18-7.33-5.89-7.33-3.37,0-6.33,2.7-6.81,7.33Z"/><path class="cls-1" d="M223.87,323.15c0-7.9,5.37-12.48,11.43-12.48a10.14,10.14,0,0,1,6.94,2.79l-2.05,2.62a7,7,0,0,0-4.71-2.09c-4.32,0-7.47,3.71-7.47,9.16s3,9.08,7.34,9.08a8.31,8.31,0,0,0,5.58-2.36l1.75,2.67a11.5,11.5,0,0,1-7.68,3C228.71,335.55,223.87,331,223.87,323.15Z"/><path class="cls-1" d="M254,300.24h4v9.51l-.14,4.89c2.19-2.18,4.63-4,7.86-4,5,0,7.25,3.23,7.25,9.3v15h-4V320.49c0-4.45-1.35-6.33-4.49-6.33-2.45,0-4.1,1.22-6.5,3.62V335h-4Z"/><path class="cls-1" d="M0,260.76c1.48-2.62,2.18-7.33,2.27-11.13l2.22.26c0,4-.74,8.91-2.31,11.88Zm6.11-19.55h3.1v39.85H6.11Zm6.11,16.32a37.75,37.75,0,0,0-2.71-8.42l2-.79a33.06,33.06,0,0,1,2.88,8.25Zm28.15,19.12v3.05H11.91v-3.05h18c1-5.63,2.18-14,2.88-21H22l-.35,2.09a46,46,0,0,1,9.21,5.11l-1.62,2.27a47.45,47.45,0,0,0-8.12-4.85c-.35,1.62-.65,3.15-1,4.67a53.23,53.23,0,0,1,9.25,5.68l-1.79,2.22a53,53,0,0,0-8-5.37c-.4,1.79-.79,3.41-1.14,4.8l-3.18-.3c1.61-6.24,3.8-17.07,5.06-25.05H13.44v-3H39.76v3H23.61c-.3,1.83-.65,3.79-1.05,5.8H36.4c-.88,7.55-2.14,17.59-3.19,23.92Z"/><path class="cls-1" d="M89.18,277.09V280H51.34v-2.88H68.63v-4.72H56.45v-2.62H68.63v-4.1H57.93a40.85,40.85,0,0,1-4.49,4.84,14.69,14.69,0,0,0-2.75-2.05,27.45,27.45,0,0,0,8-10l3.19.87c-.57,1.18-1.26,2.4-2,3.54h8.73v-3.5h3.31v3.5H86.43v2.79H71.94v4.1h12.7v2.62H71.94v4.72Zm-4.45-18.68H55.84V243H84.73Zm-3.27-12.79H59v3.8H81.46Zm0,6.28H59v3.89H81.46Z"/><path class="cls-1" d="M104.56,269.53a54.61,54.61,0,0,1-2.18,10.52,14,14,0,0,0-2.35-.87,53.38,53.38,0,0,0,2-10Zm8.64-11.74a70.85,70.85,0,0,1,2.93,8.34l-2.45,1c-.13-.61-.34-1.35-.52-2.09-9.73,1.52-11.08,1.83-11.87,2.26a14.26,14.26,0,0,0-.92-2.83c.88-.18,1.84-1.27,3.1-2.93a55.55,55.55,0,0,0,3.58-5.1c-4.54.52-5.45.74-6,1a22.07,22.07,0,0,0-.92-2.79c.66-.17,1.44-1.09,2.31-2.4a57.37,57.37,0,0,0,5.59-11l2.75,1.18a68.48,68.48,0,0,1-6.59,11.7l4.58-.44a67.36,67.36,0,0,0,3.19-6l2.53,1.53a83.37,83.37,0,0,1-9.6,14.49l7.55-1.05c-.48-1.4-1-2.79-1.53-4.06ZM108.88,269a83.73,83.73,0,0,1,1.23,9.16l-2.45.61a84,84,0,0,0-1.09-9.34Zm4.54-1.14a63.25,63.25,0,0,1,2.54,8.38l-2.23.83a66.29,66.29,0,0,0-2.44-8.47Zm25.49,9.6c0,1.79-.35,2.58-1.48,3.1s-2.84.57-5.5.57a10.34,10.34,0,0,0-.83-2.88c1.83.09,3.58,0,4.1,0s.74-.21.74-.83V246.18H119.62v35H116.7V243.3h22.21Zm-7-7.2a12.23,12.23,0,0,0,2.57-.22c.09.75.17,1.75.26,2.41a12.32,12.32,0,0,1-2.79.21h-5.59c-2.88,0-3.53-1-3.53-3.92v-4.24h-1.62V261.9h5.94a25.6,25.6,0,0,0-1.71-3.84l2-.79h-6.68V254.7h8.3a48.58,48.58,0,0,0,2-7.21l2.4.7c-.66,2.14-1.49,4.63-2.18,6.51H135v2.57H127.7a37.47,37.47,0,0,1,1.92,3.93l-1.57.7h6.45v2.57h-9v4.28c0,1.13.13,1.48,1,1.48Zm-7.64-22.82a21,21,0,0,1,2.35,6.19l-2.09.75a23.81,23.81,0,0,0-2.27-6.25Z"/><path class="cls-1" d="M186.68,246.45a33.19,33.19,0,0,1-6.38,11.61,29.37,29.37,0,0,0,9.95,6.41,12,12,0,0,0-2,2.66c-.44-.22-.92-.43-1.4-.65v14.4h-3.1v-1.44H172.84V281h-3V266.44c-.87.47-1.75.87-2.62,1.26a9.05,9.05,0,0,0-1.57-2.18h-4.58v7.81c1.87-.43,3.79-.87,5.71-1.35l.31,2.92c-5.93,1.44-12.13,2.93-16.71,4.06l-.62-3.14,2.23-.48V260.46h2.75v14.31l3.36-.78V256.35H152V243h14.1v11.57a31.62,31.62,0,0,0,7.89-13.4l3.11.74c-.44,1.27-.92,2.53-1.4,3.71h8.42l.57-.13Zm-31.82,7.07h8.2v-7.64h-8.2Zm11.56,11.21a30.87,30.87,0,0,0,9.91-6.81,40,40,0,0,1-4-6,32.79,32.79,0,0,1-4,5,17.21,17.21,0,0,0-2.27-1.92v1.3h-5v6.29h5.36Zm18.38.62a33.06,33.06,0,0,1-6.46-5.16,34.66,34.66,0,0,1-6.55,5.16Zm-1.05,11.21v-8.38H172.84v8.38Zm-9.43-28.06-.43.83a35.12,35.12,0,0,0,4.32,6.54,28.32,28.32,0,0,0,4.49-7.37Z"/><path class="cls-1" d="M214.37,267.31c-.75-1.44-2.58-4.28-4.06-6.5V281h-3.19V261.72a46,46,0,0,1-6.33,11.39,14.56,14.56,0,0,0-1.61-2.92,44.38,44.38,0,0,0,7.5-13.71h-6.89v-3.05h7.33v-6.59c-2,.39-4.06.74-6,1a14.84,14.84,0,0,0-1-2.53c4.89-.78,10.61-2.05,13.88-3.49l2,2.58a39.21,39.21,0,0,1-5.71,1.74v7.29h6.41v3.05h-6.41v.79c1.35,1.53,5.1,6.33,6,7.51Zm19.72,2.31V281h-3.18V270.15l-14.23,2.35-.52-3.1,14.75-2.35V241.21h3.18v25.31l5.11-.78.48,3Zm-8.42-5.8a37.59,37.59,0,0,0-7.68-6.38l2-1.92a38.45,38.45,0,0,1,7.81,6.16Zm1-11.53a34.22,34.22,0,0,0-6.94-6.19l2.05-1.88a32.14,32.14,0,0,1,7.11,6Z"/><path class="cls-1" d="M263.83,263.25l-5.23,1.57v12.35c0,1.83-.48,2.71-1.62,3.23s-2.92.61-5.93.57a10.35,10.35,0,0,0-1-3c2.1.05,4,.05,4.49,0s.88-.22.88-.83V265.78l-5.24,1.53-.91-3.19c1.74-.39,3.84-.91,6.15-1.57V253h-5.59V250h5.59v-8.73h3.19V250h4.8V253h-4.8v8.64c1.57-.44,3.23-.92,4.8-1.4Zm23.22-4.89a31.88,31.88,0,0,1-8.86,14.36,29.84,29.84,0,0,0,11.26,5.63,13.21,13.21,0,0,0-2.09,2.79,31.43,31.43,0,0,1-11.66-6.32,40.15,40.15,0,0,1-12.39,6.24,12,12,0,0,0-1.75-2.93,35.54,35.54,0,0,0,11.83-5.54,34.83,34.83,0,0,1-7.16-12l.13,0h-1.44v-3h9.34v-6.51H264.05v-3h10.21v-6.85h3.19v6.85h10.43v3H277.45v6.51h6.94l.52-.14Zm-17.63,2.23a30,30,0,0,0,6.41,10,26.56,26.56,0,0,0,7-10Z"/></svg>