<svg id="圖層_1" data-name="圖層 1" xmlns="http://www.w3.org/2000/svg" viewBox="0 0 260 265"><defs><style>.cls-1{fill:#fff;}</style></defs><title>新網頁使用元件</title><path class="cls-1" d="M88.47,170.06h5.06c3.14,0,5.54.9,5.54,3.72A3.44,3.44,0,0,1,97,177.06v.1a3.46,3.46,0,0,1,2.87,3.58c0,3-2.56,4.47-5.93,4.47H88.47Zm4.83,6.16c2,0,2.79-.78,2.79-2s-.91-1.87-2.75-1.87H91.52v3.85Zm.35,6.65c2.09,0,3.23-.73,3.23-2.31s-1.12-2.09-3.23-2.09H91.52v4.4Z"/><path class="cls-1" d="M102.58,183.47c4.16-3.69,6.62-6.53,6.62-8.87a2.18,2.18,0,0,0-2.3-2.45,4,4,0,0,0-2.81,1.55l-1.65-1.63a6.21,6.21,0,0,1,4.86-2.3,4.47,4.47,0,0,1,4.81,4.67c0,2.74-2.29,5.69-5.08,8.39.76-.08,1.77-.16,2.48-.16h3.32v2.54H102.58Z"/><path class="cls-1" d="M116.78,170.06h5.07c3.14,0,5.53.9,5.53,3.72a3.43,3.43,0,0,1-2.08,3.28v.1a3.46,3.46,0,0,1,2.87,3.58c0,3-2.56,4.47-5.93,4.47h-5.46Zm4.84,6.16c1.94,0,2.79-.78,2.79-2s-.91-1.87-2.75-1.87h-1.82v3.85Zm.35,6.65c2.09,0,3.22-.73,3.22-2.31s-1.11-2.09-3.22-2.09h-2.13v4.4Z"/><path class="cls-1" d="M133.17,181.6a22.61,22.61,0,0,1-.87,5,7.86,7.86,0,0,0-1.71-.6,19.18,19.18,0,0,0,.81-4.66Zm16.37,3c0,1.09-.18,1.64-.83,2a6.25,6.25,0,0,1-2.87.41,7.92,7.92,0,0,0-.6-2.07c.71,0,1.49,0,1.76,0s.35-.1.35-.37V170.84H140.7V187h-2.17v-7.23l-1.64.7c-.06-.25-.12-.55-.22-.86-4.06.65-4.74.86-5.19,1a13.41,13.41,0,0,0-.68-1.94c.51-.12.95-.62,1.57-1.39.24-.31.74-1,1.32-1.83a8.11,8.11,0,0,0-2.34.45,19.21,19.21,0,0,0-.68-1.94c.39-.1.73-.49,1.12-1.11a24.74,24.74,0,0,0,2.35-5l2,.82a31.84,31.84,0,0,1-2.71,5l1.45-.1c.51-.92,1-1.9,1.46-2.89l1.78,1.15a37.89,37.89,0,0,1-4.19,6.37l2.25-.31c-.17-.49-.33-1-.5-1.39l1.57-.6a34.37,34.37,0,0,1,1.31,3.65V168.73h11Zm-14.3-3.42a36.77,36.77,0,0,1,.54,4.26l-1.72.45c0-1.18-.23-2.95-.43-4.3Zm2.07-.59a27.12,27.12,0,0,1,1.17,3.83l-1.59.61a32.12,32.12,0,0,0-1.07-3.93Zm8.26,1a6,6,0,0,0,1.2-.12c0,.49.08,1.19.15,1.64a4.09,4.09,0,0,1-1.28.12H143.9c-1.76,0-2.11-.65-2.11-2.29v-1.21h-.6V177.9h2.09c-.15-.43-.35-.94-.52-1.33l1.24-.39h-2.91v-1.82h1.11a10.52,10.52,0,0,0-.76-2.66l1.38-.45a10.64,10.64,0,0,1,.89,2.7l-1.2.41h1.82a25.25,25.25,0,0,0,.73-3.07l1.65.43c-.29.88-.58,1.86-.83,2.64h1.06v1.82h-2.42a8.12,8.12,0,0,1,.62,1.41l-.83.31h2.52v1.82h-3.1V181c0,.45.07.63.4.63Z"/><path class="cls-1" d="M170.62,170.39a15.48,15.48,0,0,1-2.87,5.5,13.36,13.36,0,0,0,4.28,2.28,9.39,9.39,0,0,0-1.53,2l0,0v6.69H168.1v-.63h-3.88v.7h-2.28v-6.66l-.47.21a7.77,7.77,0,0,0-.77-1.17v.6h-2.27v2.72l2.44-.55.23,2.14c-2.9.72-6,1.44-8.37,2l-.44-2.33.93-.17v-6.87h2v6.46l1-.2v-7.7h-2.89v-6.77h7.13v5.07a13.8,13.8,0,0,0,3.43-5.83l2.33.57c-.16.45-.33.92-.51,1.37h2.89l.43-.08Zm-15.1,2.92h2.72v-2.6H155.5Zm5.18,5.12a14,14,0,0,0,4-2.56,16.64,16.64,0,0,1-1.28-1.8,17.18,17.18,0,0,1-1.22,1.41,12.14,12.14,0,0,0-1.65-1.39v1.31h-2.07v2.4h2.27Zm8.08,1a15.7,15.7,0,0,1-2.58-1.86,15.48,15.48,0,0,1-2.54,1.86Zm-.68,4.77v-2.72h-3.88v2.72Zm-3.35-12.28-.16.31a17,17,0,0,0,1.51,2.11,13.23,13.23,0,0,0,1.51-2.42Z"/><path class="cls-1" d="M93,214.93v3.23h-2v-3.23H87.37V212.8h3.56v-1.19H88v-7.39h3v-1.08H87.56V201H91v-1.93h2V201h3.41v2.15H93v1.08h3v7.39H93v1.19h3.58v2.13Zm-3.31-7.82h1.47v-1.19H89.64Zm0,2.78h1.47V208.7H89.64Zm4.59-4H92.79v1.19h1.44Zm0,2.78H92.79v1.19h1.44Zm12.63,7.37a8.82,8.82,0,0,0-1.63,2.07,9.33,9.33,0,0,1-3.91-5.06,11.16,11.16,0,0,1-4.15,5,8.24,8.24,0,0,0-1.86-1.76,10,10,0,0,0,4.61-9.11v-.94h2.43v1c0,.45,0,.94,0,1.48C103,212,104.34,214.82,106.86,216.07Zm-7.09-11.15a14.07,14.07,0,0,1-1.63,3.68,15.45,15.45,0,0,0-2-1.39c1.35-1.88,2.07-5,2.42-8.15l2.38.31c-.15,1.15-.35,2.29-.6,3.38h4.09l.37-.06,1.64.38a53.52,53.52,0,0,1-1.29,5.86l-2-.49c.21-.9.46-2.23.66-3.52Z"/><path class="cls-1" d="M116.6,208.68v7.39c0,.88-.15,1.37-.73,1.68a5,5,0,0,1-2.39.33,6.56,6.56,0,0,0-.56-1.78c.58,0,1.2,0,1.38,0s.27-.08.27-.27v-1.86c-.68.45-1.34.88-2,1.27l-.54-1.15a9.19,9.19,0,0,1-1.24,3.93,7.75,7.75,0,0,0-1.72-1.16,9.62,9.62,0,0,0,1.1-5.24V208.7h-1v-3.17h.8V199.7h6.72v5.83h.87v3.15Zm-.93-1.51h-4.74V208h4.74Zm-3.83-1.64h.81v-3.27h2v-.84h-2.81Zm.31,6.35c0,.59,0,1.2-.06,1.88.7-.29,1.55-.7,2.48-1.15v-.9l-.83.9a18.45,18.45,0,0,0-1.59-1.35Zm0-1.15.71-.7a18.08,18.08,0,0,1,1.71,1.23v-1.7h-2.42Zm2.5-5.2v-1.9h-.76v1.9Zm13.64,10.56v1.76H117.38v-1.76h2.44c-.16-.51-.37-1-.56-1.49l1.3-.39h-2.19v-4h8.91v4h-2.35l1.59.43c-.33.51-.62,1-.91,1.45Zm-.16-6.55H117.59V207.8h10.54Zm-.39-2.43H117.9v-6.57h2.44v-1.46h1.9v1.46h.91v-1.46h1.92v1.46h2.67Zm-8-4h1v-.94h-1Zm0,2.44h1v-1h-1Zm.8,7.25H125v-1.07h-4.49Zm.69,1.45c.24.61.51,1.31.7,1.88h1.67a18.76,18.76,0,0,0,.68-1.88Zm2-11.14v-.94h-1v.94Zm-1,1.48v1h1v-1Zm3.57-2.42h-1.09v.94h1.09Zm0,2.42h-1.09v1h1.09Z"/><path class="cls-1" d="M138.42,215.52c0,1.13-.16,1.8-.84,2.21a5.69,5.69,0,0,1-2.88.45,8.11,8.11,0,0,0-.66-2.35c.75,0,1.51,0,1.76,0s.35-.08.35-.37v-4H134a21.23,21.23,0,0,1-1.45,6.77,9.37,9.37,0,0,0-2-1.12c1.28-2.79,1.36-6.88,1.36-9.87v-7.43h6.51Zm-2.27-6.39v-2.47h-2v.55c0,.61,0,1.25,0,1.92Zm-2-7.1v2.38h2V202Zm15.59,5.26a18.84,18.84,0,0,1-2.48,6.86,9.82,9.82,0,0,0,3.06,2.15,9.73,9.73,0,0,0-1.53,1.9,12.75,12.75,0,0,1-2.94-2.23,11.28,11.28,0,0,1-2.71,2.19,7.68,7.68,0,0,0-1.21-1.64v1.68h-2.34V199.8h9.51v3.95c0,1.07-.23,1.64-1.1,2a11.42,11.42,0,0,1-3.55.3,8.59,8.59,0,0,0-.73-2c1,.06,2.26.06,2.59,0s.43-.09.43-.33v-1.64H141.9v4.85h6l.37-.08Zm-7.81,9a9.68,9.68,0,0,0,2.52-2.09,20.17,20.17,0,0,1-2.4-5.08h-.12Zm2.21-7.17a15.91,15.91,0,0,0,1.59,3.2,14.29,14.29,0,0,0,1.34-3.2Z"/><path class="cls-1" d="M170.17,203.14a10.17,10.17,0,0,1-2.07,3,16,16,0,0,0,3.81,1.2,9.33,9.33,0,0,0-1.55,2.07,15,15,0,0,1-4.22-1.76,16.57,16.57,0,0,1-4.22,1.72,7.84,7.84,0,0,0-.57-.86,24,24,0,0,1-1,3.42l-1.65-.76a27.1,27.1,0,0,0,.66-2.82h-1.1v7.2c0,1.11-.16,1.76-.88,2.13a6.18,6.18,0,0,1-2.92.43,7.88,7.88,0,0,0-.7-2.31c.76,0,1.59,0,1.86,0s.33-.06.33-.31v-4.38a12.44,12.44,0,0,1-2.58,3.79,14.1,14.1,0,0,0-1.12-2.36,12.93,12.93,0,0,0,2.94-4.21h-2.59v-2.13h4.73a29,29,0,0,0-4-2l1.55-1.55c.49.18,1.07.4,1.63.65a13.19,13.19,0,0,0,1.3-1.29h-5V200h6.68l.37-.08,1.57,1a15.26,15.26,0,0,1-3,3.37,12.53,12.53,0,0,1,1.51.9l-1,1.05h1l.33-.11,1.49.5-.08.47a13.59,13.59,0,0,0,2.52-.94,11.88,11.88,0,0,1-1.47-1.7c-.31.32-.62.61-.93.88a18.7,18.7,0,0,0-2-1.38,12,12,0,0,0,4-4.87l2.3.62a14.12,14.12,0,0,1-.77,1.43h6.1v2Zm1,7.32s0,.64-.08.93c-.33,3.54-.7,5.11-1.3,5.77a2.28,2.28,0,0,1-1.51.71,14.79,14.79,0,0,1-2.32,0,5.3,5.3,0,0,0-.66-2.26,16.07,16.07,0,0,0,1.78.11.87.87,0,0,0,.66-.23c.29-.27.56-1.15.79-3h-2.4a8.19,8.19,0,0,1-5.44,5.69,7.06,7.06,0,0,0-1.42-1.88,6.59,6.59,0,0,0,4.32-3.81h-2.5v-2h3a14.87,14.87,0,0,0,.21-1.82h2.46c-.06.62-.12,1.23-.21,1.82Zm-6.78-7.32a8.57,8.57,0,0,0,1.72,1.74,6.35,6.35,0,0,0,1.36-1.74Z"/><path class="cls-1" d="M252.31,104.42h-2V78.74a22.52,22.52,0,0,0-11.59-19.63L141.31,4.83a23,23,0,0,0-22.31,0L21.57,59.11A22.5,22.5,0,0,0,10,78.74v22.94H8V78.74A24.48,24.48,0,0,1,20.6,57.4L118,3.12a25.08,25.08,0,0,1,24.23,0L239.71,57.4a24.48,24.48,0,0,1,12.6,21.34Z"/><path class="cls-1" d="M130.16,265A24.92,24.92,0,0,1,118,261.88L20.6,207.6A24.49,24.49,0,0,1,8,186.25V160.77h2v25.48a22.51,22.51,0,0,0,11.6,19.64L119,260.17a23,23,0,0,0,22.31,0l97.44-54.28a22.52,22.52,0,0,0,11.59-19.64V160.77h2v25.48a24.49,24.49,0,0,1-12.6,21.35l-97.44,54.28A24.88,24.88,0,0,1,130.16,265Z"/><ellipse class="cls-1" cx="8.78" cy="104.07" rx="8.78" ry="8.7"/><ellipse class="cls-1" cx="8.78" cy="160.62" rx="8.78" ry="8.7"/><ellipse class="cls-1" cx="251.22" cy="104.07" rx="8.78" ry="8.7"/><ellipse class="cls-1" cx="251.22" cy="160.62" rx="8.78" ry="8.7"/><path class="cls-1" d="M174.88,53.84H85.1a1.39,1.39,0,0,0-1.41,1.37v73.15a1.41,1.41,0,0,0,1.41,1.42H99.82l.76,1.33a3.24,3.24,0,0,0,1.89,1.42,3.38,3.38,0,0,0,2.38-.29l2.92-1.71a29.18,29.18,0,0,0,2.84,2.83l-1.68,2.92a3,3,0,0,0-.32,2.33,3.09,3.09,0,0,0,1.45,1.87l4.42,2.55a3.19,3.19,0,0,0,2.38.29,3.11,3.11,0,0,0,1.89-1.42l1.68-2.91a34.42,34.42,0,0,0,3.89,1v3.33a3.11,3.11,0,0,0,3.14,3.08h5.08a3.11,3.11,0,0,0,3.14-3.08V140a34.42,34.42,0,0,0,3.89-1l1.68,2.87a3,3,0,0,0,1.89,1.46,3.19,3.19,0,0,0,2.38-.29l4.42-2.55a3.16,3.16,0,0,0,1.45-1.87,3,3,0,0,0-.32-2.33l-1.7-2.92a27.3,27.3,0,0,0,2.86-2.83l2.92,1.71a3.4,3.4,0,0,0,2.38.29,3.24,3.24,0,0,0,1.89-1.42l.76-1.33h14.7a1.41,1.41,0,0,0,1.43-1.42V55.21A1.4,1.4,0,0,0,174.88,53.84ZM86.51,56.63h87V67.71h-87ZM157,129.7c0,.08-.12.08-.17.12a.45.45,0,0,1-.21,0l-4-2.25a1.44,1.44,0,0,0-1.81.33,26.94,26.94,0,0,1-4.12,4.08,1.38,1.38,0,0,0-.36,1.8l2.29,3.91a.37.37,0,0,1,0,.21.36.36,0,0,1-.15.21l-4.42,2.54h-.21a.2.2,0,0,1-.17-.13l-2.29-3.95a1.43,1.43,0,0,0-1.74-.58,27.29,27.29,0,0,1-5.64,1.49,1.43,1.43,0,0,0-1.2,1.38v4.54a.29.29,0,0,1-.3.29h-5.08a.29.29,0,0,1-.3-.29v-4.54a1.43,1.43,0,0,0-1.2-1.38,27.29,27.29,0,0,1-5.64-1.49,1,1,0,0,0-.5-.09,1.45,1.45,0,0,0-1.24.67l-2.29,3.95a.22.22,0,0,1-.17.13h-.21l-4.42-2.54a.36.36,0,0,1-.15-.21.37.37,0,0,1,0-.21l2.29-3.91a1.42,1.42,0,0,0-.34-1.8,26.19,26.19,0,0,1-4.14-4.08,1.44,1.44,0,0,0-1.81-.33l-4,2.25a.45.45,0,0,1-.21,0s-.13,0-.17-.12l-2.57-4.38c0-.12,0-.17,0-.21a.26.26,0,0,1,.13-.16l4-2.3a1.36,1.36,0,0,0,.61-1.7,27,27,0,0,1-1.51-5.59,1.4,1.4,0,0,0-1.41-1.2H97.68a.29.29,0,0,1-.3-.29v-5.05a.29.29,0,0,1,.3-.29h4.56a1.41,1.41,0,0,0,1.41-1.17,25.74,25.74,0,0,1,1.51-5.58,1.39,1.39,0,0,0-.61-1.74l-4-2.26c-.06-.08-.11-.12-.13-.16a.24.24,0,0,1,0-.21L103,93a.21.21,0,0,1,.17-.12.49.49,0,0,1,.21,0l4,2.25a1.39,1.39,0,0,0,1.81-.33,26.69,26.69,0,0,1,4.14-4.09,1.41,1.41,0,0,0,.34-1.79L111.39,85a.38.38,0,0,1,0-.25,1.49,1.49,0,0,1,.15-.17l4.42-2.5c.1-.08.31,0,.38.08l2.29,3.92a1.41,1.41,0,0,0,1.74.62A26.68,26.68,0,0,1,126,85.25a1.4,1.4,0,0,0,1.2-1.38V79.33a.29.29,0,0,1,.3-.29h5.08a.29.29,0,0,1,.3.29v4.54a1.4,1.4,0,0,0,1.2,1.38,26.68,26.68,0,0,1,5.64,1.49,1.41,1.41,0,0,0,1.74-.62l2.29-3.92c.07-.08.28-.16.38-.08l4.42,2.5a1.49,1.49,0,0,1,.15.17.38.38,0,0,1,0,.25L146.32,89a1.37,1.37,0,0,0,.36,1.79,27.47,27.47,0,0,1,4.12,4.09,1.39,1.39,0,0,0,1.81.33l4-2.25a.45.45,0,0,1,.21,0c.05,0,.13,0,.17.17l2.57,4.37a.24.24,0,0,1,0,.21.92.92,0,0,1-.15.16l-4,2.26a1.4,1.4,0,0,0-.61,1.74,25.74,25.74,0,0,1,1.51,5.58,1.41,1.41,0,0,0,1.41,1.17h4.56a.29.29,0,0,1,.28.29v5.05a.29.29,0,0,1-.28.29h-4.56a1.4,1.4,0,0,0-1.41,1.2,27,27,0,0,1-1.51,5.59,1.37,1.37,0,0,0,.61,1.7l4,2.3a.26.26,0,0,1,.13.16s0,.09,0,.21ZM173.47,127H161.82l.15-.29a3.07,3.07,0,0,0-1.14-4.21l-2.94-1.67a26.27,26.27,0,0,0,1.05-3.87h3.38a3.1,3.1,0,0,0,3.12-3.08v-5.05a3.1,3.1,0,0,0-3.12-3.08h-3.38a29.26,29.26,0,0,0-1.05-3.87l2.94-1.67a3.07,3.07,0,0,0,1.45-1.88A3,3,0,0,0,162,96l-2.55-4.37a3,3,0,0,0-1.89-1.46,3.38,3.38,0,0,0-2.38.29l-2.92,1.71a29.39,29.39,0,0,0-2.86-2.83l1.7-2.88a3.15,3.15,0,0,0,.32-2.37,3.21,3.21,0,0,0-1.45-1.88l-4.42-2.5a3.11,3.11,0,0,0-4.27,1.13l-1.68,2.88a34.24,34.24,0,0,0-3.89-1V79.33a3.11,3.11,0,0,0-3.14-3.08h-5.08a3.11,3.11,0,0,0-3.14,3.08V82.7a34.24,34.24,0,0,0-3.89,1l-1.68-2.88a3.11,3.11,0,0,0-4.27-1.13l-4.42,2.5a3.14,3.14,0,0,0-1.45,1.88,3,3,0,0,0,.32,2.33l1.68,2.92a29.18,29.18,0,0,0-2.84,2.83l-2.92-1.67a3.21,3.21,0,0,0-2.38-.33,3,3,0,0,0-1.89,1.46L98,96a3,3,0,0,0-.31,2.33,3.07,3.07,0,0,0,1.45,1.88l2.94,1.67a29.26,29.26,0,0,0-1,3.87H97.68a3.1,3.1,0,0,0-3.12,3.08v5.05A3.1,3.1,0,0,0,97.68,117h3.38a26.27,26.27,0,0,0,1,3.87l-2.94,1.67A3.07,3.07,0,0,0,98,126.7l.15.29H86.51V70.54h87Z"/><path class="cls-1" d="M166.53,61.17a1.43,1.43,0,0,0-.42,1,1.45,1.45,0,0,0,.42,1,1.42,1.42,0,0,0,2,0,1.45,1.45,0,0,0,.42-1,1.43,1.43,0,0,0-.42-1A1.52,1.52,0,0,0,166.53,61.17Z"/><path class="cls-1" d="M159.8,60.75a1.44,1.44,0,0,0-1.41,1.42,1.42,1.42,0,0,0,2.84,0A1.44,1.44,0,0,0,159.8,60.75Z"/><path class="cls-1" d="M151.09,61.17a1.43,1.43,0,0,0-.42,1,1.38,1.38,0,0,0,.42,1,1.31,1.31,0,0,0,1,.41,1.29,1.29,0,0,0,1-.41,1.45,1.45,0,0,0,.42-1,1.43,1.43,0,0,0-.42-1A1.52,1.52,0,0,0,151.09,61.17Z"/><path class="cls-1" d="M130,91.87a19.48,19.48,0,1,0,19.64,19.5A19.59,19.59,0,0,0,130,91.87Zm13.27,29.66a15.46,15.46,0,0,1-3.7-8.79h7.17A16.21,16.21,0,0,1,143.27,121.53Zm-30-8.79h7.17a15.35,15.35,0,0,1-3.72,8.79A16.34,16.34,0,0,1,113.26,112.74Zm3.45-11.58a15.32,15.32,0,0,1,3.72,8.79h-7.17A16.34,16.34,0,0,1,116.71,101.16Zm14.7,8.79V94.74a17,17,0,0,1,10,4.34A18.2,18.2,0,0,0,136.73,110Zm-2.84,0h-5.3a18.2,18.2,0,0,0-4.63-10.87,17,17,0,0,1,9.93-4.34Zm-5.3,2.79h5.3V128a17,17,0,0,1-9.93-4.34A18.2,18.2,0,0,0,123.27,112.74Zm8.14,0h5.32a18.2,18.2,0,0,0,4.63,10.87,17,17,0,0,1-10,4.34Zm8.16-2.79a15.43,15.43,0,0,1,3.7-8.79,16.21,16.21,0,0,1,3.47,8.79Z"/></svg>