<svg id="圖層_1" data-name="圖層 1" xmlns="http://www.w3.org/2000/svg" viewBox="0 0 100 120"><defs><style>.cls-1{fill:#1a1a1a;}.cls-2{fill:#fff;}</style></defs><title>新網頁使用元件</title><polygon class="cls-1" points="48.67 1.08 0.92 29.36 2.25 88.28 51.33 118.92 99.08 90.64 97.75 31.73 48.67 1.08"/><path class="cls-2" d="M51.32,120l-50-31.2L0,28.83,48.68,0l50,31.2,1.36,60ZM3.15,87.74l48.2,30.1L98.16,90.11,96.85,32.26,48.65,2.16,1.84,29.89Z"/><path class="cls-2" d="M33.78,31.75V51.58H31.36V47.27c-1.74.32-3.45.65-4.92.88l-.54-2.59,1.27-.18V31.75h-.9V29.09h8.27v2.66Zm-2.42,0H29.5v2.64h1.86Zm0,5.07H29.5v2.67h1.86Zm0,7.91V41.92H29.5V45ZM40.44,36a38.41,38.41,0,0,1,1.17,4.14l-1.74.56c-.07-.33-.14-.73-.22-1.16-4,.5-4.62.68-5,.9-.1-.57-.4-1.85-.62-2.58a3.26,3.26,0,0,0,1.42-1.16,10.38,10.38,0,0,0,1-1.28,4.15,4.15,0,0,0-1.71.38,23.92,23.92,0,0,0-.66-2.66,2,2,0,0,0,1-.88,17.5,17.5,0,0,0,2.15-4l2.06.93a27.72,27.72,0,0,1-2.64,4.34l1.12,0c.44-.73.88-1.46,1.28-2.23l1.9,1a34.69,34.69,0,0,1-4.06,5.67l2.25-.22c-.12-.45-.27-.91-.39-1.31Zm-2,4.72h2.4v3.74a7.34,7.34,0,0,1-4.56,7.28,9.16,9.16,0,0,0-1.51-2,5.73,5.73,0,0,0,3.25-2.89H35v-6.1H37.3v3.62h1.18Zm8.91-.12c-.1-.38-.2-.81-.35-1.29-3.91.68-4.57.91-5,1.16a22.34,22.34,0,0,0-.59-2.51c.42-.08.81-.53,1.33-1.18a14.42,14.42,0,0,0,1.1-1.58,5.62,5.62,0,0,0-2.16.45c-.12-.55-.41-1.78-.63-2.46a1.81,1.81,0,0,0,1-.8,17.38,17.38,0,0,0,2.17-3.89l1.79,1a24.48,24.48,0,0,1-2.37,3.9L45,33.26a21.67,21.67,0,0,0,1-2.06l1.86,1A35.86,35.86,0,0,1,44.4,37.8l2.08-.3c-.15-.45-.32-.88-.46-1.28l1.61-.55c.54,1.33,1.18,3.11,1.47,4.17Zm-1.79.3H48v6.77H45.6v-.85H44.38v4.79h-2.5V40.72h2.5v3.51H45.6Z"/><path class="cls-2" d="M58.5,43.9c0-.35-.13-.8-.22-1.3-4.43.75-5.22,1-5.75,1.23-.15-.53-.62-1.88-.91-2.64.61-.12,1.15-.7,1.93-1.63a22.9,22.9,0,0,0,1.52-2,8.78,8.78,0,0,0-2.74.53c-.15-.56-.56-1.81-.86-2.54.47-.13.88-.58,1.4-1.36a28.42,28.42,0,0,0,3-6.07l2.55,1.1a36.51,36.51,0,0,1-3.48,6.08l1.69-.13c.61-1,1.23-2.23,1.74-3.36l2.4,1.51a46.56,46.56,0,0,1-3.26,5.14l1.79-.5a34.26,34.26,0,0,1,1.4,5.25ZM55,45a28.22,28.22,0,0,1-1.1,6.15,11.43,11.43,0,0,0-2.28-.82,22.2,22.2,0,0,0,1-5.73Zm2.59-.47A48.15,48.15,0,0,1,58.23,50L56,50.43A50,50,0,0,0,55.46,45Zm.25-4.12c-.15-.6-.32-1.21-.49-1.76-.52.7-1,1.41-1.62,2.06ZM60,43.88a36.77,36.77,0,0,1,1.35,4.72l-2.06.75A37,37,0,0,0,58,44.53ZM73.7,31.48A19.82,19.82,0,0,1,69.78,38a17.65,17.65,0,0,0,5.14,2.79,12.08,12.08,0,0,0-1.86,2.53h0v8.26H70.2v-.78h-5v.8H62.49V43.35l-.49.23a10.48,10.48,0,0,0-1.69-2.34,19.63,19.63,0,0,0,5.55-3.31A27.91,27.91,0,0,1,64,35.47a15.15,15.15,0,0,1-1.76,1.81,18.82,18.82,0,0,0-2.16-2.11,16,16,0,0,0,5.14-7.08l2.77.8c-.25.58-.49,1.16-.79,1.73H71.3l.46-.12ZM71.05,42.3a17.25,17.25,0,0,1-3.25-2.39,23.1,23.1,0,0,1-3.33,2.39Zm-.85,5.87V44.91h-5v3.26ZM65.64,33.34a18,18,0,0,0,2.11,2.76,17.77,17.77,0,0,0,2.13-3H65.81Z"/><path class="cls-2" d="M47.61,76.64a24.28,24.28,0,0,1-4.07,5.5c.67,1.93,1.42,3.09,2.16,3.09.51,0,.81-1.21.93-4.17A7.41,7.41,0,0,0,49,82.77c-.47,4.39-1.37,5.5-3.6,5.5-1.79,0-3.16-1.51-4.21-4a25.58,25.58,0,0,1-4.53,3.06A12.91,12.91,0,0,0,34.76,85a25.09,25.09,0,0,0,5.46-3.54A46.54,46.54,0,0,1,39,74.68H34v2.87l3.77-.71L38,79.55l-4,.83v4.3c0,1.63-.34,2.43-1.32,2.91a10.48,10.48,0,0,1-4.41.58,12,12,0,0,0-1-3c1.38.08,2.79,0,3.24,0s.58-.13.58-.53V81c-1.56.33-3.08.65-4.38.9l-.71-3c1.4-.22,3.16-.5,5.09-.85V74.68H26.44V71.85h4.62V69c-1.32.22-2.66.4-3.91.55A12,12,0,0,0,26.31,67,61,61,0,0,0,36,64.92l2,2.54c-1.22.37-2.57.7-4,1v3.39h4.7c-.2-2.26-.27-4.6-.29-6.88h3.05a64.73,64.73,0,0,0,.25,6.88h6.66v2.83H42c.2,1.51.44,3,.71,4.25A21.07,21.07,0,0,0,45,75.51Zm-1.79-5.52A19.9,19.9,0,0,0,42.35,67l2.2-1.53a21.19,21.19,0,0,1,3.62,4Z"/><path class="cls-2" d="M65.45,75.64H61.24V88.12H58.55v-22c-.49,1.44-1.06,2.92-1.69,4.35v17.7H54.09V75.61a18.34,18.34,0,0,1-1.52,2.06,21.65,21.65,0,0,0-1.39-3.21A27.77,27.77,0,0,0,56,64.77l2.7.83-.15.47h6.88Zm-4.21-7.31v1.43h2V68.33Zm2,5V71.9h-2v1.48ZM73.82,84.7c0,1.66-.34,2.46-1.32,2.89s-2.55.55-4.85.55a11.09,11.09,0,0,0-.93-2.89c1.49.1,3.18.08,3.67,0s.64-.15.64-.62v-9H66.55V66.07h7.27Zm-5-16.37v1.43H71V68.33Zm2.18,5V71.9H68.85v1.48Z"/></svg>