<svg id="圖層_1" data-name="圖層 1" xmlns="http://www.w3.org/2000/svg" viewBox="0 0 260 265"><defs><style>.cls-1{fill:#fff;}</style></defs><title>新網頁使用元件</title><path class="cls-1" d="M66.79,197.56a23.93,23.93,0,0,0-1.51-2v8H62.87V196a15.72,15.72,0,0,1-2.36,1.8,12.12,12.12,0,0,0-.93-2.48,14.36,14.36,0,0,0,5.31-5.3H60.18v-2.19H63.8a14.16,14.16,0,0,0-1.68-2.52l1.95-1A13.53,13.53,0,0,1,66,186.92l-1.64.94h1.93l.41-.1,1.3.94A19.53,19.53,0,0,1,65.57,193c.85.73,2.34,2.17,2.75,2.56Zm12.38,2.95v2.42H67.25v-2.42h5v-7.59H68.16v-2.36h4.07v-6h2.54v6h3.91v2.36H74.77v7.59Z"/><path class="cls-1" d="M90.81,195.68v6.9H86v1H83.74v-4.75c-.27.31-.53.64-.84.94A9.4,9.4,0,0,0,81.39,198a9.21,9.21,0,0,0,2.29-3.89h-1v-2H84.2c.06-.41.14-.82.2-1.27H81.63l0-2h3c0-.43.06-.88.08-1.33h-1.9v-2.05H90.4v3.38h1v2h-1v3.31H85.91a12.63,12.63,0,0,1-.47,1.58ZM86,197.77v2.72h2.46v-2.72Zm.6-7c-.06.43-.1.84-.18,1.27h1.73v-1.27Zm.33-3.36c0,.45-.06.9-.1,1.33h1.32v-1.33Zm14,11.65H97.18v4.48H94.8v-4.48H91.33v-2.27H94.8v-2.15H92v-2.24H94.8v-1.86h-3v-2.19H93a11.68,11.68,0,0,0-1.2-3.13l2-.68a11.82,11.82,0,0,1,1.4,3.34l-1.32.47h4.5l-1.71-.45a21.84,21.84,0,0,0,1.24-3.52l2.38.55c-.52,1.25-1.08,2.52-1.55,3.42h1.79v2.19H97.18v1.86h2.95v2.24H97.18v2.15h3.74Z"/><path class="cls-1" d="M111.15,195.54l-2.21,1.88a37.15,37.15,0,0,0-4.45-4.5l2.15-1.87A39.06,39.06,0,0,1,111.15,195.54Z"/><path class="cls-1" d="M119.81,194a27.42,27.42,0,0,1-1.47,5.51c.35.2.77.51,1.35.84,1.42.81,3.41,1,5.85,1a83.58,83.58,0,0,0,8.47-.51,8.82,8.82,0,0,0-.7,2.37c-1.68.08-5.44.23-7.88.23-2.77,0-4.54-.21-6.07-1-.89-.49-1.62-1.16-2.07-1.16s-1,1.39-1.34,2.53l-1.58-2.25a8.54,8.54,0,0,1,2-2,20,20,0,0,0,1-3.61h-2.27c.41-1.2.89-2.84,1.28-4.44h-1.63v-2.17H119c-.37,1.43-.8,3.07-1.21,4.5h.74l.31-.06Zm-3-5.36c-.23-.92-.68-2.42-1-3.52l1.88-.56,1.08,3.42Zm4.57.47h-1.7v-2h2.63c-.17-.65-.39-1.43-.62-2l2.21-.39a21.62,21.62,0,0,1,.81,2.43h1.9v1.15a15.69,15.69,0,0,0,1.61-3.89l2.07.55c-.17.53-.35,1.05-.54,1.58h4v2h-4.88c-.23.45-.45.84-.68,1.23H132l.39-.12,1.3,1a21.32,21.32,0,0,1-2.29,2.38v.8h2.39v1.92h-2.39v2.42c0,1-.13,1.53-.81,1.86a6.15,6.15,0,0,1-2.67.35,6.13,6.13,0,0,0-.68-2c.77,0,1.53,0,1.76,0s.31-.06.31-.25v-2.39H127v-1.92h2.32v-1.27a9.9,9.9,0,0,0,1-1h-2.83v-1.29c-.39-.34-1-.82-1.4-1.1h-2.82v1.49h3.25v.84c-.12,5.51-.25,7.53-.72,8.17a1.56,1.56,0,0,1-1.18.76,11.86,11.86,0,0,1-1.82.08,5,5,0,0,0-.54-2,8.9,8.9,0,0,0,1.22.07.57.57,0,0,0,.52-.27c.25-.37.35-1.78.43-5.71h-1.18c-.08,2.45-.55,5.5-2.5,7.57a7.9,7.9,0,0,0-1.42-1.41c1.75-2,1.94-5.06,1.94-7.19Z"/><path class="cls-1" d="M139.3,193.33c0,2.88-.25,7.24-1.59,10a8.76,8.76,0,0,0-1.65-1.29c1.13-2.54,1.24-6.14,1.24-8.74v-5.55h3.82v-3.34h2.27v1h4.26V187h-4.26v.76h3.12l.29-.06,1.47.24a28.34,28.34,0,0,1-.85,3.24l-1.73-.31c.1-.41.22-1,.33-1.58H143.5v.86l1.81-.14.17,1.21-2,.18v.15c0,.43,0,.61.49.61h1.49a6.65,6.65,0,0,0,1.45-.12,12.94,12.94,0,0,0,.14,1.33,5.26,5.26,0,0,1-1.49.14h-2.21c-1.53,0-1.84-.67-1.84-1.94l-1.92.18-.17-1.25,2.09-.18v-1H139.3Zm16.06-.15a21.78,21.78,0,0,1-2.77,6c.27.9.6,1.43.93,1.45s.52-1,.62-2.68a6.61,6.61,0,0,0,1.7,1.37c-.52,3.4-1.53,4.18-2.34,4.16-1.08,0-1.88-.84-2.52-2.23a12.75,12.75,0,0,1-1.92,1.72,8.41,8.41,0,0,0-1.35-1.31v.84c-3,.26-6.18.53-8.49.67l-.23-1.76,2.23-.14c-.12-.49-.31-1.07-.47-1.54l1.65-.28a10,10,0,0,1,.58,1.7l1.12-.09a18.45,18.45,0,0,0,.72-1.74l2,.29c-.26.47-.53.9-.8,1.33l1.67-.12v.3a11.85,11.85,0,0,0,2.5-2.33,44.41,44.41,0,0,1-.87-6.53l-1.28.17-.29-2.13,1.43-.19c-.08-1.74-.14-3.6-.19-5.59h2.26c0,1.85.06,3.63.14,5.31l4-.54.27,2.11-4.13.55c.12,1.54.26,3,.43,4.16a19.37,19.37,0,0,0,1.57-3.91Zm-7.56,2.27h-8.09V194h8.09Zm-7.65,3.83V196h7.19v3.25Zm1.84-1.14h3.41v-.95H142ZM153.56,189a36.89,36.89,0,0,0-1.84-3.38l1.8-.88c.66,1,1.53,2.41,1.94,3.25Z"/><path class="cls-1" d="M177.12,196.81H169v6.75h-2.56v-6.75h-8v-2.48h8v-6.2h-7v-2.42h16.46v2.42H169v6.2h8.12Zm-14.13-8a18.72,18.72,0,0,1,1.65,4.18l-2.4.73a19.57,19.57,0,0,0-1.51-4.25Zm7.67,4.26a24.11,24.11,0,0,0,1.79-4.32l2.63.65a38.81,38.81,0,0,1-2.28,4.28Z"/><path class="cls-1" d="M193,186.33a37.62,37.62,0,0,1,5.44,6l-2.09,1.5a16.7,16.7,0,0,0-1.08-1.56c-11,.53-12.44.57-13.53.94a19.25,19.25,0,0,0-.81-2.33,4.23,4.23,0,0,0,1.72-1.19,27.44,27.44,0,0,0,4.38-5.57l2.48,1a34.69,34.69,0,0,1-4.51,5.22l8.47-.27c-.8-.9-1.63-1.76-2.39-2.52Zm-10.58,8.22h13.93v9h-2.65v-1H185v1h-2.52Zm2.52,2.34v3.27h8.76v-3.27Z"/><path class="cls-1" d="M252.31,104.42h-2V78.74a22.52,22.52,0,0,0-11.59-19.63L141.31,4.83a23,23,0,0,0-22.31,0L21.57,59.11A22.5,22.5,0,0,0,10,78.74v22.94H8V78.74A24.48,24.48,0,0,1,20.6,57.4L118,3.12a25.08,25.08,0,0,1,24.23,0L239.71,57.4a24.48,24.48,0,0,1,12.6,21.34Z"/><path class="cls-1" d="M130.16,265A24.92,24.92,0,0,1,118,261.88L20.6,207.6A24.49,24.49,0,0,1,8,186.25V160.77h2v25.48a22.51,22.51,0,0,0,11.6,19.64L119,260.17a23,23,0,0,0,22.31,0l97.44-54.28a22.52,22.52,0,0,0,11.59-19.64V160.77h2v25.48a24.49,24.49,0,0,1-12.6,21.35l-97.44,54.28A24.88,24.88,0,0,1,130.16,265Z"/><ellipse class="cls-1" cx="8.78" cy="104.07" rx="8.78" ry="8.7"/><ellipse class="cls-1" cx="8.78" cy="160.62" rx="8.78" ry="8.7"/><ellipse class="cls-1" cx="251.22" cy="104.07" rx="8.78" ry="8.7"/><ellipse class="cls-1" cx="251.22" cy="160.62" rx="8.78" ry="8.7"/><path class="cls-1" d="M130.24,124.19A24.24,24.24,0,1,1,154.71,100,24.38,24.38,0,0,1,130.24,124.19Zm0-46a21.76,21.76,0,1,0,22,21.76A21.89,21.89,0,0,0,130.24,78.2Z"/><path class="cls-1" d="M130.63,106.11c-5.35,0-9.7-4.73-9.7-10.53a11,11,0,0,1,2.45-7c1.6-2,4-2.92,7.25-2.92s6,1.15,7.61,3.4a11,11,0,0,1,2.08,6.52C140.32,101.38,136,106.11,130.63,106.11Zm0-17.35c-2.34,0-3.82.55-4.83,1.77a8,8,0,0,0-1.74,5c0,4.1,2.94,7.43,6.57,7.43s6.56-3.33,6.56-7.43a8,8,0,0,0-1.49-4.71C134.66,89.43,133.05,88.76,130.63,88.76Z"/><path class="cls-1" d="M114.06,118.35c-1.35-12.69,9.5-18.22,9.61-18.27l1.4,2.77-.7-1.39.7,1.38a15.33,15.33,0,0,0-7.9,15.19Z"/><path class="cls-1" d="M146.57,118.35l-3.11-.32c1.12-10.58-7.81-15.14-7.9-15.18l1.39-2.77C137.06,100.13,147.92,105.66,146.57,118.35Z"/><path class="cls-1" d="M105,66.38l-1.91-2.45a44.91,44.91,0,0,1,19.53-8.59l.54,3.06A41.48,41.48,0,0,0,105,66.38Z"/><path class="cls-1" d="M88.76,91l-3.05-.65a45.11,45.11,0,0,1,8-17.51l2.52,1.84A42.35,42.35,0,0,0,88.76,91Z"/><path class="cls-1" d="M93.83,126.93a45.71,45.71,0,0,1-8.15-20.62l3.1-.4a42.64,42.64,0,0,0,7.6,19.23Z"/><path class="cls-1" d="M123.4,145.23a44.66,44.66,0,0,1-20.67-9l1.94-2.43a41.52,41.52,0,0,0,19.21,8.36Z"/><path class="cls-1" d="M138.64,145l-.59-3a41.46,41.46,0,0,0,17.84-8.16l2,2.43A44.74,44.74,0,0,1,138.64,145Z"/><path class="cls-1" d="M166.73,126.87l-2.55-1.79a42.79,42.79,0,0,0,7.52-19l3.1.42A45.82,45.82,0,0,1,166.73,126.87Z"/><path class="cls-1" d="M171.12,91a42.4,42.4,0,0,0-7.26-16.1l2.53-1.83a45.47,45.47,0,0,1,7.79,17.28Z"/><path class="cls-1" d="M155.57,66.43a41.62,41.62,0,0,0-18.12-8l.55-3A44.66,44.66,0,0,1,157.49,64Z"/><path class="cls-1" d="M136.64,67.23a1.58,1.58,0,0,1-.73-.18l-5.28-2.75-5.29,2.75a1.58,1.58,0,0,1-1.65-.12,1.54,1.54,0,0,1-.62-1.51l1-5.83-4.28-4.13a1.54,1.54,0,0,1-.39-1.59,1.57,1.57,0,0,1,1.26-1.06l5.91-.85,2.64-5.3a1.58,1.58,0,0,1,2.81,0l2.64,5.3,5.91.85a1.57,1.57,0,0,1,1.26,1.06,1.54,1.54,0,0,1-.39,1.59l-4.28,4.13,1,5.83a1.54,1.54,0,0,1-.62,1.51A1.56,1.56,0,0,1,136.64,67.23Zm-6-6.23a1.51,1.51,0,0,1,.72.18l3.21,1.67L134,59.31a1.51,1.51,0,0,1,.45-1.37l2.6-2.51-3.59-.52a1.56,1.56,0,0,1-1.18-.85l-1.6-3.22L129,54.06a1.56,1.56,0,0,1-1.18.85l-3.59.52,2.6,2.51a1.51,1.51,0,0,1,.45,1.37l-.61,3.54,3.21-1.67A1.58,1.58,0,0,1,130.63,61Z"/><path class="cls-1" d="M136.64,154a1.58,1.58,0,0,1-.73-.18L130.63,151l-5.29,2.75a1.58,1.58,0,0,1-1.65-.11,1.56,1.56,0,0,1-.62-1.52l1-5.83-4.28-4.13a1.52,1.52,0,0,1-.39-1.58,1.55,1.55,0,0,1,1.26-1.06l5.91-.85,2.64-5.3a1.57,1.57,0,0,1,2.81,0l2.64,5.3,5.91.85a1.55,1.55,0,0,1,1.26,1.06,1.52,1.52,0,0,1-.39,1.58l-4.28,4.13,1,5.83a1.56,1.56,0,0,1-.62,1.52A1.62,1.62,0,0,1,136.64,154Zm-6-6.23a1.51,1.51,0,0,1,.72.18l3.21,1.67L134,146a1.53,1.53,0,0,1,.45-1.37l2.6-2.5-3.59-.52a1.56,1.56,0,0,1-1.18-.85l-1.6-3.22L129,140.79a1.56,1.56,0,0,1-1.18.85l-3.59.52,2.6,2.5a1.53,1.53,0,0,1,.45,1.37l-.61,3.54,3.21-1.67A1.58,1.58,0,0,1,130.63,147.72Z"/><path class="cls-1" d="M92.86,110.59a1.58,1.58,0,0,1-.73-.18l-5.29-2.75-5.28,2.75a1.56,1.56,0,0,1-1.65-.12,1.53,1.53,0,0,1-.62-1.51l1-5.83L76,98.82a1.54,1.54,0,0,1-.4-1.59,1.57,1.57,0,0,1,1.27-1l5.91-.85L85.44,90a1.57,1.57,0,0,1,2.8,0l2.65,5.31,5.91.85a1.54,1.54,0,0,1,.86,2.64L93.39,103l1,5.83a1.53,1.53,0,0,1-.62,1.51A1.58,1.58,0,0,1,92.86,110.59Zm-6-6.23a1.58,1.58,0,0,1,.73.18l3.21,1.67-.61-3.54a1.52,1.52,0,0,1,.45-1.37l2.59-2.51-3.59-.51a1.55,1.55,0,0,1-1.17-.85l-1.61-3.22-1.6,3.22a1.58,1.58,0,0,1-1.18.85l-3.59.51,2.6,2.51a1.55,1.55,0,0,1,.45,1.37l-.62,3.54,3.21-1.67A1.58,1.58,0,0,1,86.84,104.36Z"/><path class="cls-1" d="M179.17,110.59a1.58,1.58,0,0,1-.73-.18l-5.28-2.75-5.29,2.75a1.57,1.57,0,0,1-1.65-.12,1.53,1.53,0,0,1-.62-1.51l1-5.83-4.27-4.13a1.54,1.54,0,0,1,.86-2.64l5.91-.85L171.76,90a1.57,1.57,0,0,1,2.8,0l2.64,5.31,5.91.85a1.57,1.57,0,0,1,1.27,1,1.54,1.54,0,0,1-.4,1.59L179.7,103l1,5.83a1.56,1.56,0,0,1-1.54,1.81Zm-6-6.23a1.58,1.58,0,0,1,.73.18l3.21,1.67-.62-3.54a1.55,1.55,0,0,1,.45-1.37l2.6-2.51-3.59-.51a1.58,1.58,0,0,1-1.18-.85l-1.6-3.22-1.61,3.22a1.55,1.55,0,0,1-1.17.85l-3.59.51,2.59,2.51a1.52,1.52,0,0,1,.45,1.37l-.61,3.54,3.21-1.67A1.58,1.58,0,0,1,173.16,104.36Z"/><path class="cls-1" d="M99.35,77a7.74,7.74,0,1,1,7.82-7.74A7.79,7.79,0,0,1,99.35,77Zm0-12.39A4.65,4.65,0,1,0,104,69.25,4.68,4.68,0,0,0,99.35,64.6Z"/><path class="cls-1" d="M161.27,77a7.74,7.74,0,1,1,7.82-7.74A7.78,7.78,0,0,1,161.27,77Zm0-12.39a4.65,4.65,0,1,0,4.7,4.65A4.68,4.68,0,0,0,161.27,64.6Z"/><path class="cls-1" d="M99.35,138.32a7.75,7.75,0,1,1,7.82-7.74A7.79,7.79,0,0,1,99.35,138.32Zm0-12.39a4.65,4.65,0,1,0,4.69,4.65A4.68,4.68,0,0,0,99.35,125.93Z"/><path class="cls-1" d="M161.27,138.32a7.75,7.75,0,1,1,7.82-7.74A7.78,7.78,0,0,1,161.27,138.32Zm0-12.39a4.65,4.65,0,1,0,4.7,4.65A4.68,4.68,0,0,0,161.27,125.93Z"/><path class="cls-1" d="M113.11,84.12a1.21,1.21,0,0,1-.88-.37l-9.38-9.29a1.23,1.23,0,0,1,0-1.75,1.26,1.26,0,0,1,1.76,0L114,82a1.23,1.23,0,0,1,0,1.75A1.25,1.25,0,0,1,113.11,84.12Z"/><path class="cls-1" d="M130.63,77.92a1.24,1.24,0,0,1-1.26-1.24V62.43a1.26,1.26,0,0,1,2.51,0V76.68A1.24,1.24,0,0,1,130.63,77.92Z"/><path class="cls-1" d="M146.89,84.74a1.29,1.29,0,0,1-.89-.37,1.23,1.23,0,0,1,0-1.75l10-9.91a1.27,1.27,0,0,1,1.77,0,1.23,1.23,0,0,1,0,1.75l-10,9.91A1.25,1.25,0,0,1,146.89,84.74Z"/><path class="cls-1" d="M106.86,103.94h-15a1.24,1.24,0,1,1,0-2.48h15a1.24,1.24,0,1,1,0,2.48Z"/><path class="cls-1" d="M167.53,104.56H153.14a1.24,1.24,0,1,1,0-2.48h14.39a1.24,1.24,0,1,1,0,2.48Z"/><path class="cls-1" d="M103.73,127.48a1.24,1.24,0,0,1-.88-2.12l10-9.91a1.27,1.27,0,0,1,1.77,0,1.24,1.24,0,0,1,0,1.76l-10,9.91A1.24,1.24,0,0,1,103.73,127.48Z"/><path class="cls-1" d="M155.33,127.79a1.24,1.24,0,0,1-.88-.36l-9.7-9.61a1.23,1.23,0,0,1,0-1.75,1.27,1.27,0,0,1,1.77,0l9.7,9.6a1.24,1.24,0,0,1,0,1.76A1.28,1.28,0,0,1,155.33,127.79Z"/><path class="cls-1" d="M130.63,135.53a1.24,1.24,0,0,1-1.26-1.24V123.14a1.26,1.26,0,0,1,2.51,0v11.15A1.24,1.24,0,0,1,130.63,135.53Z"/></svg>