<svg xmlns="http://www.w3.org/2000/svg" xmlns:xlink="http://www.w3.org/1999/xlink" viewBox="0 0 500 580"><defs><style>.cls-1{isolation:isolate;}.cls-2{fill:#e0e0e2;}.cls-3{fill:url(#Gradient_bez_nazwy_17);}.cls-4{fill:url(#未命名漸層_32);}.cls-5{fill:#aaaae8;opacity:0.09;mix-blend-mode:color-dodge;}.cls-16,.cls-6{fill:#eeedf3;}.cls-6{opacity:0.2;}.cls-7{fill:#ff3131;}.cls-8{fill:#ff7373;}.cls-9{fill:#010080;}.cls-10{fill:#f8b7b0;}.cls-11{fill:#e49f98;}.cls-12{fill:url(#未命名漸層_22);}.cls-13{fill:#4d4d4d;}.cls-14{fill:url(#Gradient_bez_nazwy_10);}.cls-15{fill:#eefaff;}.cls-17,.cls-35,.cls-37{mix-blend-mode:multiply;}.cls-18{fill:#c8c7d9;}.cls-19{fill:#f8aa00;}.cls-20{fill:#fb3;}.cls-21{fill:#ed9e00;}.cls-22{fill:url(#未命名漸層_59);}.cls-23{fill:#fff;}.cls-24{fill:#ff3158;}.cls-25{fill:#ff7d43;}.cls-26{fill:url(#Gradient_bez_nazwy_114);}.cls-27{fill:url(#Gradient_bez_nazwy_114-2);}.cls-28{fill:url(#未命名漸層_63);}.cls-29{fill:url(#未命名漸層_69);}.cls-30{fill:#130b26;}.cls-31{fill:#ff0504;}.cls-32{fill:url(#linear-gradient);}.cls-33{fill:#8e1127;}.cls-34{fill:#db0042;}.cls-35{fill:#c6a792;}.cls-36{fill:#e73449;}.cls-37{fill:#e0d1c8;}.cls-38{fill:url(#linear-gradient-2);}.cls-39{fill:#e6003e;}.cls-40{fill:url(#linear-gradient-3);}.cls-41{fill:#d52b43;}.cls-42{fill:url(#_ÂÁ_Ï_ÌÌ_È_ËÂÌÚ_30);}.cls-43{fill:#c3c3c3;}.cls-44{fill:url(#linear-gradient-4);}.cls-45{fill:url(#_ÂÁ_Ï_ÌÌ_È_ËÂÌÚ_29);}.cls-46{fill:url(#linear-gradient-5);}.cls-47{fill:url(#_ÂÁ_Ï_ÌÌ_È_ËÂÌÚ_30-2);}.cls-48{fill:url(#linear-gradient-6);}.cls-49{fill:url(#_ÂÁ_Ï_ÌÌ_È_ËÂÌÚ_29-2);}.cls-50{fill:url(#linear-gradient-7);}</style><linearGradient id="Gradient_bez_nazwy_17" x1="180.22" y1="139.81" x2="236.53" y2="570.58" gradientUnits="userSpaceOnUse"><stop offset="0" stop-color="aqua"/><stop offset="0.37" stop-color="#0071bc"/><stop offset="0.76" stop-color="#9e005d"/><stop offset="1" stop-color="#ed1e79"/></linearGradient><linearGradient id="未命名漸層_32" x1="476.88" y1="495.5" x2="-77.21" y2="-13.51" gradientUnits="userSpaceOnUse"><stop offset="0" stop-color="aqua"/><stop offset="0.37" stop-color="#0071bc"/><stop offset="0.76" stop-color="#003d60"/><stop offset="1" stop-color="#ed1e79"/></linearGradient><linearGradient id="未命名漸層_22" x1="222.59" y1="378.69" x2="176.14" y2="238.92" gradientUnits="userSpaceOnUse"><stop offset="0" stop-color="#29abe2"/><stop offset="1" stop-color="#a5dbf7"/></linearGradient><linearGradient id="Gradient_bez_nazwy_10" x1="143.47" y1="564.36" x2="149.8" y2="370.56" gradientUnits="userSpaceOnUse"><stop offset="0" stop-color="#f7631e"/><stop offset="1" stop-color="#febc66"/></linearGradient><linearGradient id="未命名漸層_59" x1="105.08" y1="220.68" x2="24.8" y2="211.9" gradientUnits="userSpaceOnUse"><stop offset="0" stop-color="#cceafb"/><stop offset="0.69" stop-color="#f29c45"/><stop offset="1" stop-color="#df4f0f"/></linearGradient><linearGradient id="Gradient_bez_nazwy_114" x1="394.06" y1="203.93" x2="527.12" y2="-8.97" gradientUnits="userSpaceOnUse"><stop offset="0" stop-color="aqua"/><stop offset="0.69" stop-color="#9e005d"/><stop offset="1" stop-color="#ed1e79"/></linearGradient><linearGradient id="Gradient_bez_nazwy_114-2" x1="-18.43" y1="442.98" x2="224.96" y2="192.83" xlink:href="#Gradient_bez_nazwy_114"/><linearGradient id="未命名漸層_63" x1="319.81" y1="1938.48" x2="337.64" y2="1938.48" gradientTransform="translate(1098.46 -1470.64) rotate(30.3)" gradientUnits="userSpaceOnUse"><stop offset="0" stop-color="#ffc800"/><stop offset="1" stop-color="#e6003e"/></linearGradient><linearGradient id="未命名漸層_69" x1="319.34" y1="1915.71" x2="337.78" y2="1915.71" gradientTransform="translate(1098.46 -1470.64) rotate(30.3)" gradientUnits="userSpaceOnUse"><stop offset="0" stop-color="#ffc800"/><stop offset="1" stop-color="#e6003a"/><stop offset="1" stop-color="#ff00d1"/></linearGradient><linearGradient id="linear-gradient" x1="302.46" y1="1867.23" x2="316.47" y2="1867.23" gradientTransform="translate(1098.46 -1470.64) rotate(30.3)" gradientUnits="userSpaceOnUse"><stop offset="0" stop-color="#ffc800"/><stop offset="1" stop-color="#ff00d1"/></linearGradient><linearGradient id="linear-gradient-2" x1="301.22" y1="1885.55" x2="316.46" y2="1885.55" xlink:href="#linear-gradient"/><linearGradient id="linear-gradient-3" x1="337.42" y1="1885.53" x2="352.62" y2="1885.53" xlink:href="#linear-gradient"/><linearGradient id="_ÂÁ_Ï_ÌÌ_È_ËÂÌÚ_30" x1="1428.55" y1="3730.67" x2="1443.52" y2="3730.67" gradientTransform="matrix(0.87, -0.5, -0.5, -0.87, 1060.82, 4239.09)" gradientUnits="userSpaceOnUse"><stop offset="0.01" stop-color="#bebebe"/><stop offset="0.08" stop-color="#868686"/><stop offset="0.15" stop-color="#868686"/><stop offset="0.45" stop-color="#adadad"/><stop offset="0.47" stop-color="#b0b0b0"/><stop offset="0.67" stop-color="#dedede"/><stop offset="0.74" stop-color="#e8e8e8"/><stop offset="0.82" stop-color="#efefef"/><stop offset="0.97" stop-color="#e1e1e1"/><stop offset="1" stop-color="#dedede"/></linearGradient><linearGradient id="linear-gradient-4" x1="333.51" y1="1841" x2="341.35" y2="1841" xlink:href="#linear-gradient"/><linearGradient id="_ÂÁ_Ï_ÌÌ_È_ËÂÌÚ_29" x1="1430.49" y1="3727.13" x2="1439.16" y2="3727.13" gradientTransform="matrix(0.87, -0.5, -0.5, -0.87, 1060.82, 4239.09)" gradientUnits="userSpaceOnUse"><stop offset="0" stop-color="#dedede"/><stop offset="0.03" stop-color="#e1e1e1"/><stop offset="0.18" stop-color="#efefef"/><stop offset="0.26" stop-color="#e8e8e8"/><stop offset="0.33" stop-color="#dedede"/><stop offset="0.7" stop-color="#b0b0b0"/><stop offset="0.71" stop-color="#adadad"/><stop offset="0.85" stop-color="#868686"/><stop offset="0.92" stop-color="#868686"/></linearGradient><linearGradient id="linear-gradient-5" x1="334.08" y1="1840.87" x2="341.05" y2="1840.87" gradientTransform="translate(1098.46 -1470.64) rotate(30.3)" gradientUnits="userSpaceOnUse"><stop offset="0" stop-color="#b08a00"/><stop offset="1" stop-color="#b00090"/></linearGradient><linearGradient id="_ÂÁ_Ï_ÌÌ_È_ËÂÌÚ_30-2" x1="1326.88" y1="3787.12" x2="1341.84" y2="3787.12" gradientTransform="matrix(0.76, -0.48, -0.56, -0.86, 1576.42, 4148.57)" xlink:href="#_ÂÁ_Ï_ÌÌ_È_ËÂÌÚ_30"/><linearGradient id="linear-gradient-6" x1="333.72" y1="1816.06" x2="341.17" y2="1816.06" xlink:href="#linear-gradient"/><linearGradient id="_ÂÁ_Ï_ÌÌ_È_ËÂÌÚ_29-2" x1="1328.81" y1="3783.57" x2="1337.48" y2="3783.57" gradientTransform="matrix(0.76, -0.48, -0.56, -0.86, 1576.42, 4148.57)" xlink:href="#_ÂÁ_Ï_ÌÌ_È_ËÂÌÚ_29"/><linearGradient id="linear-gradient-7" x1="334.52" y1="1815.95" x2="340.87" y2="1815.95" xlink:href="#linear-gradient-5"/></defs><title>新網頁使用元件</title><g class="cls-1"><g id="圖層_1" data-name="圖層 1"><ellipse class="cls-2" cx="139.46" cy="571.77" rx="65.36" ry="8.23"/><path class="cls-3" d="M337.69,185.14,179.77,126.6A9.22,9.22,0,0,0,168,132L61.29,418.86a9.16,9.16,0,0,0,5.42,11.79L224.63,489.2a9.19,9.19,0,0,0,11.81-5.41L343.1,197A9.2,9.2,0,0,0,337.69,185.14Z"/><path class="cls-4" d="M162.77,102.47c-11,4.57-53.27,22.17-76.88,67.7-5,9.68-28.62,55.21-11.23,95.43,23,53.23,93.22,40.31,125.44,90.39,27.7,43.07-29.69,85.44-5,136.76,12.9,26.8,42.6,49.16,70.09,51.22C351,550.4,505.11,365.83,442.44,221.07,396.83,115.69,251.19,65.67,162.77,102.47Z"/><path class="cls-5" d="M243,332.12q-6,0-12.09-.34C169.59,328.41,119.52,301.17,97,258.9c-35.93-67.42-.65-161.4,53.43-191,27.38-15,51.07-14.59,66.13-11.6,25.83,5.12,44.87,17,53.61,33.38,9.38,17.57,4.33,34-1,51.45-4.77,15.56-9.72,31.65-3.82,49,5.24,15.5,18.94,20.32,33.45,25.44,14.77,5.2,30,10.58,38.2,27.5,8.63,17.87,7.58,42.39-2.43,57C321.09,319.79,285.16,332.12,243,332.12ZM199.51,55.87c-13.45,0-30.12,3-48.47,13.1h0C97.45,98.34,62.5,191.48,98.12,258.31c22.31,41.87,72,68.86,132.89,72.21,46.82,2.57,88-9.94,102.49-31.13,9.77-14.29,10.77-38.26,2.33-55.76-7.93-16.45-23-21.74-37.48-26.86-14.81-5.22-28.79-10.14-34.24-26.23-6-17.78-1-34.07,3.82-49.82,5.27-17.16,10.25-33.37,1.12-50.49-8.56-16.06-27.29-27.69-52.73-32.73A86.26,86.26,0,0,0,199.51,55.87ZM150.74,68.42h0Z"/><polygon class="cls-6" points="299.43 170.95 281.97 182.66 129.23 285.03 105.02 301.27 138.31 211.69 162.54 195.48 217.37 158.72 234.83 147.01 299.43 170.95"/><polygon class="cls-6" points="334.22 183.85 316.73 195.55 111.29 333.24 111.29 333.27 87.08 349.48 98.81 317.94 98.81 317.91 123.04 301.7 123.04 301.68 293.97 187.12 311.46 175.41 334.22 183.85"/><rect class="cls-7" x="237.92" y="369.69" width="113.08" height="63.74" transform="translate(-59.42 51.24) rotate(-9.04)"/><polygon class="cls-8" points="294.46 401.56 345.27 361.21 233.6 378.97 294.46 401.56"/><path class="cls-9" d="M199.64,230c5-4.34,9.35-25.6-1.81-20.26s-2.65,20.41-2.65,20.41Z"/><path class="cls-10" d="M202.67,276.12a20.79,20.79,0,0,0,19.7-4.58c2.38-2.37-3.91-5.82-6-8.74-.89-1.24-1.08-3.11-.81-5.43a61.86,61.86,0,0,1,2.93-11.43l-20.2-6.23s-.62,10.45-1.1,14.32a6.15,6.15,0,0,1-.48,1.78c-1.06,2.32-3.66,3-8,5.72C183.46,264.81,192.57,273.47,202.67,276.12Z"/><path class="cls-11" d="M197.22,254a4.87,4.87,0,0,1-.13.72c2,2.43,4.47,4.37,6.61,4.63,3.33.42,7.64-.72,12.14-3.71a78.81,78.81,0,0,1,2.68-9.73l-20.2-6.24S197.71,250.16,197.22,254Z"/><path class="cls-10" d="M225.84,233.57c-2.27,9.89-3.55,14.66-8.45,18.21s-9.65,4.94-13.26,4.49c-4.52-.57-10.32-8.52-10.95-12.91a78.1,78.1,0,0,1,1.93-26.84c1.43-5.47,9.16-11.36,16.25-10.47S231.36,209.4,225.84,233.57Z"/><path class="cls-10" d="M191.21,231c.36,3.75,2.24,6.65,4.21,6.46s3.28-3.38,2.93-7.14-2.24-6.65-4.22-6.46S190.85,227.27,191.21,231Z"/><path class="cls-12" d="M286,328l-46.6,12.14-12.41-35.1s-9.68,58.84-11.56,65.63c-1.82,6.6-3.55,7-6.47,6.5L162,369c-3.22-.57-4.89-4.4-3.27-10.41,1.32-4.88,11.54-44.68,13.38-63a193.16,193.16,0,0,1-15,27.87l-44.19-16.82,4.88-13.52,30.8,8.45s10.42-21.42,22-34.08c3.46-3.81,13.34-8.71,19.3-9.69a32.71,32.71,0,0,1,4.53-.55c.2,5.52,5.22,9.37,9.33,10.09s12.4-.63,13.55-4.89a22.81,22.81,0,0,1,4.74,2.49c5.92,3.93,9.68,5.24,12.29,10.4,4.21,8.32,17.08,45.42,17.08,45.42l35.07-7.84Z"/><path class="cls-13" d="M181.1,553.27c.92,2.09,5.69,7.13,12.57,10.73s21.29,6.75,12.71,8.8-14.3,1.78-27.28-2.54c-5.45-1.57-4.93-1.83-10.78-1.59s-10.14,1.79-7.38-9.49S178.13,546.52,181.1,553.27Z"/><path class="cls-13" d="M80.57,506c-.46,2.24-6.36,7.36-12.32,12.32S55.32,525.85,60,528.39c8.18,4.4,12.2.56,24-6.4,5-2.68,4.75-1.68,10.2-3.82,3.73-1.46,6.88-3.42,5.21-10.83C96.87,496,82,498.74,80.57,506Z"/><path class="cls-14" d="M215,374.71S208.44,420,204,447.14c-.51,3.07-1,5.88-1.4,8.31-.61,3.55-1.11,6.31-1.5,8-.66,3-1.87,8.72-3.34,15.81-.54,2.58-1.1,5.32-1.7,8.21-4.85,23.66-11.14,55.38-11.45,59.46a66.39,66.39,0,0,0,0,9.27.79.79,0,0,1-1.14.76L177,554a.87.87,0,0,0-.61-.05c-2.08.79-14.11,5.25-15.86,7.3-1.93,2.25.76-5.57,1.42-14,.51-6.26,8-44,12.89-67.67l1.67-8.21c1-4.81,1.73-8.44,2.08-10.13A116.64,116.64,0,0,0,179.77,447c.13-2.74.23-5.68.33-8.72.48-15.9.56-34.37.58-37.89a.8.8,0,0,0-.6-.76l-10.51-2.79a.66.66,0,0,0-.53.05c-2.69,1.32-26.82,13.12-38.39,23.05-2.84,2.41-4.92,4.72-5.74,6.74a6.4,6.4,0,0,0-.27.81c-2.31,9.3-4.55,16.82-6.47,22.25-.69,2-1.35,3.69-2,5.09-.31.68-.69,1.57-1.09,2.61-4.27,10.28-13.76,35.64-15.43,40.56-1.07,3.06,0,5.24,0,7.5,0,3.64-5.89,5.29-9,3.82-2.28-1.09-6.88-4.18-9.56-3.65a.81.81,0,0,1-1-.93c1.73-7.17,8.07-33.29,13.8-55.16.74-2.76,1.45-5.47,2.16-8.05,2.94-10.87,5.53-19.71,7-22.95a35.2,35.2,0,0,1,5-7c13.9-16.42,48.58-47.16,48.58-47.16s1.25-3.77,3.33-3.46c4.55.67,4.9,1.46,27.91,6.06C212.69,372,215.68,369.43,215,374.71Z"/><path class="cls-9" d="M224.18,216.6c-13.73-1.6-23.36-3.68-28-10s-.38-7,3.09-4.84c0,0,2.29-5.82,7.61-2.16A8.8,8.8,0,0,1,219,202.24s9.41-2.81,10.23,4.52C229.2,206.76,236.28,218,224.18,216.6Z"/><path class="cls-9" d="M230.5,213.58c3.76,5.43,2.72,27.12-6.77,19.19S225,214,225,214Z"/><path class="cls-10" d="M222.89,232.85c-1.85,3.29-2,6.74-.23,7.71s4.62-.91,6.48-4.2,2-6.74.23-7.71S224.74,229.56,222.89,232.85Z"/><path class="cls-9" d="M214.73,374.31,157.25,364a.65.65,0,0,1-.5-.85l2-5.73a.67.67,0,0,1,.73-.43l56.56,9.89a.65.65,0,0,1,.53.75l-1.1,6.2A.66.66,0,0,1,214.73,374.31Z"/><path class="cls-15" d="M222,264.94c-4.36,5.24-10.86,8.05-17.5,6.88-7.19-1.26-12.65-6.84-14.65-14a32.71,32.71,0,0,1,4.53-.55c.2,5.52,5.22,9.37,9.33,10.09s12.4-.63,13.55-4.89A22.81,22.81,0,0,1,222,264.94Z"/><path class="cls-9" d="M233.9,213.55a3,3,0,0,0-1.34-4.06l-2.73,5.4A3,3,0,0,0,233.9,213.55Z"/><path class="cls-9" d="M201.35,214.05a9.54,9.54,0,0,0,6.17-12l-18.2,5.85A9.56,9.56,0,0,0,201.35,214.05Z"/><path class="cls-9" d="M209,216a6.34,6.34,0,0,0,.52-9l-9.51,8.45A6.36,6.36,0,0,0,209,216Z"/><path class="cls-9" d="M233.34,217.38a3,3,0,0,0,2.4-3.55l-6,1.15A3,3,0,0,0,233.34,217.38Z"/><path class="cls-16" d="M337.69,185.14l-3.47-1.29-22.76-8.44-12-4.46L234.83,147l-55.06-20.42A9.24,9.24,0,0,0,168,132l-29.64,79.65L105,301.27l-6.21,16.64v0L87.08,349.48l-25.8,69.36a9.4,9.4,0,0,0-.53,2.61,9.1,9.1,0,0,0,6,9.2L96,441.52l22.13,8.21,58.35,21.63,21.27,7.88,26.84,10a9.21,9.21,0,0,0,11.82-5.4L341.14,202.19l2-5.22A9.19,9.19,0,0,0,337.69,185.14Zm-15,17.89-2.23,6L230.26,451.57a5,5,0,0,1-6.42,2.92L204,447.14l-23.93-8.87-49.45-18.34L108,411.55l-18-6.69a4.92,4.92,0,0,1-3.23-4.46,4.58,4.58,0,0,1,.28-1.92l24.26-65.21v0L123,301.7v0L129.23,285l33.31-89.55L179.47,150a5,5,0,0,1,6.39-2.91l31.51,11.68L282,182.66l12,4.46,22.76,8.43,3,1.12A4.91,4.91,0,0,1,322.67,203Z"/><g class="cls-17"><path class="cls-2" d="M174.85,479.57l21.24,7.88c.6-2.89,1.16-5.63,1.7-8.21l-21.27-7.88Z"/><path class="cls-2" d="M93.88,449.57l21.22,7.86c.4-1,.78-1.93,1.09-2.61.63-1.4,1.29-3.12,2-5.09L96,441.52C95.33,444.1,94.62,446.81,93.88,449.57Z"/></g><path class="cls-18" d="M141.2,448.12h0a8.63,8.63,0,0,1-5.1-11.1h0a8.65,8.65,0,0,1,11.12-5.09h0a8.63,8.63,0,0,1,5.1,11.1h0A8.65,8.65,0,0,1,141.2,448.12Z"/><path class="cls-10" d="M105.69,299.46a13.94,13.94,0,0,0,7.5-1.11c1.7-.89,3.33-6.08,3.87-9.8s-4.28-3.25-4.28-3.25a23.51,23.51,0,0,1,4.93-1.16c3.06-.42,4.26-3.9-.16-3.84s-8.73,2.16-12.82,10.53c0,0-4.21,7.79,0,11.16Z"/><path class="cls-10" d="M306.69,306.33c0-2.95-5.09-7.68-6.5-5.78s-5.29,8.72-4.62,12.05a18.05,18.05,0,0,0,2.36,5.85l-1,2.61S306.59,319.11,306.69,306.33Z"/><rect class="cls-19" x="300.68" y="66.83" width="75.49" height="75.38" rx="1.83" transform="translate(14.79 -39.41) rotate(6.81)"/><rect class="cls-20" x="307.73" y="73.78" width="61.39" height="61.48" rx="1.11" transform="translate(482.48 -219.07) rotate(96.83)"/><path class="cls-21" d="M339.87,109.51l-6.76,5.3a2.86,2.86,0,0,1-4-.48h0a2.86,2.86,0,0,0-4-.48l-10,7.85a2.86,2.86,0,0,0,1.43,5.08l1.17.14,23.55,2.81,13.24,1.59a2.86,2.86,0,0,0,2.59-4.61L343.89,110A2.86,2.86,0,0,0,339.87,109.51Z"/><path class="cls-21" d="M327.74,98.17a5,5,0,1,1-4.4-5.59A5,5,0,0,1,327.74,98.17Z"/><path class="cls-22" d="M70.11,176.74,14,194.5a8.71,8.71,0,0,0-5.69,10.94l11.58,36.5a8.74,8.74,0,0,0,11,5.68l5.48-1.74s10.24,7.1,13.81,9.21a5.24,5.24,0,0,0,7.31-2.31c1.7-3.78,6-15.47,6-15.47L87,229.86a8.71,8.71,0,0,0,5.68-10.94l-11.57-36.5A8.74,8.74,0,0,0,70.11,176.74Z"/><path class="cls-23" d="M70.27,195.68,24.75,210.07A2.82,2.82,0,1,1,23,204.7l45.52-14.39a2.82,2.82,0,1,1,1.71,5.37Z"/><path class="cls-23" d="M74.34,208.5,28.81,222.9a2.82,2.82,0,0,1-1.7-5.38l45.52-14.39a2.82,2.82,0,1,1,1.71,5.37Z"/><path class="cls-23" d="M53.41,229.23l-20.53,6.49a2.82,2.82,0,1,1-1.7-5.37l20.52-6.49a2.82,2.82,0,0,1,1.71,5.37Z"/><path class="cls-24" d="M333.83,220.12,327,231.22l-3.83-16.08a6.07,6.07,0,0,0-7.31-4.48L271.53,221.2a6,6,0,0,0-4.49,7.29l10.56,44.25a6.06,6.06,0,0,0,7.3,4.49l44.32-10.54a6.05,6.05,0,0,0,4.49-7.3l-3.83-16.07L341,250.15a3.62,3.62,0,0,0,5.41-3.92l-6-25.06A3.62,3.62,0,0,0,333.83,220.12Z"/><polyline class="cls-23" points="292.48 232.02 308.67 241.97 298.71 258.14"/><path class="cls-25" d="M38.82,80.15,25.75,52.82a6,6,0,0,0-11.09.59L.36,93.78a6,6,0,0,0,8.26,7.42L36,88.15A6,6,0,0,0,38.82,80.15Z"/><path class="cls-23" d="M30.4,75.67l-3.16-5,.2-.56A1.32,1.32,0,1,0,25,69.23L20.53,81.74a8.87,8.87,0,0,0-3.35-2.06c-3.38-1.2-6.74-.39-7.52,1.8s1.33,4.94,4.71,6.13,6.65.4,7.48-1.73l0-.06L25,77.08,26.82,80a1.56,1.56,0,0,0,2.79-.32L30.56,77A1.54,1.54,0,0,0,30.4,75.67Z"/><path class="cls-7" d="M145.82,15a21.48,21.48,0,1,1-27-14A21.44,21.44,0,0,1,145.82,15Z"/><path class="cls-23" d="M133.7,11.13a7.66,7.66,0,0,0-10.65,3.09,7.65,7.65,0,0,0-10.49,3.6,7.78,7.78,0,0,0,3.62,10.08l10.75,5.56a3,3,0,0,0,4-1.28l5.57-10.73A7.78,7.78,0,0,0,133.7,11.13Z"/><path class="cls-7" d="M451.94,511a18.13,18.13,0,1,1-3.62-25.36A18.17,18.17,0,0,1,451.94,511Z"/><path class="cls-23" d="M448.64,500.74a6.46,6.46,0,0,0-7.35-5.79,6.47,6.47,0,0,0-7.63-5.43A6.58,6.58,0,0,0,428.5,497l1.44,10.11a2.53,2.53,0,0,0,2.87,2.14l10.12-1.43A6.58,6.58,0,0,0,448.64,500.74Z"/><ellipse class="cls-26" cx="418.61" cy="164.65" rx="22.32" ry="22.29"/><path class="cls-23" d="M426.74,153.12a2.46,2.46,0,0,0-3.45-.29,39.21,39.21,0,0,1-6.64,5.34l-2.12-.86a.34.34,0,0,0-.45.18l-4.55,11.14a.35.35,0,0,0,.19.45l1.59.65a6,6,0,0,0,3.72,4.89l.93.38,6.12,2.48,1.37.56a2.44,2.44,0,0,0,3.18-1.33,2.5,2.5,0,0,0,0-1.9l1,.4a2.43,2.43,0,0,0,3-3.44,2.43,2.43,0,0,0,1-4.68h0a2.43,2.43,0,0,0,0-4.51l-8.61-3.5C425.15,157.35,428.28,154.86,426.74,153.12Z"/><path class="cls-23" d="M403.78,167.39l3.91,1.59a.33.33,0,0,0,.41-.18l5.07-12.43A.31.31,0,0,0,413,156l-3.91-1.59a.32.32,0,0,0-.42.17L403.6,167A.33.33,0,0,0,403.78,167.39Z"/><ellipse class="cls-27" cx="61.4" cy="360.93" rx="30.33" ry="30.28"/><path class="cls-23" d="M59.93,341.82a3.34,3.34,0,0,0-3.85,2.68,53.74,53.74,0,0,1-2.35,11.33l-3,.92a.47.47,0,0,0-.3.59l4.87,15.59a.47.47,0,0,0,.59.31l2.22-.69a8.19,8.19,0,0,0,8.13,1.91l1.31-.4,8.56-2.68,1.92-.59a3.3,3.3,0,0,0,.51-6.11l1.38-.43a3.31,3.31,0,0,0,2.17-4.14,3.27,3.27,0,0,0-2-2.08,3.3,3.3,0,0,0-3-5.79h0a3.27,3.27,0,0,0,.27-2.57,3.32,3.32,0,0,0-4.15-2.17l-12.06,3.76C61.93,347.63,63.06,342.32,59.93,341.82Z"/><rect class="cls-23" x="44.81" y="357.08" width="6.6" height="19.09" rx="0.43" transform="matrix(0.95, -0.3, 0.3, 0.95, -106.97, 30.95)"/><path class="cls-28" d="M424.94,351.21c-.78,1.09-2.3,4.76-12.92,18.17-5.78,7.29-24.31,27.46-24.31,27.46s8.4-32.11,19.72-51S424.94,351.21,424.94,351.21Z"/><path class="cls-29" d="M423.14,325.36a50.61,50.61,0,0,0-15.71,20.5,73.68,73.68,0,0,0-5,25.75s12-5.51,22.5-20.4c6.75-9.52,8.3-21.93,8.3-21.93Z"/><path class="cls-30" d="M426.33,330.63h0c2.94,1.72,6.12,2.08,8.19,1.15,6.38-16.11,5.75-25,5.75-25s-6.7,2.77-18.92,17.66C421.72,326.62,423.55,329,426.33,330.63Z"/><path class="cls-31" d="M463.84,293.06s6.61,8,4.17,14-25.85,31.68-25.85,31.68,9.76-22,8.31-22.87a9.42,9.42,0,0,0-3.07-1.11l13-22.21Z"/><path class="cls-32" d="M439.59,277.81S429.4,276,425.3,281.06s-14.95,38-14.95,38,14.4-19.28,15.87-18.45a9.38,9.38,0,0,1,2.49,2.12l13-22.2Z"/><path class="cls-33" d="M438,278s-10.19-1.85-14.3,3.25-14.95,38-14.95,38,14.4-19.28,15.88-18.45a9.24,9.24,0,0,1,2.48,2.12l13-22.2Z"/><path class="cls-34" d="M465.72,296s6.62,7.95,4.18,14-25.85,31.68-25.85,31.68,9.75-22,8.3-22.86a9.3,9.3,0,0,0-3.07-1.12l13-22.21Z"/><path class="cls-23" d="M446.56,324.1a7,7,0,0,1-4.67,3.13,14.32,14.32,0,0,1-2.16.27c-.41,0-.85,0-1.28,0a19.67,19.67,0,0,1-8.75-2.78c-.33-.19-.65-.39-1-.6-.15-.11-.32-.21-.47-.31a20.12,20.12,0,0,1-4.37-4.06c-2.66-3.39-3.56-7.2-1.93-10,.27-.77,25.23-47.49,33.08-58.4C483.86,211.28,500,204.63,500,204.63v0c0,.67,1.26,22.91-18.68,62C475.16,278.63,447.09,323.49,446.56,324.1Z"/><path class="cls-35" d="M442.57,325.31l-4.12,2.16a19.56,19.56,0,0,1-8.75-2.77c-.5-.29-1-.6-1.43-.91.86-1.28,1.65-2.43,2.23-3.22,2.32-3.15,6.84-6.08,11-8.62S452.85,303,452.85,303Z"/><path class="cls-36" d="M476.31,245.07h0c5,2.91,10.38,3.54,13.89,2C501,219.68,500,204.64,500,204.64s-11.38,4.69-32.11,30C468.49,238.26,471.6,242.32,476.31,245.07Z"/><path class="cls-37" d="M446.56,324.09a7,7,0,0,1-4.66,3.13c5.14-8,13-21.2,25-42.74,29.1-52.26,32.95-79,33.06-79.83,0,.68,1.26,22.93-18.68,62C475.17,278.63,447.09,323.49,446.56,324.09Z"/><path class="cls-38" d="M430.18,291.44s-15.86,7.83-20.53,13.9S399,338.55,399,338.55s15.38-23.42,17.84-24.27a22.71,22.71,0,0,1,4.36-1.08l13.58-20.75-.59-1.45Z"/><path class="cls-39" d="M430.76,292.89s-15.85,7.83-20.52,13.9S399,338.55,399,338.55s16-22,18.43-22.82a22.71,22.71,0,0,1,4.36-1.08l13-22.2Z"/><path class="cls-40" d="M456,306.49s.95,17.64-2.05,24.68-23.74,25.59-23.74,25.59,12.89-24.86,12.42-27.43a23.06,23.06,0,0,0-1.19-4.32l11.43-22,1.56-.2Z"/><path class="cls-41" d="M452.37,331.37c3-7,2.05-24.68,2.05-24.68L452.85,303l-13,22.2a23.06,23.06,0,0,1,1.19,4.32c.47,2.57-10.86,27.23-10.86,27.23S449.37,338.41,452.37,331.37Z"/><path class="cls-42" d="M466.9,284.48a3.78,3.78,0,0,0-3.3-1.41,11.67,11.67,0,0,0-9.17,5.24A3.73,3.73,0,0,0,454,292c0,.06.47.77.47.77a5.53,5.53,0,0,1,.62-.15,3.37,3.37,0,0,1,.29-3.57,10.74,10.74,0,0,1,8.42-4.81c1.82,0,3,.77,3.33,1.94.4-.2.62-.27.32-.8l-.06-.11C467.17,284.89,466.93,284.53,466.9,284.48Z"/><path class="cls-43" d="M467.47,285.42l-.06-.11a3.77,3.77,0,0,0-3.34-1.47,11.73,11.73,0,0,0-9.17,5.25,3.77,3.77,0,0,0-.41,3.72,3.66,3.66,0,0,0,3.41,1.58,11.69,11.69,0,0,0,9.17-5.24,3.76,3.76,0,0,0,.41-3.72ZM466,286.77a3.07,3.07,0,0,1-.47,2.37,8.72,8.72,0,0,1-6.83,3.91,2.84,2.84,0,0,1-2.47-1.05,2.73,2.73,0,0,1,.23-2.9,8.69,8.69,0,0,1,6.84-3.91C464.76,285.2,465.72,285.82,466,286.77Z"/><path class="cls-44" d="M466,286.77a3.07,3.07,0,0,1-.47,2.37,8.72,8.72,0,0,1-6.83,3.91,2.84,2.84,0,0,1-2.47-1.05,2.73,2.73,0,0,1,.23-2.9,8.69,8.69,0,0,1,6.84-3.91C464.76,285.2,465.72,285.82,466,286.77Z"/><path class="cls-45" d="M457.93,291.72a8.66,8.66,0,0,0,6.83-3.91,3.33,3.33,0,0,0,.53-2.05c.92.7,1.06,1.95.23,3.38a8.72,8.72,0,0,1-6.83,3.91c-1.64,0-2.64-.77-2.77-1.9A3.27,3.27,0,0,0,457.93,291.72Z"/><path class="cls-46" d="M464.76,287.81a3.33,3.33,0,0,0,.53-2.05h0a2.14,2.14,0,0,1,.43.85,3,3,0,0,1-.45,2.35,8.45,8.45,0,0,1-6.62,3.79,2.74,2.74,0,0,1-2.4-1.05,1.57,1.57,0,0,1-.31-.45.3.3,0,0,1,0-.1h0a3.27,3.27,0,0,0,2,.57A8.66,8.66,0,0,0,464.76,287.81Z"/><path class="cls-47" d="M478.61,263.12a4,4,0,0,0-3.25-1.43,9.3,9.3,0,0,0-8,5,3.78,3.78,0,0,0,0,3.65c0,.07.53.77.53.77a3.44,3.44,0,0,1,.56-.14,3.42,3.42,0,0,1-.12-3.5,8.54,8.54,0,0,1,7.35-4.63,3.35,3.35,0,0,1,3.33,1.95c.36-.2.55-.26.22-.79l-.07-.11C478.9,263.52,478.64,263.16,478.61,263.12Z"/><path class="cls-43" d="M479.25,264l-.07-.11a3.93,3.93,0,0,0-3.29-1.47,9.3,9.3,0,0,0-8,5,3.78,3.78,0,0,0,0,3.65,3.9,3.9,0,0,0,3.36,1.59,9.34,9.34,0,0,0,8-5,3.8,3.8,0,0,0,0-3.65ZM478,265.35a3,3,0,0,1-.18,2.32,7,7,0,0,1-6,3.76,2.93,2.93,0,0,1-2.42-1.07,2.75,2.75,0,0,1-.1-2.84,6.94,6.94,0,0,1,6-3.75A2.7,2.7,0,0,1,478,265.35Z"/><path class="cls-48" d="M478,265.35a3,3,0,0,1-.18,2.32,7,7,0,0,1-6,3.76,2.93,2.93,0,0,1-2.42-1.07,2.75,2.75,0,0,1-.1-2.84,6.94,6.94,0,0,1,6-3.75A2.7,2.7,0,0,1,478,265.35Z"/><path class="cls-49" d="M471,270.12a7,7,0,0,0,6-3.76,3.13,3.13,0,0,0,.27-2,2.58,2.58,0,0,1,.58,3.32,7,7,0,0,1-6,3.76,2.64,2.64,0,0,1-2.8-1.9A3.34,3.34,0,0,0,471,270.12Z"/><path class="cls-50" d="M477,266.36a3.13,3.13,0,0,0,.27-2h0a2.38,2.38,0,0,1,.49.84,2.89,2.89,0,0,1-.15,2.3,6.75,6.75,0,0,1-5.79,3.64,2.86,2.86,0,0,1-2.36-1.05,2.36,2.36,0,0,1-.34-.44l0-.11h0a3.34,3.34,0,0,0,1.94.59A7,7,0,0,0,477,266.36Z"/><path class="cls-23" d="M322.31,448.43c.55-.36,1-.12.91.53l-.34,4.79a2.56,2.56,0,0,0,.85,1.92l3.76,3c.51.41.41.87-.23,1l-4.66,1.16a2.54,2.54,0,0,0-1.57,1.4l-1.69,4.49c-.23.61-.7.66-1,.11l-2.55-4.08a2.54,2.54,0,0,0-1.81-1.06l-4.81-.21c-.65,0-.84-.46-.42-1l3.1-3.68a2.54,2.54,0,0,0,.44-2.05L311,450.18c-.17-.63.18-.94.79-.7l4.46,1.8a2.48,2.48,0,0,0,2.09-.21Z"/><path class="cls-23" d="M369.27,190c.25.13.25.33,0,.46l-1.89.93a1.17,1.17,0,0,0-.54.74l-.3,2.08c0,.28-.24.34-.44.14l-1.47-1.51a1.16,1.16,0,0,0-.87-.29l-2.08.36c-.28,0-.4-.12-.27-.37l1-1.86a1.13,1.13,0,0,0,0-.92l-1-1.87c-.13-.25,0-.41.27-.36l2.08.36a1.12,1.12,0,0,0,.87-.29l1.48-1.5c.19-.2.39-.14.43.14l.3,2.08a1.1,1.1,0,0,0,.54.75Z"/><path class="cls-23" d="M356.23,321.15c.32.16.32.42,0,.57l-2.36,1.17a1.36,1.36,0,0,0-.68.93l-.38,2.6c-.06.35-.3.43-.55.18l-1.84-1.89a1.39,1.39,0,0,0-1.1-.36l-2.6.44c-.35.06-.5-.15-.34-.46l1.24-2.33a1.44,1.44,0,0,0,0-1.15l-1.22-2.34c-.17-.32,0-.53.33-.46l2.6.45a1.38,1.38,0,0,0,1.1-.36l1.85-1.88c.25-.25.49-.17.54.18l.38,2.61a1.39,1.39,0,0,0,.67.93Z"/><path class="cls-23" d="M263.94,119.31c.64.31.63.82,0,1.13l-4.66,2.3a2.73,2.73,0,0,0-1.33,1.82l-.76,5.12c-.1.7-.58.86-1.07.35l-3.62-3.71a2.79,2.79,0,0,0-2.15-.72l-5.12.89c-.69.1-1-.3-.66-.92L247,121a2.67,2.67,0,0,0,0-2.26l-2.4-4.6c-.32-.62,0-1,.66-.9l5.12.89a2.78,2.78,0,0,0,2.15-.7l3.64-3.7c.49-.51,1-.36,1.07.35l.73,5.12a2.8,2.8,0,0,0,1.33,1.84Z"/><path class="cls-23" d="M408.09,249.18c.39.19.38.5,0,.69l-2.83,1.39a1.64,1.64,0,0,0-.81,1.11l-.47,3.12c-.06.42-.35.52-.65.21l-2.2-2.26a1.7,1.7,0,0,0-1.31-.43l-3.12.53c-.42.07-.6-.18-.4-.55l1.48-2.79a1.7,1.7,0,0,0,0-1.38l-1.47-2.8c-.19-.37,0-.62.41-.55l3.11.54a1.66,1.66,0,0,0,1.31-.43l2.21-2.25c.3-.31.6-.21.65.21l.45,3.13a1.7,1.7,0,0,0,.81,1.11Z"/></g></g></svg>