<svg id="圖層_1" data-name="圖層 1" xmlns="http://www.w3.org/2000/svg" viewBox="0 0 64.67 60"><defs><style>.cls-1{fill:#fff;}</style></defs><title>新網頁使用元件</title><path class="cls-1" d="M64.59,50,54.8,27a1,1,0,0,0-.86-.61A38.41,38.41,0,0,0,43.59,27.6c2.27-3.93,4-8.26,4-12.36a15.26,15.26,0,0,0-30.52,0c0,4.1,1.74,8.43,4,12.36a38.43,38.43,0,0,0-10.37-1.22,1,1,0,0,0-.84.61L.08,50a.91.91,0,0,0,.15,1,.89.89,0,0,0,.93.35c.19,0,19.45-3.26,30.48,8.32h0a1,1,0,0,0,.26.2s0,0,.06,0a.78.78,0,0,0,.37.09.87.87,0,0,0,.4-.09l0,0a.73.73,0,0,0,.26-.2h0c11-11.55,30.29-8.35,30.48-8.32a.9.9,0,0,0,.93-.35A.94.94,0,0,0,64.59,50ZM32.33,2A13.32,13.32,0,0,1,45.64,15.24c0,9.42-10.5,20.79-13.31,23.67C29.54,36,19,24.66,19,15.24A13.3,13.3,0,0,1,32.33,2Zm0,41.76c-4.68,0-8.17-1.8-8.17-3.43,0-1.07,1.6-2.24,4.09-2.88,1.84,2.09,3.24,3.43,3.42,3.61a1,1,0,0,0,.66.26A1,1,0,0,0,33,41c.17-.18,1.57-1.54,3.41-3.64,2.49.67,4.09,1.84,4.09,2.91C40.52,41.91,37,43.71,32.33,43.71ZM7.72,49c-2.16,0-3.95.14-5.17.26l8.89-20.88a36.14,36.14,0,0,1,11.24,1.83,69.5,69.5,0,0,0,4.16,5.59c-2.82.92-4.64,2.58-4.64,4.53,0,2.91,3.87,5.12,9.16,5.35V56.74C24,50.23,14.2,49,7.72,49Zm25.6,7.76V45.63c5.28-.23,9.16-2.44,9.16-5.35,0-2-1.81-3.61-4.63-4.53,1.32-1.63,2.77-3.53,4.15-5.59a36.09,36.09,0,0,1,11.09-1.83h.16l8.87,20.88C57.22,48.66,43.17,48.05,33.32,56.71Z"/><path class="cls-1" d="M39.84,15.39a7.5,7.5,0,1,0-7.51,7.5A7.51,7.51,0,0,0,39.84,15.39Zm-13,0a5.54,5.54,0,1,1,5.52,5.52A5.53,5.53,0,0,1,26.81,15.39Z"/></svg>