<svg id="圖層_1" data-name="圖層 1" xmlns="http://www.w3.org/2000/svg" viewBox="0 0 260 265"><defs><style>.cls-1{fill:#fff;}</style></defs><title>新網頁使用元件</title><path class="cls-1" d="M69.77,196.5A16.29,16.29,0,0,1,67.54,200a13.19,13.19,0,0,0-1.7-1.27,9.86,9.86,0,0,0,1.88-2.86Zm7.67-5.61H65.86v-1.84h4.65a5,5,0,0,0-.29-.61l1.62-.33h-5v-5.88h9.92v5.88h-4a6.37,6.37,0,0,1,.48.94h4.3Zm-4.59,4.91v2.69c0,1-.15,1.49-.85,1.8a6.89,6.89,0,0,1-2.6.3,7.46,7.46,0,0,0-.68-1.94c.62,0,1.26,0,1.46,0s.27-.06.27-.25V195.8H67.12v-4.21h9.3v4.21Zm-3.72-11.34h5.15v-.75H69.13Zm0,2.17h5.15v-.77H69.13Zm.27,7.6H74v-1.07H69.4ZM84.86,194a17.38,17.38,0,0,1-6.7,6.51,9.07,9.07,0,0,0-1.63-1.86l.18.45-1.81.86a21.55,21.55,0,0,0-1.7-3.34l1.74-.71c.51.79,1.15,1.88,1.55,2.68a13.69,13.69,0,0,0,6.09-5.43ZM84,182.81a19.53,19.53,0,0,1-5.44,4.95,9.64,9.64,0,0,0-1.73-1.7,14.54,14.54,0,0,0,4.85-4.19Zm.45,5.52a21.28,21.28,0,0,1-5.86,5.24,8.55,8.55,0,0,0-1.7-1.7,16,16,0,0,0,5.31-4.48Z"/><path class="cls-1" d="M106.21,187.84V190H87.67v-2.17H92.2a11.75,11.75,0,0,0-.83-2.13l2-.39H88.83v-2.14h7a8.68,8.68,0,0,0-.64-1.48l2.56-.41a8.93,8.93,0,0,1,.87,1.89h6.66v2.14H101l1.9.41c-.35.76-.7,1.48-1,2.11Zm-16,3.42h13.62v9.4h-2.58V200H92.69v.72H90.23Zm2.46,2v1.35h8.58v-1.35Zm8.58,4.66v-1.47H92.69V198Zm-7.44-12.63a8.21,8.21,0,0,1,1,2.52h4.26a22.36,22.36,0,0,0,.93-2.52Z"/><path class="cls-1" d="M128.1,197.85V200H109.21v-2.19h2.68V186.16h4.84c.06-.34.12-.67.17-1h-7.18V183h7.44c0-.53.09-1,.11-1.51l2.75.26-.23,1.25h7.77v2.15h-8.18c-.07.37-.15.7-.23,1h6.3v11.69Zm-13.83-9.68v1.08H123v-1.08ZM123,191h-8.68v1H123Zm-8.68,3.88H123v-1.08h-8.68Zm0,2.93H123V196.7h-8.68Z"/><path class="cls-1" d="M148.72,192.94v7.61h-2.25v-.69h-6.36v.8H138v-7.43l-.21.08c-.19-.29-.45-.66-.74-1-.58.23-1.16.43-1.76.66v5.12c0,1.12-.21,1.74-.83,2.12a5.3,5.3,0,0,1-2.85.46,8.92,8.92,0,0,0-.62-2.26,17,17,0,0,0,1.7,0c.24,0,.35-.08.35-.34v-4.34l-2.09.69-.43-2.33,2.52-.76v-3.68h-2.17v-2.25H133v-3.85h2.25v3.85h1.86v2.25h-1.86v3l1.51-.5.21,1.19a9.92,9.92,0,0,0,3.47-2.46h-3.19v-1.94h2.13c-.2-.61-.55-1.47-.84-2.15l1.48-.45c-.74,0-1.46.06-2.17.08a7.6,7.6,0,0,0-.53-1.74,76.55,76.55,0,0,0,10.33-1l1.28,1.76c-1.32.24-2.91.45-4.55.61v2.91h.71a29.9,29.9,0,0,0,1.28-3.11l2.11.55c-.46.9-.87,1.8-1.28,2.56h2.43v1.94H146.2a32.8,32.8,0,0,1,3.81,2.77Zm-6.55-3.09a12.24,12.24,0,0,1-2.33,2.27h2.33Zm0-5.69c-.55,0-1.09.08-1.65.1.35.7.72,1.6.93,2.15l-1.45.47h2.17Zm-2.06,9.8v1.15h2.1V194Zm0,4.2h2.1v-1.31h-2.1Zm6.36-4.2h-2.23v1.15h2.23Zm0,4.2v-1.31h-2.23v1.31Zm1-6a36.5,36.5,0,0,0-3.1-2.27v2.27Z"/><path class="cls-1" d="M171.44,193.88h-8.12v6.76h-2.56v-6.76h-8V191.4h8v-6.2h-7v-2.41h16.45v2.41h-6.92v6.2h8.12Zm-14.14-8A18.44,18.44,0,0,1,159,190l-2.4.74a20.56,20.56,0,0,0-1.51-4.26Zm7.67,4.25a23.75,23.75,0,0,0,1.8-4.31l2.62.65a39.86,39.86,0,0,1-2.27,4.28Z"/><path class="cls-1" d="M187.36,183.4a37.09,37.09,0,0,1,5.43,6l-2.09,1.49a16.4,16.4,0,0,0-1.07-1.55c-11,.53-12.44.57-13.54.94a18.1,18.1,0,0,0-.8-2.34,4.27,4.27,0,0,0,1.71-1.18,27.38,27.38,0,0,0,4.38-5.57l2.48,1a33.15,33.15,0,0,1-4.5,5.22l8.47-.26c-.8-.9-1.63-1.76-2.4-2.52Zm-10.59,8.23H190.7v9h-2.64v-1H179.3v1h-2.53ZM179.3,194v3.28h8.76V194Z"/><path class="cls-1" d="M252.31,104.42h-2V78.75a22.52,22.52,0,0,0-11.59-19.64L141.31,4.83a23,23,0,0,0-22.31,0L21.57,59.11A22.51,22.51,0,0,0,10,78.75v22.93H8V78.75A24.49,24.49,0,0,1,20.6,57.4L118,3.12a25.08,25.08,0,0,1,24.23,0L239.71,57.4a24.49,24.49,0,0,1,12.6,21.35Z"/><path class="cls-1" d="M130.16,265A24.92,24.92,0,0,1,118,261.88L20.6,207.6A24.48,24.48,0,0,1,8,186.26V160.77h2v25.49a22.5,22.5,0,0,0,11.6,19.63L119,260.17a23,23,0,0,0,22.31,0l97.44-54.28a22.52,22.52,0,0,0,11.59-19.63V160.77h2v25.49a24.48,24.48,0,0,1-12.6,21.34l-97.44,54.28A24.88,24.88,0,0,1,130.16,265Z"/><ellipse class="cls-1" cx="8.78" cy="104.07" rx="8.78" ry="8.7"/><ellipse class="cls-1" cx="8.78" cy="160.62" rx="8.78" ry="8.7"/><ellipse class="cls-1" cx="251.22" cy="104.07" rx="8.78" ry="8.7"/><ellipse class="cls-1" cx="251.22" cy="160.62" rx="8.78" ry="8.7"/><path class="cls-1" d="M175.3,58.65H86.67A1.37,1.37,0,0,0,85.29,60v70.35a1.37,1.37,0,0,0,1.38,1.36h34.1v7.15h-5.13a4.43,4.43,0,1,0,0,8.85h30.69a4.43,4.43,0,1,0,0-8.85H141.2v-7.15h34.1a1.37,1.37,0,0,0,1.38-1.36V60A1.37,1.37,0,0,0,175.3,58.65Zm-27.24,84.64a1.71,1.71,0,0,1-1.73,1.7H115.64a1.7,1.7,0,1,1,0-3.4h30.69A1.71,1.71,0,0,1,148.06,143.29Zm-9.63-4.42H123.54v-7.15h14.89ZM173.91,129H88.06V121.6h85.85Zm0-10.65H88.06V61.85h85.85Z"/><path class="cls-1" d="M123,61.31a1.66,1.66,0,0,1-1.06-.39L111.37,52a1.62,1.62,0,0,1-.19-2.29,1.65,1.65,0,0,1,2.31-.18l10.57,8.9a1.61,1.61,0,0,1,.19,2.28A1.68,1.68,0,0,1,123,61.31Z"/><path class="cls-1" d="M139.76,61.31a1.65,1.65,0,0,1-1.24-.57,1.61,1.61,0,0,1,.18-2.28l10.57-8.9a1.65,1.65,0,0,1,2.31.18,1.62,1.62,0,0,1-.19,2.29l-10.57,8.89A1.64,1.64,0,0,1,139.76,61.31Z"/><path class="cls-1" d="M112.16,81.06V67.91h2.7V78.83h6.73v2.23Z"/><path class="cls-1" d="M123.89,81.06V67.81h2.71V81.06Z"/><path class="cls-1" d="M133.05,81.06l-4.78-13.25h2.93l3.39,9.81,3.28-9.81h2.87l-4.8,13.25Z"/><path class="cls-1" d="M142.58,81.06V67.81h9.93v2.24h-7.23V73H152v2.23h-6.72v3.61h7.48v2.23Z"/><path class="cls-1" d="M131.34,114.39a13.64,13.64,0,1,1,13.76-13.63A13.72,13.72,0,0,1,131.34,114.39Zm0-25.59a12,12,0,1,0,12.07,12A12,12,0,0,0,131.34,88.8Z"/><path class="cls-1" d="M128.11,108.82a1.3,1.3,0,0,1-.58-.14,1.27,1.27,0,0,1-.69-1.12V94.76a1.24,1.24,0,0,1,.66-1.1,1.27,1.27,0,0,1,1.29,0l9.47,6a1.24,1.24,0,0,1,.59,1,1.25,1.25,0,0,1-.52,1.06l-9.48,6.83A1.33,1.33,0,0,1,128.11,108.82Zm1.27-11.77v8l6-4.29Z"/></svg>