<?xml version="1.0" encoding="utf-8"?>
<!-- Generator: Adobe Illustrator 23.0.3, SVG Export Plug-In . SVG Version: 6.00 Build 0)  -->
<svg version="1.1" id="圖層_1" xmlns="http://www.w3.org/2000/svg" xmlns:xlink="http://www.w3.org/1999/xlink" x="0px" y="0px"
	 viewBox="0 0 178.1 47.7" style="enable-background:new 0 0 178.1 47.7;" xml:space="preserve">
<style type="text/css">
	.st0{fill:#FFFFFF;}
</style>
<title>新網頁使用元件</title>
<path class="st0" d="M1.4,22.2L1.4,22.2c0.3,0,0.5-0.2,0.6-0.4C3.2,11.4,11.4,3.2,21.8,2c0.3,0,0.5-0.3,0.4-0.5c0,0,0,0,0,0
	C22.2,1.2,22,1,21.7,1c0,0,0,0,0,0C10.8,2.3,2.3,10.8,1,21.7C1,22,1.2,22.2,1.4,22.2C1.4,22.2,1.4,22.2,1.4,22.2z"/>
<path class="st0" d="M47.2,26.3c-0.2,0-0.5,0.1-0.5,0.4c0,0,0,0.1,0,0.1C45.2,39.1,34.1,48,21.8,46.6c-2.2-0.3-4.4-0.8-6.5-1.7
	c-0.2-0.1-0.5,0-0.6,0.2c0,0,0,0,0,0c-0.1,0.3,0,0.5,0.3,0.7c11.9,5.2,25.7-0.2,30.9-12.1c1-2.2,1.6-4.5,1.8-6.8
	C47.6,26.6,47.4,26.4,47.2,26.3z"/>
<path class="st0" d="M20.8,24.3c0-0.3-0.2-0.5-0.5-0.5H3.9c-0.3,0-0.5,0.2-0.5,0.5c0,0.3,0.2,0.5,0.5,0.5c0,0,0,0,0,0h16.4
	C20.5,24.8,20.8,24.6,20.8,24.3z"/>
<path class="st0" d="M35.3,16.3c1.5,2.2,2.3,4.8,2.2,7.5h-9.2c-0.3,0-0.5,0.2-0.5,0.5s0.2,0.5,0.5,0.5h9.1c-0.2,2.2-0.9,4.4-2.2,6.2
	c-0.2,0.2-0.2,0.5,0,0.7c0.2,0.2,0.5,0.2,0.7,0c0,0,0-0.1,0.1-0.1c1.4-2,2.2-4.3,2.3-6.7h6.2c0.3,0,0.5-0.2,0.5-0.5
	c0-0.3-0.2-0.5-0.5-0.5h-6.2c0-2.8-0.8-5.6-2.4-8c-0.2-0.2-0.5-0.2-0.7,0C35.3,15.9,35.2,16.2,35.3,16.3L35.3,16.3z"/>
<path class="st0" d="M23.1,10.2c0,0.3,0.2,0.5,0.5,0.5c0,0,0,0,0,0c2.9-0.2,5.8,0.6,8.2,2.2c0.1,0.1,0.2,0.1,0.3,0.1
	c0.2,0,0.3-0.1,0.4-0.2c0.2-0.2,0.1-0.5-0.1-0.7c-2.6-1.8-5.7-2.6-8.9-2.4C23.3,9.7,23.1,9.9,23.1,10.2z"/>
<path class="st0" d="M16.8,32c0.1,0,0.3-0.1,0.4-0.1l4.5-4.5c0.2-0.2,0.2-0.5,0-0.7s-0.5-0.2-0.7,0l-4.5,4.5c-0.2,0.2-0.2,0.5,0,0.7
	c0,0,0,0,0,0C16.5,31.9,16.6,32,16.8,32z"/>
<path class="st0" d="M32,15.5l-5.4,5.4c-0.2,0.2-0.2,0.5,0,0.7c0.2,0.2,0.5,0.2,0.7,0l5.4-5.4c0.2-0.2,0.2-0.5,0-0.7
	C32.5,15.3,32.2,15.3,32,15.5C32,15.5,32,15.5,32,15.5z"/>
<path class="st0" d="M35.1,15.1c0.5-0.5,0.5-1.4,0-1.9c-0.5-0.5-1.4-0.5-1.9,0c-0.5,0.5-0.5,1.4,0,1.9
	C33.7,15.6,34.5,15.6,35.1,15.1z"/>
<path class="st0" d="M20.7,9.3c-0.7,0.2-1.1,0.9-1,1.6c0,0,0,0,0,0.1c0.2,0.7,0.9,1.1,1.6,0.9c0.7-0.2,1.1-0.9,0.9-1.6
	C22.2,9.6,21.5,9.1,20.7,9.3C20.7,9.3,20.7,9.3,20.7,9.3z"/>
<path class="st0" d="M14.1,32.3c-0.5,0.5-0.5,1.4,0,1.9s1.4,0.5,1.9,0c0.5-0.5,0.5-1.4,0-1.9C15.4,31.7,14.6,31.7,14.1,32.3
	C14.1,32.3,14.1,32.3,14.1,32.3z"/>
<path class="st0" d="M34.5,31.9c-0.7-0.2-1.5,0.2-1.6,0.9s0.2,1.5,0.9,1.6s1.5-0.2,1.6-0.9S35.2,32.1,34.5,31.9z"/>
<path class="st0" d="M24.3,2.7c0.7,0,1.4-0.5,1.4-1.3c0-0.7-0.5-1.4-1.3-1.4C23.7,0,23,0.6,23,1.3c0,0,0,0,0,0
	C23,2.1,23.6,2.7,24.3,2.7z"/>
<circle class="st0" cx="24.3" cy="24.3" r="2.6"/>
<circle class="st0" cx="1.3" cy="24.3" r="1.3"/>
<path class="st0" d="M47.2,23c-0.7,0-1.3,0.6-1.3,1.3s0.6,1.3,1.3,1.3s1.3-0.6,1.3-1.3S48,23,47.2,23L47.2,23z"/>
<path class="st0" d="M13.5,43c-0.6-0.4-1.5-0.2-1.8,0.5c-0.4,0.6-0.1,1.5,0.5,1.8c0.6,0.4,1.5,0.1,1.8-0.5
	C14.3,44.2,14.1,43.4,13.5,43z"/>
<path class="st0" d="M65.6,40.8l1-1.1c0.9,1,2.2,1.6,3.6,1.6c1.7,0,2.7-0.8,2.7-2.1s-0.9-1.7-2.2-2.3l-1.9-0.8
	c-1.2-0.5-2.6-1.4-2.6-3.3s1.7-3.4,4.1-3.4c1.4,0,2.8,0.6,3.8,1.7l-0.9,1c-0.8-0.8-1.8-1.2-2.9-1.2c-1.5,0-2.4,0.7-2.4,1.9
	s1.2,1.7,2.2,2.1l1.9,0.8c1.5,0.7,2.7,1.5,2.7,3.5s-1.7,3.7-4.4,3.7C68.4,42.8,66.8,42.1,65.6,40.8z"/>
<path class="st0" d="M78.7,37.8c0-3.2,2.1-5,4.4-5s4.4,1.8,4.4,5s-2.1,5-4.4,5S78.7,40.9,78.7,37.8z M85.9,37.8
	c0-2.2-1.1-3.7-2.8-3.7s-2.8,1.5-2.8,3.7s1.1,3.7,2.8,3.7S85.9,40,85.9,37.8z"/>
<path class="st0" d="M92.6,40.6V28.5h1.6v12.3c0,0.5,0.2,0.7,0.5,0.7c0.1,0,0.2,0,0.3,0l0.2,1.2c-0.3,0.1-0.6,0.2-0.9,0.1
	C93.1,42.8,92.6,42,92.6,40.6z"/>
<path class="st0" d="M99.5,40c0-2.1,1.8-3.1,5.9-3.6c0-1.2-0.4-2.4-2-2.4c-1,0-2,0.4-2.9,1L99.9,34c1.1-0.8,2.4-1.2,3.8-1.3
	c2.3,0,3.3,1.6,3.3,3.9v5.9h-1.3l-0.1-1.1l0,0c-0.9,0.8-2,1.3-3.2,1.4c-1.4,0.1-2.7-0.9-2.9-2.3C99.5,40.3,99.5,40.2,99.5,40z
	 M105.4,40.2v-2.7c-3.2,0.4-4.3,1.2-4.3,2.4c0,1.1,0.8,1.5,1.7,1.5C103.8,41.4,104.7,41,105.4,40.2z"/>
<path class="st0" d="M112.5,33h1.3l0.2,1.7l0,0c0.5-1.1,1.5-1.9,2.7-2c0.3,0,0.7,0.1,1,0.2l-0.3,1.4c-0.3-0.1-0.6-0.2-0.9-0.2
	c-0.8,0-1.8,0.6-2.4,2.2v6.2h-1.6L112.5,33z"/>
<path class="st0" d="M131.1,31h-3.9v-1.4h9.5V31h-3.9v11.5h-1.6V31z"/>
<path class="st0" d="M139.3,37.8c0-3.1,2.1-5,4.3-5c2.4,0,3.8,1.8,3.8,4.5c0,0.3,0,0.6-0.1,0.9h-6.5c0.1,2,1.4,3.3,3.2,3.3
	c0.9,0,1.7-0.3,2.4-0.8l0.6,1.1c-0.9,0.6-2,1-3.2,1C141.4,42.8,139.3,40.9,139.3,37.8z M146,37c0-1.9-0.9-3-2.4-3s-2.6,1.1-2.8,3
	H146z"/>
<path class="st0" d="M151.6,37.8c0-3.2,2.2-5,4.6-5c1,0,2,0.4,2.8,1.1l-0.8,1.1c-0.5-0.5-1.2-0.8-1.9-0.8c-1.8,0-3,1.5-3,3.7
	s1.2,3.7,3,3.7c0.9,0,1.7-0.4,2.3-1l0.7,1.1c-0.9,0.8-2,1.2-3.1,1.2C153.5,42.8,151.6,40.9,151.6,37.8z"/>
<path class="st0" d="M163.8,28.5h1.6v3.9l-0.1,2c0.8-0.9,1.9-1.5,3.2-1.6c2,0,2.9,1.3,2.9,3.8v6.1h-1.6v-5.9c0-1.8-0.6-2.6-1.8-2.6
	c-1,0-1.7,0.5-2.6,1.5v7h-1.6L163.8,28.5z"/>
<path class="st0" d="M61,11.6c0.6-1.4,0.9-3,0.9-4.5l0.9,0.1c0,1.6-0.3,3.3-0.9,4.8L61,11.6z M63.5,3.7h1.2v16.1h-1.3L63.5,3.7z
	 M66,10.3c-0.2-1.2-0.6-2.3-1.1-3.4l0.8-0.3c0.5,1.1,0.9,2.2,1.1,3.3L66,10.3z M77.3,18v1.2H65.8V18h7.3c0.4-2.3,0.9-5.7,1.2-8.5
	h-4.4l-0.1,0.9c1.3,0.5,2.6,1.2,3.7,2.1l-0.7,0.9c-1-0.8-2.1-1.4-3.3-2c-0.1,0.7-0.3,1.3-0.4,1.9c1.3,0.6,2.6,1.4,3.8,2.3l-0.7,0.9
	c-1-0.8-2.1-1.5-3.2-2.2c-0.2,0.7-0.3,1.4-0.5,1.9l-1.3-0.1c0.7-2.5,1.5-6.9,2-10.1h-2.8V4.8h10.6V6h-6.5c-0.1,0.7-0.3,1.5-0.4,2.4
	h5.6c-0.3,3.1-0.9,7.1-1.3,9.7L77.3,18z"/>
<path class="st0" d="M97.1,18.2v1.2H81.8v-1.2h7v-1.9h-4.9v-1.1h4.9v-1.7h-4.3c-0.5,0.7-1.2,1.4-1.8,2c-0.3-0.3-0.7-0.6-1.1-0.8
	c1.4-1.1,2.5-2.4,3.2-4L86,11c-0.2,0.5-0.5,1-0.8,1.4h3.5V11h1.3v1.4H96v1.1h-5.9v1.7h5.1v1.1h-5.1v1.9L97.1,18.2z M95.3,10.6H83.6
	V4.4h11.7L95.3,10.6z M93.9,5.4h-9.1V7h9.1V5.4z M93.9,8h-9.1v1.6h9.1V8z"/>
<path class="st0" d="M103.3,15.1c-0.2,1.4-0.5,2.9-0.9,4.3c-0.3-0.1-0.7-0.3-1-0.4c0.4-1.3,0.7-2.7,0.8-4.1L103.3,15.1z M106.8,10.4
	c0.5,1.1,0.9,2.2,1.2,3.4l-1,0.4c0-0.3-0.1-0.6-0.2-0.9c-3.9,0.6-4.5,0.7-4.8,0.9c-0.1-0.4-0.2-0.8-0.4-1.1c0.4-0.1,0.7-0.5,1.3-1.2
	c0.5-0.7,1-1.4,1.4-2.1c-0.8,0-1.6,0.2-2.4,0.4c-0.1-0.2-0.3-0.8-0.4-1.1c0.3-0.1,0.6-0.4,0.9-1c0.9-1.4,1.7-2.9,2.3-4.4l1.1,0.5
	c-0.7,1.7-1.6,3.2-2.7,4.7l1.8-0.1c0.5-0.8,0.9-1.6,1.3-2.4l1,0.6c-1.1,2.1-2.4,4-3.9,5.9l3.1-0.4c-0.2-0.6-0.4-1.1-0.6-1.6
	L106.8,10.4z M105,14.9c0.2,1.2,0.4,2.5,0.5,3.7l-1,0.2c-0.1-1.3-0.2-2.5-0.4-3.8L105,14.9z M106.8,14.4c0.4,1.1,0.7,2.2,1,3.4
	l-0.9,0.3c-0.3-1.2-0.6-2.3-1-3.4L106.8,14.4z M117.2,18.3c0,0.7-0.1,1-0.6,1.3c-0.7,0.2-1.5,0.3-2.2,0.2c0-0.4-0.2-0.8-0.3-1.2
	c0.7,0,1.4,0,1.7,0s0.3-0.1,0.3-0.3V5.7h-6.6v14.1h-1.1V4.5h9L117.2,18.3z M114.3,15.4c0.3,0,0.7,0,1-0.1c0,0.3,0.1,0.7,0.1,1
	c-0.4,0.1-0.8,0.1-1.1,0.1h-2.2c-1.2,0-1.4-0.4-1.4-1.6v-1.7H110V12h2.4c-0.2-0.5-0.4-1.1-0.7-1.6l0.8-0.3h-2.7v-1h3.4
	c0.3-0.9,0.6-1.9,0.8-2.9l1,0.3c-0.3,0.9-0.6,1.9-0.9,2.6h1.5v1h-3c0.3,0.5,0.6,1,0.8,1.6l-0.6,0.3h2.6v1h-3.6v1.7
	c0,0.5,0,0.6,0.4,0.6L114.3,15.4z M111.2,6.2c0.5,0.8,0.8,1.6,1,2.5L111.4,9c-0.2-0.9-0.5-1.7-0.9-2.5L111.2,6.2z"/>
<path class="st0" d="M136.5,5.8c-0.5,1.7-1.4,3.3-2.6,4.7c1.1,1.1,2.5,2,4,2.6c-0.3,0.3-0.6,0.7-0.8,1.1l-0.6-0.3v5.8h-1.3v-0.6
	h-4.4v0.6h-1.2v-5.9c-0.3,0.2-0.7,0.4-1.1,0.5c-0.2-0.3-0.4-0.6-0.6-0.9h-1.8v3.2l2.3-0.5l0.1,1.2l-6.8,1.6l-0.2-1.3l0.9-0.2v-6h1.1
	v5.8L125,17V9.8h-2.5V4.4h5.7v4.7c1.5-1.5,2.6-3.4,3.2-5.4l1.3,0.3c-0.2,0.5-0.4,1-0.6,1.5h3.4l0.2-0.1L136.5,5.8z M123.6,8.6h3.4
	V5.6h-3.3L123.6,8.6z M128.3,13.2c1.5-0.6,2.9-1.6,4-2.8c-0.6-0.8-1.1-1.6-1.6-2.4c-0.5,0.7-1,1.4-1.6,2c-0.3-0.3-0.6-0.5-0.9-0.8
	v0.5h-2v2.6h2.2L128.3,13.2z M135.8,13.4c-1-0.6-1.8-1.3-2.6-2.1c-0.8,0.8-1.7,1.5-2.6,2.1H135.8z M135.3,18v-3.4h-4.4V18H135.3z
	 M131.5,6.6L131.3,7c0.5,0.9,1.1,1.8,1.8,2.7c0.8-0.9,1.4-1.9,1.8-3L131.5,6.6z"/>
<path class="st0" d="M147.7,14.2c-0.3-0.6-1-1.7-1.6-2.6v8.2h-1.3V12c-0.6,1.6-1.5,3.2-2.6,4.6c-0.2-0.4-0.4-0.8-0.6-1.2
	c1.3-1.7,2.3-3.5,3-5.5h-2.8V8.6h3V5.9c-0.8,0.2-1.6,0.3-2.4,0.4c-0.1-0.3-0.2-0.7-0.4-1c1.9-0.3,3.8-0.7,5.6-1.4l0.8,1
	c-0.7,0.3-1.5,0.5-2.3,0.7v3h2.6v1.2h-2.6v0.3c0.6,0.6,2.1,2.6,2.4,3L147.7,14.2z M155.7,15.2v4.6h-1.3v-4.4l-5.8,1l-0.2-1.3l6-1
	V3.7h1.3v10.3l2.1-0.3l0.2,1.2L155.7,15.2z M152.3,12.8c-0.9-1-2-1.9-3.1-2.6l0.8-0.8c1.2,0.7,2.2,1.6,3.1,2.5L152.3,12.8z
	 M152.7,8.1c-0.8-1-1.8-1.8-2.8-2.5l0.8-0.8c1.1,0.7,2,1.5,2.9,2.4L152.7,8.1z"/>
<path class="st0" d="M167.7,12.6l-2.1,0.6v5c0,0.7-0.2,1.1-0.6,1.3c-0.8,0.2-1.6,0.3-2.4,0.2c-0.1-0.4-0.2-0.8-0.4-1.2
	c0.9,0,1.6,0,1.8,0s0.4-0.1,0.4-0.3v-4.6l-2.1,0.6l-0.4-1.3c0.7-0.2,1.6-0.4,2.5-0.6V8.4h-2.3V7.2h2.3V3.7h1.3v3.5h1.9v1.2h-1.9V12
	c0.6-0.2,1.3-0.4,1.9-0.6L167.7,12.6z M177.1,10.6c-0.7,2.2-1.9,4.2-3.6,5.8c1.3,1.1,2.9,1.9,4.6,2.3c-0.3,0.3-0.6,0.7-0.9,1.1
	c-1.7-0.5-3.3-1.4-4.7-2.6c-1.5,1.1-3.2,2-5,2.5c-0.2-0.4-0.4-0.8-0.7-1.2c1.7-0.4,3.3-1.2,4.8-2.3c-1.3-1.4-2.3-3-2.9-4.8h-0.5
	v-1.2h3.8V7.7h-4.1V6.4h4.1V3.7h1.3v2.8h4.2v1.2h-4.2v2.6h2.8l0.2-0.1L177.1,10.6z M170,11.5c0.6,1.5,1.5,2.9,2.6,4.1
	c1.2-1.1,2.2-2.5,2.8-4.1H170z"/>
</svg>
