<svg id="圖層_1" data-name="圖層 1" xmlns="http://www.w3.org/2000/svg" viewBox="0 0 60 60"><defs><style>.cls-1{fill:#fff;}</style></defs><title>新網頁使用元件</title><path class="cls-1" d="M60,59.38a1,1,0,0,0,0-.3h0V29.89a.68.68,0,0,0,0-.19v-.05a1.94,1.94,0,0,0-.13-.3,0,0,0,0,1,0,0s0,0,0,0l-.19-.16-.06-.06h0a.5.5,0,0,0-.26-.08.07.07,0,0,0-.06,0,1.14,1.14,0,0,0-.26,0h-.08c-.09.06-.2.08-.3.14L39.6,43.35l-9-6.79a.9.9,0,0,0-1.1,0l-9,6.79-18-13.46,7-5.26a.89.89,0,0,0,.18-1.27.92.92,0,0,0-1.27-.19l-8,6s0,0,0,0a1.09,1.09,0,0,0-.23.3s0,0,0,.05a1,1,0,0,0-.09.38V59.08H0a.79.79,0,0,0,.05.3l0,0c0,.05,0,.05,0,.11l.11.16s.05,0,.08.08a1.56,1.56,0,0,0,.19.13s.05,0,.08,0A.66.66,0,0,0,.9,60H59.1a.66.66,0,0,0,.32-.08s0,0,.08,0a1.56,1.56,0,0,0,.19-.13s.05,0,.08-.08l.12-.16a.76.76,0,0,0,0-.11S59.94,59.38,60,59.38ZM58.19,31.7V57.28L41.11,44.49ZM18.89,44.49,1.82,57.28V31.7ZM3.64,58.17,30,38.42,56.36,58.17Z"/><path class="cls-1" d="M16.23,27h3.25v5.5a.94.94,0,0,0,.5.81,1,1,0,0,0,.42.11,1,1,0,0,0,.53-.19L29.72,27H56.37A3.65,3.65,0,0,0,60,23.34V3.64A3.64,3.64,0,0,0,56.37,0H16.23a3.65,3.65,0,0,0-3.64,3.64v19.7A3.65,3.65,0,0,0,16.23,27ZM14.41,3.64a1.81,1.81,0,0,1,1.82-1.81H56.37a1.82,1.82,0,0,1,1.82,1.81v19.7a1.82,1.82,0,0,1-1.82,1.8H29.44a.9.9,0,0,0-.53.17L21.3,30.7V26.06a.91.91,0,0,0-.9-.92H16.23a1.81,1.81,0,0,1-1.82-1.8Z"/><path class="cls-1" d="M44.48,8h8.18a.92.92,0,0,0,.9-.92.91.91,0,0,0-.9-.92H44.48a.92.92,0,0,0-.92.92A.93.93,0,0,0,44.48,8Z"/><path class="cls-1" d="M19.93,8H39a.92.92,0,0,0,.9-.92A.91.91,0,0,0,39,6.2H19.93a.92.92,0,0,0-.91.92A.93.93,0,0,0,19.93,8Z"/><path class="cls-1" d="M52.66,12.57h-20a.91.91,0,0,0-.91.92.93.93,0,0,0,.91.92h20a.93.93,0,0,0,.9-.92A.91.91,0,0,0,52.66,12.57Z"/><path class="cls-1" d="M19.93,14.41H27.2a.94.94,0,0,0,.92-.92.92.92,0,0,0-.92-.92H19.93a.92.92,0,0,0-.91.92A.94.94,0,0,0,19.93,14.41Z"/><path class="cls-1" d="M19.93,20.77H45.39a.92.92,0,0,0,.9-.91.9.9,0,0,0-.9-.92H19.93a.91.91,0,0,0-.91.92A.93.93,0,0,0,19.93,20.77Z"/></svg>