<svg id="圖層_1" data-name="圖層 1" xmlns="http://www.w3.org/2000/svg" viewBox="0 0 178.11 47.74"><defs><style>.cls-1{fill:#fff;}</style></defs><title>新網頁使用元件</title><path class="cls-1" d="M1.43,22.24h.05A.51.51,0,0,0,2,21.8,22.57,22.57,0,0,1,21.8,2a.49.49,0,0,0,.44-.55A.48.48,0,0,0,21.69,1,23.59,23.59,0,0,0,1,21.69.49.49,0,0,0,1.43,22.24Z"/><path class="cls-1" d="M47.16,26.32a.46.46,0,0,0-.55.44,22.48,22.48,0,0,1-31.34,18.1.49.49,0,0,0-.65.25.5.5,0,0,0,.25.66A23.46,23.46,0,0,0,47.6,26.87.5.5,0,0,0,47.16,26.32Z"/><path class="cls-1" d="M20.75,24.29a.5.5,0,0,0-.5-.5H3.88a.5.5,0,0,0-.49.5.49.49,0,0,0,.49.5H20.25A.5.5,0,0,0,20.75,24.29Z"/><path class="cls-1" d="M35.32,16.33a13,13,0,0,1,2.22,7.46H28.33a.5.5,0,0,0-.5.5.5.5,0,0,0,.5.5h9.14A12.93,12.93,0,0,1,35.32,31a.5.5,0,1,0,.82.56,13.85,13.85,0,0,0,2.33-6.74H44.7a.5.5,0,0,0,.5-.5.51.51,0,0,0-.5-.5H38.54a14,14,0,0,0-2.4-8,.5.5,0,0,0-.82.56Z"/><path class="cls-1" d="M23.11,10.21a.49.49,0,0,0,.53.46,13.07,13.07,0,0,1,8.24,2.22.47.47,0,0,0,.28.09.5.5,0,0,0,.41-.22.5.5,0,0,0-.13-.69,14,14,0,0,0-8.87-2.39A.5.5,0,0,0,23.11,10.21Z"/><path class="cls-1" d="M16.75,32a.47.47,0,0,0,.35-.15l4.51-4.51a.49.49,0,0,0-.7-.7L16.4,31.1a.5.5,0,0,0,0,.71A.49.49,0,0,0,16.75,32Z"/><path class="cls-1" d="M32,15.5l-5.42,5.41a.51.51,0,0,0,0,.71.52.52,0,0,0,.71,0l5.41-5.42a.49.49,0,1,0-.7-.7Z"/><path class="cls-1" d="M35.06,15.05a1.34,1.34,0,1,0-1.9,0A1.35,1.35,0,0,0,35.06,15.05Z"/><path class="cls-1" d="M20.71,9.31A1.34,1.34,0,0,0,19.76,11a1.34,1.34,0,1,0,2.59-.7A1.34,1.34,0,0,0,20.71,9.31Z"/><path class="cls-1" d="M14.05,32.26a1.34,1.34,0,1,0,1.9,0A1.34,1.34,0,0,0,14.05,32.26Z"/><path class="cls-1" d="M34.46,31.91a1.34,1.34,0,1,0-.7,2.59,1.34,1.34,0,0,0,.7-2.59Z"/><path class="cls-1" d="M24.29,2.68A1.34,1.34,0,1,0,23,1.34,1.34,1.34,0,0,0,24.29,2.68Z"/><circle class="cls-1" cx="24.29" cy="24.29" r="2.65"/><circle class="cls-1" cx="1.34" cy="24.29" r="1.34"/><path class="cls-1" d="M47.24,23a1.34,1.34,0,1,0,1.34,1.34A1.34,1.34,0,0,0,47.24,23Z"/><path class="cls-1" d="M13.49,43a1.35,1.35,0,0,0-1.84.49A1.34,1.34,0,1,0,13.49,43Z"/><path class="cls-1" d="M65.58,40.85l1-1.11a5,5,0,0,0,3.56,1.6c1.7,0,2.72-.84,2.72-2.12s-.93-1.74-2.15-2.29l-1.87-.81c-1.2-.52-2.64-1.44-2.64-3.33s1.74-3.44,4.09-3.44A5.29,5.29,0,0,1,74.09,31l-.87,1a4.17,4.17,0,0,0-2.94-1.22c-1.47,0-2.43.74-2.43,1.91S69,34.42,70,34.84l1.86.8c1.5.65,2.66,1.54,2.66,3.46s-1.69,3.67-4.39,3.67A6.19,6.19,0,0,1,65.58,40.85Z"/><path class="cls-1" d="M78.67,37.76c0-3.2,2.1-5,4.45-5s4.45,1.85,4.45,5-2.1,5-4.45,5S78.67,40.94,78.67,37.76Zm7.24,0c0-2.21-1.13-3.71-2.79-3.71s-2.77,1.5-2.77,3.71,1.11,3.67,2.77,3.67S85.91,40,85.91,37.76Z"/><path class="cls-1" d="M92.57,40.64V28.49h1.61V40.74c0,.5.21.69.46.69a1.7,1.7,0,0,0,.34,0l.23,1.23a2.47,2.47,0,0,1-.94.14C93.07,42.77,92.57,42,92.57,40.64Z"/><path class="cls-1" d="M99.48,40.05c0-2.08,1.82-3.12,5.9-3.58,0-1.24-.4-2.42-2-2.42a5.31,5.31,0,0,0-2.88,1L99.89,34a7.24,7.24,0,0,1,3.78-1.25c2.33,0,3.32,1.57,3.32,3.94v5.89h-1.33l-.14-1.14h0a5.14,5.14,0,0,1-3.18,1.37A2.6,2.6,0,0,1,99.48,40.05Zm5.9.16V37.53c-3.23.39-4.33,1.18-4.33,2.42,0,1.09.75,1.53,1.7,1.53A3.89,3.89,0,0,0,105.38,40.21Z"/><path class="cls-1" d="M112.52,33h1.32L114,34.7H114a3.3,3.3,0,0,1,2.72-2,2,2,0,0,1,1,.21l-.3,1.41a2.27,2.27,0,0,0-.93-.16c-.8,0-1.79.57-2.42,2.21v6.16h-1.61Z"/><path class="cls-1" d="M131.13,31H127.2v-1.4h9.49V31h-3.92V42.54h-1.64Z"/><path class="cls-1" d="M139.31,37.76c0-3.11,2.1-5,4.32-5,2.44,0,3.82,1.76,3.82,4.5a7.21,7.21,0,0,1-.07.92h-6.47c.11,2,1.36,3.35,3.18,3.35a4.14,4.14,0,0,0,2.41-.76l.58,1.07a5.79,5.79,0,0,1-3.18,1C141.35,42.77,139.31,40.92,139.31,37.76ZM146,37c0-1.92-.88-3-2.38-3s-2.56,1.09-2.75,3Z"/><path class="cls-1" d="M151.57,37.76c0-3.2,2.17-5,4.62-5A4.1,4.1,0,0,1,159,33.84l-.83,1.06a2.8,2.8,0,0,0-1.9-.85c-1.75,0-3,1.5-3,3.71s1.21,3.67,3,3.67a3.35,3.35,0,0,0,2.26-1l.71,1.08a4.69,4.69,0,0,1-3.11,1.21C153.53,42.77,151.57,40.94,151.57,37.76Z"/><path class="cls-1" d="M163.76,28.49h1.61v3.85l-.06,2a4.52,4.52,0,0,1,3.18-1.6c2,0,2.93,1.3,2.93,3.76v6.07h-1.6V36.68c0-1.8-.55-2.56-1.82-2.56-1,0-1.66.49-2.63,1.47v6.95h-1.61Z"/><path class="cls-1" d="M61,11.58a10.88,10.88,0,0,0,.92-4.51l.9.11a11.55,11.55,0,0,1-.93,4.8Zm2.47-7.92H64.7V19.79H63.44Zm2.48,6.61a15.21,15.21,0,0,0-1.1-3.41l.81-.32A13.28,13.28,0,0,1,66.8,9.88ZM77.31,18v1.23H65.79V18h7.28c.41-2.28.88-5.69,1.17-8.5H69.87l-.14.85a18.92,18.92,0,0,1,3.73,2.06l-.65.92a20.09,20.09,0,0,0-3.29-2c-.14.66-.26,1.27-.39,1.89a21.93,21.93,0,0,1,3.75,2.3l-.73.9a21.16,21.16,0,0,0-3.23-2.17c-.16.72-.32,1.37-.46,1.94l-1.29-.12c.65-2.53,1.54-6.91,2-10.14H66.41V4.76H77.06V6H70.53c-.13.74-.27,1.53-.43,2.35h5.6c-.35,3.05-.86,7.11-1.29,9.68Z"/><path class="cls-1" d="M97.06,18.18v1.17H81.75V18.18h7V16.27H83.82V15.21h4.92V13.55H84.42a15.88,15.88,0,0,1-1.82,2,6.38,6.38,0,0,0-1.12-.83,11.08,11.08,0,0,0,3.24-4L86,11a15.37,15.37,0,0,1-.8,1.43h3.53V11h1.35v1.41H96v1.13H90.09v1.66h5.14v1.06H90.09v1.91Zm-1.8-7.56H83.57V4.39H95.26ZM93.94,5.45H84.86V7h9.08Zm0,2.54H84.86V9.56h9.08Z"/><path class="cls-1" d="M103.29,15.13a22.76,22.76,0,0,1-.88,4.25,6.09,6.09,0,0,0-1-.35,21.37,21.37,0,0,0,.83-4.06Zm3.49-4.75A28.44,28.44,0,0,1,108,13.75l-1,.39c0-.25-.14-.55-.21-.85-3.94.62-4.49.74-4.81.92a5.44,5.44,0,0,0-.37-1.15c.36-.07.74-.51,1.26-1.18a22.82,22.82,0,0,0,1.44-2.07,8.5,8.5,0,0,0-2.43.42c-.06-.24-.25-.83-.37-1.13.26-.07.58-.44.93-1a23.48,23.48,0,0,0,2.26-4.45l1.12.48a28.24,28.24,0,0,1-2.67,4.73L105,8.72a24.57,24.57,0,0,0,1.29-2.44l1,.62a34.47,34.47,0,0,1-3.89,5.86l3.06-.42c-.2-.57-.43-1.13-.62-1.65ZM105,14.9a33,33,0,0,1,.49,3.71l-1,.24a34.36,34.36,0,0,0-.44-3.78Zm1.83-.46a25.35,25.35,0,0,1,1,3.39l-.9.33a26.39,26.39,0,0,0-1-3.42Zm10.32,3.88c0,.73-.14,1.05-.6,1.26a5.87,5.87,0,0,1-2.23.23,4,4,0,0,0-.33-1.17c.74,0,1.44,0,1.66,0s.3-.09.3-.34V5.68h-6.61V19.82H108.2V4.51h9Zm-2.85-2.91a5.19,5.19,0,0,0,1-.09c0,.3.07.71.1,1a4.88,4.88,0,0,1-1.13.09H112.1c-1.16,0-1.43-.42-1.43-1.59V13.08H110V12h2.4a10.75,10.75,0,0,0-.69-1.56l.81-.32h-2.7v-1h3.36A20.41,20.41,0,0,0,114,6.21l1,.28c-.27.87-.6,1.87-.88,2.63h1.5v1h-3a15.2,15.2,0,0,1,.78,1.59l-.64.29h2.61v1h-3.63v1.73c0,.46,0,.6.42.6Zm-3.09-9.24a8.46,8.46,0,0,1,1,2.51l-.85.3a9.29,9.29,0,0,0-.92-2.53Z"/><path class="cls-1" d="M136.52,5.78a13.6,13.6,0,0,1-2.58,4.7,11.77,11.77,0,0,0,4,2.6,4.88,4.88,0,0,0-.82,1.08l-.56-.27v5.83h-1.26v-.58h-4.41v.63H129.7v-5.9a10.24,10.24,0,0,1-1.06.51,3.57,3.57,0,0,0-.64-.88h-1.85v3.16l2.31-.54.13,1.18-6.77,1.64-.24-1.27.9-.19v-6h1.11v5.8l1.36-.32V9.79h-2.47V4.41h5.7V9.09a12.93,12.93,0,0,0,3.2-5.43l1.25.3c-.18.52-.37,1-.56,1.51h3.4l.23-.06ZM123.64,8.65H127V5.55h-3.32Zm4.68,4.53a12.51,12.51,0,0,0,4-2.75A16.75,16.75,0,0,1,130.71,8a13.08,13.08,0,0,1-1.61,2,7.89,7.89,0,0,0-.92-.78v.53h-2v2.55h2.17Zm7.44.25a13.19,13.19,0,0,1-2.62-2.08,13.71,13.71,0,0,1-2.65,2.08ZM135.33,18V14.58h-4.41V18ZM131.52,6.61l-.18.34a14.76,14.76,0,0,0,1.75,2.65,11.4,11.4,0,0,0,1.82-3Z"/><path class="cls-1" d="M147.72,14.23c-.3-.59-1-1.73-1.64-2.64v8.18h-1.29V12a18.72,18.72,0,0,1-2.56,4.61,5.71,5.71,0,0,0-.65-1.19,18,18,0,0,0,3-5.54h-2.79V8.61h3V5.94c-.81.16-1.64.3-2.42.41a6.54,6.54,0,0,0-.39-1,26.58,26.58,0,0,0,5.62-1.41l.79,1a14.38,14.38,0,0,1-2.31.71V8.61h2.6V9.85h-2.6v.31c.55.62,2.07,2.56,2.44,3Zm8,.93v4.61h-1.28v-4.4l-5.76,1-.21-1.26,6-1V3.66h1.28V13.91l2.07-.32.2,1.2Zm-3.4-2.35a15.73,15.73,0,0,0-3.11-2.58l.81-.77A15.33,15.33,0,0,1,153.16,12Zm.38-4.66a13.81,13.81,0,0,0-2.8-2.51l.83-.76a13.27,13.27,0,0,1,2.88,2.42Z"/><path class="cls-1" d="M167.74,12.58l-2.12.64v5c0,.74-.19,1.09-.65,1.3a5.94,5.94,0,0,1-2.4.23,4.38,4.38,0,0,0-.41-1.2c.85,0,1.61,0,1.82,0s.35-.09.35-.33V13.61l-2.12.62-.37-1.29c.71-.16,1.56-.37,2.49-.64V8.45h-2.26V7.21h2.26V3.68h1.29V7.21h1.95V8.45h-1.95V12c.64-.18,1.31-.37,1.95-.57Zm9.4-2a13,13,0,0,1-3.59,5.81,11.93,11.93,0,0,0,4.56,2.27,6,6,0,0,0-.85,1.13,12.48,12.48,0,0,1-4.71-2.56,16.37,16.37,0,0,1-5,2.53,4.87,4.87,0,0,0-.71-1.18,14.33,14.33,0,0,0,4.79-2.25,14,14,0,0,1-2.9-4.84h-.53V10.29H172V7.66h-4.13V6.44H172V3.66h1.29V6.44h4.22V7.66h-4.22v2.63h2.81l.21-.06Zm-7.14.9a12.13,12.13,0,0,0,2.6,4.06,10.77,10.77,0,0,0,2.84-4.06Z"/></svg>