<?xml version="1.0" encoding="utf-8"?>
<!-- Generator: Adobe Illustrator 23.0.4, SVG Export Plug-In . SVG Version: 6.00 Build 0)  -->
<svg version="1.1" id="圖層_1" xmlns="http://www.w3.org/2000/svg" xmlns:xlink="http://www.w3.org/1999/xlink" x="0px" y="0px"
	 viewBox="0 0 30 30" style="enable-background:new 0 0 30 30;" xml:space="preserve">
<style type="text/css">
	.st0{fill:#FFFFFF;}
	.st1{fill:none;stroke:#FFFFFF;stroke-width:0.99;stroke-linecap:round;stroke-miterlimit:10;}
</style>
<title>新網頁使用元件</title>
<path class="st0" d="M29.2,3.8c0.9-0.7,1-1.9,0.4-2.8c-0.1-0.1-0.2-0.3-0.4-0.4c-1.1-0.9-2.7-0.9-3.8,0c-0.9,0.7-1,1.9-0.4,2.8
	c0.1,0.1,0.2,0.3,0.4,0.4C26.6,4.7,28.1,4.7,29.2,3.8z"/>
<path class="st0" d="M4.5,29.3c0.9-0.7,1-1.9,0.4-2.8c-0.1-0.1-0.2-0.3-0.4-0.4c-1.1-0.9-2.7-0.9-3.8,0c-0.9,0.7-1,1.9-0.4,2.8
	c0.1,0.1,0.2,0.3,0.4,0.4C1.9,30.2,3.4,30.2,4.5,29.3z"/>
<line class="st1" x1="23.6" y1="5.7" x2="6.4" y2="23.9"/>
</svg>
