<svg xmlns="http://www.w3.org/2000/svg" viewBox="0 0 550 240"><defs><style>.cls-1{isolation:isolate;}.cls-2{fill:#fb3;}.cls-3{fill:#fff99a;}.cls-4{fill:#fbb03b;opacity:0.5;mix-blend-mode:multiply;}.cls-5{fill:#f8aa00;}.cls-6{opacity:0.44;}.cls-7{fill:#0071bc;}.cls-8{fill:#fff;}</style></defs><title>新網頁使用元件</title><g class="cls-1"><g id="圖層_1" data-name="圖層 1"><ellipse class="cls-2" cx="35.32" cy="44.7" rx="23.41" ry="23.5"/><path class="cls-3" d="M52.81,19.45a7.58,7.58,0,0,1-4.23,3,7.66,7.66,0,0,1,.63-5.13,7.58,7.58,0,0,1,4.23-3A7.66,7.66,0,0,1,52.81,19.45Z"/><path class="cls-3" d="M59.72,26.15a7.57,7.57,0,0,1-4.93,1.5A7.62,7.62,0,0,1,57,23a7.57,7.57,0,0,1,4.93-1.5A7.69,7.69,0,0,1,59.72,26.15Z"/><path class="cls-3" d="M64.23,34.67a7.6,7.6,0,0,1-5.15-.11,7.64,7.64,0,0,1,3.51-3.78,7.58,7.58,0,0,1,5.16.1A7.63,7.63,0,0,1,64.23,34.67Z"/><path class="cls-3" d="M65.9,44.16A7.57,7.57,0,0,1,61,42.47,7.59,7.59,0,0,1,65.54,40a7.57,7.57,0,0,1,4.87,1.69A7.59,7.59,0,0,1,65.9,44.16Z"/><path class="cls-3" d="M64.57,53.71a7.58,7.58,0,0,1-4.11-3.12,7.56,7.56,0,0,1,5.06-1,7.63,7.63,0,0,1,4.11,3.13A7.61,7.61,0,0,1,64.57,53.71Z"/><path class="cls-3" d="M60.36,62.38a7.64,7.64,0,0,1-3-4.24,7.54,7.54,0,0,1,5.11.63A7.61,7.61,0,0,1,65.47,63,7.54,7.54,0,0,1,60.36,62.38Z"/><path class="cls-3" d="M53.68,69.32a7.66,7.66,0,0,1-1.49-4.95,7.57,7.57,0,0,1,4.67,2.18,7.73,7.73,0,0,1,1.5,5A7.64,7.64,0,0,1,53.68,69.32Z"/><path class="cls-3" d="M45.2,73.85a7.68,7.68,0,0,1,.11-5.18,7.62,7.62,0,0,1,3.76,3.53,7.64,7.64,0,0,1-.1,5.18A7.67,7.67,0,0,1,45.2,73.85Z"/><path class="cls-3" d="M35.75,75.52a7.64,7.64,0,0,1,1.68-4.89,7.64,7.64,0,0,1,2.5,4.53,7.68,7.68,0,0,1-1.69,4.89A7.65,7.65,0,0,1,35.75,75.52Z"/><path class="cls-3" d="M26.23,74.18a7.63,7.63,0,0,1,3.11-4.12,7.68,7.68,0,0,1,1,5.08,7.63,7.63,0,0,1-3.11,4.12A7.7,7.7,0,0,1,26.23,74.18Z"/><path class="cls-3" d="M17.6,70a7.58,7.58,0,0,1,4.23-3,7.66,7.66,0,0,1-.63,5.13,7.58,7.58,0,0,1-4.23,3A7.66,7.66,0,0,1,17.6,70Z"/><path class="cls-3" d="M10.69,63.26a7.57,7.57,0,0,1,4.93-1.5,7.69,7.69,0,0,1-2.18,4.69A7.57,7.57,0,0,1,8.51,68,7.62,7.62,0,0,1,10.69,63.26Z"/><path class="cls-3" d="M6.18,54.74a7.6,7.6,0,0,1,5.15.11,7.63,7.63,0,0,1-3.52,3.78,7.56,7.56,0,0,1-5.15-.1A7.63,7.63,0,0,1,6.18,54.74Z"/><path class="cls-3" d="M4.51,45.25a7.57,7.57,0,0,1,4.87,1.69,7.59,7.59,0,0,1-4.51,2.51A7.63,7.63,0,0,1,0,47.76,7.59,7.59,0,0,1,4.51,45.25Z"/><path class="cls-3" d="M5.84,35.7A7.58,7.58,0,0,1,10,38.82a7.56,7.56,0,0,1-5.06,1A7.63,7.63,0,0,1,.78,36.68,7.61,7.61,0,0,1,5.84,35.7Z"/><path class="cls-3" d="M10.05,27A7.64,7.64,0,0,1,13,31.27a7.57,7.57,0,0,1-5.12-.63A7.63,7.63,0,0,1,4.94,26.4,7.54,7.54,0,0,1,10.05,27Z"/><path class="cls-3" d="M16.72,20.09A7.63,7.63,0,0,1,18.22,25a7.54,7.54,0,0,1-4.67-2.19,7.69,7.69,0,0,1-1.5-5A7.61,7.61,0,0,1,16.72,20.09Z"/><path class="cls-3" d="M25.21,15.56a7.69,7.69,0,0,1-.11,5.18,7.62,7.62,0,0,1-3.76-3.53,7.64,7.64,0,0,1,.1-5.18A7.67,7.67,0,0,1,25.21,15.56Z"/><path class="cls-3" d="M34.66,13.89A7.6,7.6,0,0,1,33,18.77a7.6,7.6,0,0,1-2.5-4.52,7.62,7.62,0,0,1,1.69-4.89A7.65,7.65,0,0,1,34.66,13.89Z"/><path class="cls-3" d="M44.18,15.23a7.63,7.63,0,0,1-3.11,4.12,7.7,7.7,0,0,1-1-5.08,7.63,7.63,0,0,1,3.11-4.12A7.68,7.68,0,0,1,44.18,15.23Z"/><path class="cls-3" d="M52.81,19.45a7.58,7.58,0,0,1-4.23,3,7.66,7.66,0,0,1,.63-5.13,7.58,7.58,0,0,1,4.23-3A7.66,7.66,0,0,1,52.81,19.45Z"/><path class="cls-4" d="M59.72,26.15a7.57,7.57,0,0,1-4.93,1.5A7.62,7.62,0,0,1,57,23a7.57,7.57,0,0,1,4.93-1.5A7.69,7.69,0,0,1,59.72,26.15Z"/><path class="cls-4" d="M64.23,34.67a7.6,7.6,0,0,1-5.15-.11,7.64,7.64,0,0,1,3.51-3.78,7.58,7.58,0,0,1,5.16.1A7.63,7.63,0,0,1,64.23,34.67Z"/><path class="cls-4" d="M65.9,44.16A7.57,7.57,0,0,1,61,42.47,7.59,7.59,0,0,1,65.54,40a7.57,7.57,0,0,1,4.87,1.69A7.59,7.59,0,0,1,65.9,44.16Z"/><path class="cls-4" d="M64.57,53.71a7.58,7.58,0,0,1-4.11-3.12,7.56,7.56,0,0,1,5.06-1,7.63,7.63,0,0,1,4.11,3.13A7.61,7.61,0,0,1,64.57,53.71Z"/><path class="cls-4" d="M60.36,62.38a7.64,7.64,0,0,1-3-4.24,7.54,7.54,0,0,1,5.11.63A7.61,7.61,0,0,1,65.47,63,7.54,7.54,0,0,1,60.36,62.38Z"/><path class="cls-4" d="M53.68,69.32a7.66,7.66,0,0,1-1.49-4.95,7.57,7.57,0,0,1,4.67,2.18,7.73,7.73,0,0,1,1.5,5A7.64,7.64,0,0,1,53.68,69.32Z"/><path class="cls-4" d="M45.2,73.85a7.68,7.68,0,0,1,.11-5.18,7.62,7.62,0,0,1,3.76,3.53,7.64,7.64,0,0,1-.1,5.18A7.67,7.67,0,0,1,45.2,73.85Z"/><path class="cls-4" d="M35.75,75.52a7.64,7.64,0,0,1,1.68-4.89,7.64,7.64,0,0,1,2.5,4.53,7.68,7.68,0,0,1-1.69,4.89A7.65,7.65,0,0,1,35.75,75.52Z"/><path class="cls-4" d="M26.23,74.18a7.63,7.63,0,0,1,3.11-4.12,7.68,7.68,0,0,1,1,5.08,7.63,7.63,0,0,1-3.11,4.12A7.7,7.7,0,0,1,26.23,74.18Z"/><path class="cls-4" d="M53.44,14.32l-.08,0-4.8,8a.73.73,0,0,0,0,.08,7.58,7.58,0,0,0,4.23-3A7.66,7.66,0,0,0,53.44,14.32Z"/><path class="cls-4" d="M21.84,67.07l-4.8,8a7.47,7.47,0,0,0,4.16-2.94A7.53,7.53,0,0,0,21.84,67.07Z"/><path class="cls-5" d="M47.4,24.57l0,0L23.2,64.81l0,0A23.48,23.48,0,0,0,47.4,24.57Z"/><g class="cls-6"><path class="cls-7" d="M151.17,207.62a1.9,1.9,0,0,1,1.55,0,1.81,1.81,0,0,1,1,1.11l.84,2.53a2.35,2.35,0,0,1-.06,1.69,2.32,2.32,0,0,1-1.17,1.24l-5.06,2.46a.33.33,0,0,0-.22.4l2.56,13.43a11.1,11.1,0,0,1,.18,4.21,4.32,4.32,0,0,1-1.68,2.59c-1.22,1.08-3.47,2-6.75,2.68a2.28,2.28,0,0,1-1.63-.29,2.86,2.86,0,0,1-1.16-1.27,25.21,25.21,0,0,0-1.44-2.53,1.4,1.4,0,0,1-.07-1.3,1.16,1.16,0,0,1,1-.73l3.56-.68a1.15,1.15,0,0,0,.81-.43,1.38,1.38,0,0,0,.06-.94l-2.19-11.47c0-.15-.11-.19-.26-.12L137.19,222a1.93,1.93,0,0,1-1.58.09,2.07,2.07,0,0,1-1.23-1.11L133,218.17a2.39,2.39,0,0,1-.16-.5,2,2,0,0,1,.1-1,1.85,1.85,0,0,1,1.1-1.11c1.87-.79,3.77-1.66,5.7-2.59a.27.27,0,0,0,.17-.33L138,202.92a.21.21,0,0,0-.27-.19l-5.28,1a2.08,2.08,0,0,1-2.46-1.68l-.48-2.48a2.12,2.12,0,0,1,1.67-2.47l5.28-1a.21.21,0,0,0,.19-.28L135,187a2,2,0,0,1,.32-1.56,2.09,2.09,0,0,1,1.36-.86l3-.58a2,2,0,0,1,1.52.3,2,2,0,0,1,.88,1.33l1.69,8.87q0,.24.33.18l4.31-.83a2,2,0,0,1,1.57.32,2.06,2.06,0,0,1,.89,1.36l.47,2.48a2.1,2.1,0,0,1-1.67,2.47l-4.31.83c-.19,0-.27.13-.24.28l1.52,7.95c0,.16.12.2.26.13Zm28.73-26.86a2,2,0,0,1,1.53.34,2,2,0,0,1,.88,1.35l.56,2.94a2,2,0,0,1-.33,1.56,2,2,0,0,1-1.29.84l-7.06,1.36a.27.27,0,0,0-.24.35l6.51,34.11a11.53,11.53,0,0,1,.12,5,5.61,5.61,0,0,1-2.31,3.13q-2.61,2-9.77,3.38a2.31,2.31,0,0,1-1.64-.29,3.29,3.29,0,0,1-1.22-1.26,30.37,30.37,0,0,0-2.1-3.54,1.22,1.22,0,0,1-.15-1.22,1,1,0,0,1,.91-.71c1.38-.23,3.8-.68,7.24-1.34a1.94,1.94,0,0,0,1.18-.55,1.53,1.53,0,0,0,.14-1.25l-6.48-34c0-.19-.14-.27-.29-.24l-12.57,2.42a2.06,2.06,0,0,1-1.57-.3,1.92,1.92,0,0,1-.88-1.32l-.56-2.94a2.07,2.07,0,0,1,.32-1.59,2,2,0,0,1,1.35-.88Z"/><path class="cls-7" d="M213,178.76a2,2,0,0,1,.78,1.43,2.12,2.12,0,0,1-.5,1.56l-2,2.48a1.82,1.82,0,0,1-1.36.68,2,2,0,0,1-1.46-.49,47.22,47.22,0,0,0-7.88-5.12,1.8,1.8,0,0,1-.85-1.18,1.55,1.55,0,0,1,.35-1.41l1.71-2a2.73,2.73,0,0,1,1.48-1h.06A2.55,2.55,0,0,1,205,174,52.44,52.44,0,0,1,213,178.76Zm.48,14.66a2,2,0,0,1,1.58.33,1.92,1.92,0,0,1,.87,1.29l3.1,16.25a.86.86,0,0,0,.21.44q4.32,4.61,13.86,3.13c2.16-.33,4.77-.8,7.83-1.39l4.54-.87q7.67-1.59,13.45-3.07a1.38,1.38,0,0,1,1.62,1,1.41,1.41,0,0,1,0,.54c-.15,1.1-.27,2.22-.37,3.36a3,3,0,0,1-.64,1.64,2.39,2.39,0,0,1-1.43.91q-7.25,1.68-13.67,2.92-5.34,1-10.13,1.77a29.2,29.2,0,0,1-9.54.1,16.48,16.48,0,0,1-7.41-3.47.23.23,0,0,0-.35.07q-3.37,4.41-5.52,6.91a1.53,1.53,0,0,1-1.32.59,1.68,1.68,0,0,1-1.26-.69l-2.36-3.31a2.06,2.06,0,0,1-.4-.88,2.1,2.1,0,0,1,0-.71,2.24,2.24,0,0,1,.73-1.46q2.88-2.7,5.28-5.43a.46.46,0,0,0,.15-.45L210,201c0-.15-.14-.21-.33-.17l-4.42.85a2.1,2.1,0,0,1-2.46-1.68l-.45-2.36a2,2,0,0,1,.33-1.53,2.06,2.06,0,0,1,1.35-.89Zm3.33-4a2,2,0,0,1,.34-1.53,2,2,0,0,1,1.35-.89l2-.39a.05.05,0,0,0,.05-.07s0-.07,0-.11a36.94,36.94,0,0,0-4.28-1.51,1.43,1.43,0,0,1-.95-.92,1.41,1.41,0,0,1,.17-1.32A31.81,31.81,0,0,0,219.69,171a2.44,2.44,0,0,1,.86-1.42,2.35,2.35,0,0,1,1.56-.54l2.64.09a2,2,0,0,1,1.38.72,1.68,1.68,0,0,1,.4,1.45c-.18.91-.38,1.76-.58,2.56,0,.17,0,.23.21.19l3.56-.68c.19,0,.27-.13.25-.28l-.82-4.27a2,2,0,0,1,.33-1.56,2,2,0,0,1,1.3-.84l2.87-.55a2,2,0,0,1,1.57.29,2,2,0,0,1,.88,1.32l.81,4.27a.2.2,0,0,0,.27.18l10.51-2a2.1,2.1,0,0,1,2.46,1.68l.35,1.85a2.1,2.1,0,0,1-1.67,2.47l-10.5,2a.2.2,0,0,0-.19.27l.86,4.5c0,.19.13.27.28.24l12.92-2.48a2.05,2.05,0,0,1,1.58.32,2,2,0,0,1,.87,1.3l.34,1.78a2,2,0,0,1-.33,1.53,2.06,2.06,0,0,1-1.35.89l-33.69,6.48a2,2,0,0,1-1.58-.32,2,2,0,0,1-.88-1.3Zm14.38-9.82q0-.23-.33-.18L224,180.7a.48.48,0,0,0-.36.31A35.13,35.13,0,0,1,221,186.3s0,.09,0,.12.08.05.16,0l10.67-2a.26.26,0,0,0,.23-.34ZM255.33,205a2.08,2.08,0,0,1-.3,1.58,1.9,1.9,0,0,1-1.32.88l-25.48,4.9a2,2,0,0,1-1.58-.32,2.06,2.06,0,0,1-.89-1.35l-2.49-13.09a1.93,1.93,0,0,1,.33-1.55,2.07,2.07,0,0,1,1.35-.86l25.49-4.9a2,2,0,0,1,2.39,1.63Zm-24.27-5.25c-.2,0-.28.13-.25.29l1.06,5.53c0,.15.14.21.33.17l14.93-2.87a.2.2,0,0,0,.18-.27L246.26,197a.21.21,0,0,0-.28-.19Z"/><path class="cls-7" d="M286.25,159.41a2,2,0,0,1,1.53.33,2.08,2.08,0,0,1,.88,1.36l6.87,36a1.93,1.93,0,0,1-.33,1.55,2,2,0,0,1-1.29.85l-9.65,1.86a.25.25,0,0,0-.23.34l.55,2.88a2.07,2.07,0,0,1-.32,1.59,2,2,0,0,1-1.29.87l-2.41.47a1.92,1.92,0,0,1-1.55-.33,2.11,2.11,0,0,1-.86-1.36l-7.86-41.21a2.13,2.13,0,0,1,.29-1.58,2,2,0,0,1,1.32-.88ZM283,166.8a.2.2,0,0,0-.27-.19l-4.88.94c-.19,0-.27.13-.24.28l1.88,9.86a.25.25,0,0,0,.34.23l4.88-.94c.15,0,.21-.14.17-.33Zm-.23,28.12a.26.26,0,0,0,.35.23l4.88-.94c.15,0,.21-.14.17-.33l-2-10.54c0-.2-.13-.28-.29-.25L281,184a.26.26,0,0,0-.23.34Zm43.53-24.5a1.93,1.93,0,0,1-.33,1.55,2,2,0,0,1-1.29.85l-3.79.73c-.16,0-.21.14-.18.33l.87,4.55a.21.21,0,0,0,.28.19l3.38-.65a1.93,1.93,0,0,1,1.52.33,2.06,2.06,0,0,1,.89,1.36l.37,2a2.05,2.05,0,0,1-.32,1.58,2,2,0,0,1-1.29.88l-3.39.65a.2.2,0,0,0-.18.27l2.4,12.62a10.36,10.36,0,0,1,.14,4.13,4.64,4.64,0,0,1-1.88,2.66,23.41,23.41,0,0,1-7.58,2.66h-.06a2.36,2.36,0,0,1-1.6-.29,2.89,2.89,0,0,1-1.2-1.27,19.2,19.2,0,0,0-1.49-2.52,1.44,1.44,0,0,1-.1-1.29,1.12,1.12,0,0,1,1-.73l4.93-.95a1.74,1.74,0,0,0,1-.39,1.05,1.05,0,0,0,.1-.89L316,186.31q0-.24-.33-.18l-18.31,3.52a1.93,1.93,0,0,1-1.55-.33A2,2,0,0,1,295,188l-.38-2a2.13,2.13,0,0,1,.29-1.58,2,2,0,0,1,1.32-.88L314.53,180c.19,0,.27-.13.24-.28l-.87-4.56a.26.26,0,0,0-.34-.23l-18.43,3.54a2.05,2.05,0,0,1-1.57-.29,1.94,1.94,0,0,1-.88-1.33l-.4-2.07a2,2,0,0,1,.34-1.53,2,2,0,0,1,1.35-.88l11-2.11a.26.26,0,0,0,.23-.35l-.89-4.67c0-.15-.14-.21-.33-.17L295,166.81a2.1,2.1,0,0,1-2.47-1.67l-.38-2a2.07,2.07,0,0,1,.32-1.59,2,2,0,0,1,1.35-.88l8.95-1.73c.19,0,.28-.13.25-.28l-.75-3.92a2,2,0,0,1,.33-1.56,2,2,0,0,1,1.29-.85l2.82-.54a2.06,2.06,0,0,1,1.57.3,2,2,0,0,1,.88,1.32l.74,3.92a.21.21,0,0,0,.28.19l9.47-1.82a2,2,0,0,1,1.58.32,2,2,0,0,1,.88,1.35l.39,2a2,2,0,0,1-.33,1.59,2,2,0,0,1-1.34.88l-9.48,1.83a.2.2,0,0,0-.18.27l.89,4.67c0,.19.13.27.28.24l11.14-2.14a2,2,0,0,1,1.52.34,1.92,1.92,0,0,1,.87,1.29ZM300,194.88a1.93,1.93,0,0,1-.61-1.35,1.62,1.62,0,0,1,.58-1.34l1.83-1.6a2.36,2.36,0,0,1,1.58-.64,2.82,2.82,0,0,1,1.67.49,40.17,40.17,0,0,1,6,5.48,1.84,1.84,0,0,1,.5,1.52,2.3,2.3,0,0,1-.76,1.46l-2.19,1.91a1.75,1.75,0,0,1-1.44.43,2.1,2.1,0,0,1-1.36-.72A40.54,40.54,0,0,0,300,194.88Z"/><path class="cls-7" d="M352.31,145.45a2.31,2.31,0,0,1,.89-1.4,2.14,2.14,0,0,1,1.62-.4l3,.38a1.78,1.78,0,0,1,1.28.77,1.75,1.75,0,0,1,.28,1.5,94.48,94.48,0,0,1-2.8,9.62.81.81,0,0,0-.07.55L364,195.66a2,2,0,0,1-.3,1.53,2,2,0,0,1-1.32.88l-3.21.62a2.12,2.12,0,0,1-2.46-1.62l-5.47-28.7a.11.11,0,0,0-.08-.08s-.06,0-.05,0c-1.23,2.27-2.41,4.23-3.52,5.87a1.46,1.46,0,0,1-1.22.63,1.49,1.49,0,0,1-1.22-.63c-.85-1.12-1.71-2.18-2.58-3.21a2.21,2.21,0,0,1-.64-1.19,1.09,1.09,0,0,1,0-.36,2.33,2.33,0,0,1,.47-1.58,62.68,62.68,0,0,0,5.92-10.49A64.38,64.38,0,0,0,352.31,145.45ZM396,154.92a2,2,0,0,1-.11,1.6,2,2,0,0,1-1.17,1l-14.36,4.91c-.19,0-.25.15-.17.33q3.18,9.84,6.68,15.21t7,5.17h0c.58-.11.93-.78,1.05-2a28,28,0,0,0-.16-5.82,1,1,0,0,1,.48-.93.93.93,0,0,1,1.06,0c.79.37,1.71.75,2.78,1.14a2.94,2.94,0,0,1,1.46,1.1,2.73,2.73,0,0,1,.52,1.15,1.86,1.86,0,0,1,0,.47c.14,4.68-.28,8-1.24,10A5.52,5.52,0,0,1,396,191.6l-.29.05a12.51,12.51,0,0,1-6.91-1.27,17.64,17.64,0,0,1-6-5.16,44.91,44.91,0,0,1-5-8.47,93.75,93.75,0,0,1-4.43-11.69.28.28,0,0,0-.33-.18L364,168a2,2,0,0,1-1.6-.11,2.28,2.28,0,0,1-1.09-1.23l-.92-2.63c0-.11-.05-.23-.07-.34a1.87,1.87,0,0,1,.18-1.23,2,2,0,0,1,1.17-1.06l9.4-3.13a.27.27,0,0,0,.18-.33q-2.14-7.77-3.72-14.82a1.85,1.85,0,0,1,.26-1.57,2,2,0,0,1,1.29-.88l3-.58a2.1,2.1,0,0,1,2.46,1.62q1.74,7.9,3.37,13.93c.07.18.18.24.33.17l14.16-4.69a2.08,2.08,0,0,1,2.63,1.34Zm-3.89-11a1.78,1.78,0,0,1,.57,1.41,2,2,0,0,1-.61,1.46l-2,1.88a1.84,1.84,0,0,1-1.44.54,2.1,2.1,0,0,1-1.43-.65,55.77,55.77,0,0,0-6.86-5.67,1.55,1.55,0,0,1-.68-1.21,1.76,1.76,0,0,1,.48-1.38l1.59-1.38a2.46,2.46,0,0,1,1.58-.75,2.52,2.52,0,0,1,1.69.42A53.72,53.72,0,0,1,392.06,143.9Z"/><path class="cls-7" d="M467.79,167.81a1.93,1.93,0,0,1,1.55.33,2.08,2.08,0,0,1,.85,1.36l.49,2.59a2,2,0,0,1-.29,1.58,1.9,1.9,0,0,1-1.32.88l-37.77,7.27a.2.2,0,0,0-.18.27l.12.64a2,2,0,0,1-.34,1.52,2,2,0,0,1-1.34.89l-3.16.61a2,2,0,0,1-1.58-.33,2,2,0,0,1-.87-1.29l-9.13-47.84a2,2,0,0,1,.33-1.52,2.06,2.06,0,0,1,1.35-.89l42-8.07a2.05,2.05,0,0,1,1.58.32,2,2,0,0,1,.87,1.3l.51,2.65a2,2,0,0,1-.32,1.58,2,2,0,0,1-1.35.89l-36.51,7a.21.21,0,0,0-.18.28l1.22,6.4a.2.2,0,0,0,.27.18l33.18-6.38a1.93,1.93,0,0,1,1.55.33,2.08,2.08,0,0,1,.85,1.36l3.81,19.94a2,2,0,0,1-.31,1.52,1.9,1.9,0,0,1-1.32.88l-3.15.61a1.92,1.92,0,0,1-1.55-.33,2,2,0,0,1-.85-1.3l-.07-.41a.27.27,0,0,0-.35-.23l-27.72,5.33c-.15,0-.21.14-.18.34l1.3,6.8a.21.21,0,0,0,.28.18ZM453.88,148a.26.26,0,0,0-.34-.23l-27.73,5.33c-.15,0-.21.14-.17.33l1.43,7.49a.2.2,0,0,0,.27.19l27.73-5.33c.19,0,.27-.13.24-.29Z"/><path class="cls-7" d="M519.24,159.94a.2.2,0,0,0,.27.19l19.86-3.82a2.08,2.08,0,0,1,2.46,1.68l.38,2a1.93,1.93,0,0,1-.33,1.55,2.09,2.09,0,0,1-1.36.86l-47.7,9.18a2.06,2.06,0,0,1-1.57-.3,2,2,0,0,1-.88-1.32l-.37-2a2.07,2.07,0,0,1,.32-1.59,2,2,0,0,1,1.35-.88l20.09-3.87c.19,0,.27-.13.24-.28l-.67-3.52a.26.26,0,0,0-.34-.23l-12.86,2.47a2.06,2.06,0,0,1-1.57-.3,1.9,1.9,0,0,1-.88-1.32l-.26-1.38a2,2,0,0,1,.32-1.59,2,2,0,0,1,1.35-.88l12.85-2.48c.2,0,.28-.13.25-.28l-.6-3.12c0-.15-.14-.21-.33-.17l-11.94,2.29a.62.62,0,0,0-.37.25,38.71,38.71,0,0,1-3,5.06,2.13,2.13,0,0,1-1.35.88,2.25,2.25,0,0,1-1.68-.24c-1-.52-2-1-2.95-1.41a1.47,1.47,0,0,1-.87-1.14,1.46,1.46,0,0,1,.31-1.2,32.41,32.41,0,0,0,6-12.09c0-.17,0-.23-.21-.2l-.46.09a2,2,0,0,1-1.52-.3,2,2,0,0,1-.88-1.33L487,121.34a2,2,0,0,1,.33-1.56,2,2,0,0,1,1.3-.85l36.16-7a2,2,0,0,1,1.52.3,2,2,0,0,1,.87,1.33l3.41,17.86a2,2,0,0,1-.32,1.56,2.07,2.07,0,0,1-1.3.85l-32.89,6.32,0,.12,2.84.23a1.66,1.66,0,0,1,1.24.75,1.73,1.73,0,0,1,.26,1.47c-.15.47-.31.9-.47,1.29,0,.16,0,.23.21.19l8-1.53c.19,0,.27-.13.25-.29l-.26-1.32a2,2,0,0,1,.31-1.53,1.93,1.93,0,0,1,1.32-.88l3.15-.6a2,2,0,0,1,1.58.32,2,2,0,0,1,.87,1.3l.26,1.32a.21.21,0,0,0,.27.19l16.19-3.12a2,2,0,0,1,1.52.34,2,2,0,0,1,.88,1.35l.32,1.67a2,2,0,0,1-.32,1.59,2,2,0,0,1-1.29.87L517,147.05a.2.2,0,0,0-.18.27l.59,3.11a.2.2,0,0,0,.27.19L531.13,148a2,2,0,0,1,1.57.32,2.06,2.06,0,0,1,.89,1.35l.26,1.39a1.93,1.93,0,0,1-.33,1.55,2,2,0,0,1-1.35.86l-13.43,2.59q-.22,0-.18.33Zm-24.45-36.7a.2.2,0,0,0-.18.27l.49,2.6c0,.19.13.27.29.24l25.49-4.9c.15,0,.21-.14.17-.33l-.5-2.6a.2.2,0,0,0-.27-.18Zm1.54,8.07a.2.2,0,0,0-.18.27l.52,2.71a.2.2,0,0,0,.27.19l25.49-4.9a.21.21,0,0,0,.18-.28l-.52-2.71a.2.2,0,0,0-.27-.18Z"/><path class="cls-7" d="M138.55,73.42a2.67,2.67,0,0,1,2.11.49,2.81,2.81,0,0,1,1.2,1.89L152,132.63a15,15,0,0,1,.09,6.32,6.44,6.44,0,0,1-2.91,3.79q-3.36,2.43-12.56,4.08a3.17,3.17,0,0,1-2.26-.43,4,4,0,0,1-1.6-1.78c-.58-1.11-1.29-2.33-2.13-3.67a2,2,0,0,1-.12-1.81,1.69,1.69,0,0,1,1.34-1.06q3.21-.49,8.65-1.47c1.44-.26,2-1,1.81-2.31l-2.13-12c0-.27-.17-.39-.39-.35l-16.63,3c-.21,0-.29.19-.24.46l3.51,19.75a2.74,2.74,0,0,1-.49,2.11,2.78,2.78,0,0,1-1.89,1.21l-4.16.75a2.9,2.9,0,0,1-3.29-2.31l-3.52-19.74a.35.35,0,0,0-.47-.33l-16,2.86a.39.39,0,0,0-.34.4q.21,14.2-4.5,23.41a2.3,2.3,0,0,1-1.68,1.22,3.13,3.13,0,0,1-2.13-.37c-.56-.39-1.18-.78-1.85-1.16a17.28,17.28,0,0,0-1.92-1.06,2.55,2.55,0,0,1-1.36-1.58,1.39,1.39,0,0,1-.15-.39,2.28,2.28,0,0,1,.29-1.62,31.1,31.1,0,0,0,2.32-6.46A37.76,37.76,0,0,0,86.53,132c0-3.52-.18-6.63-.47-9.31s-.74-5.79-1.37-9.32L80,86.9a2.86,2.86,0,0,1,.48-2.2,2.71,2.71,0,0,1,1.81-1.19ZM106.28,89.14c0-.21-.19-.3-.45-.25L91.12,91.53a.29.29,0,0,0-.27.38l1.57,8.83c0,.26.18.38.4.34l14.71-2.64a.37.37,0,0,0,.33-.47ZM95.61,120c0,.22.19.3.46.25l14.87-2.67c.26,0,.38-.17.34-.39l-1.68-9.47c0-.21-.19-.3-.46-.25l-14.71,2.64a.29.29,0,0,0-.26.38l.21,1.2Q95.07,115.59,95.61,120Zm39.1-26.47c.21,0,.29-.19.25-.46l-1.57-8.83A.29.29,0,0,0,133,84l-16.63,3a.29.29,0,0,0-.26.38l1.57,8.83c0,.26.18.38.39.34Zm-13.59,21.9a.28.28,0,0,0,.37.26l16.63-3a.29.29,0,0,0,.26-.38l-1.68-9.47a.29.29,0,0,0-.38-.26l-16.63,3a.29.29,0,0,0-.26.38Z"/><path class="cls-7" d="M206.38,77.82a2.7,2.7,0,0,1-.49,2.11,2.76,2.76,0,0,1-1.8,1.2l-13.36,2.39a2.83,2.83,0,0,1-2.1-.45,2.63,2.63,0,0,1-1.18-1.78.13.13,0,0,0-.1-.1.52.52,0,0,0-.17,0,60.56,60.56,0,0,1-5.73,6.75.14.14,0,0,0,0,.17.12.12,0,0,0,.13,0l29.5-5.29a2.84,2.84,0,0,1,2.19.48,2.87,2.87,0,0,1,1.21,1.9L218,105.05a2.92,2.92,0,0,1-2.36,3.41l-23.18,4.16c-.27,0-.38.18-.35.39,0,1.21,0,2.1,0,2.65,0,.28.12.4.39.35l25-4.49a2.78,2.78,0,0,1,3.3,2.31l2.92,16.37a2.93,2.93,0,0,1-.44,2.19,2.66,2.66,0,0,1-1.85,1.2l-3.6.65a2.08,2.08,0,0,1-2.35-1.65c0-.21-.14-.31-.3-.28l-13.35,2.4c-.16,0-.22.15-.18.36a2.17,2.17,0,0,1-.4,1.73,2.21,2.21,0,0,1-1.44.92l-3.12.56a2.84,2.84,0,0,1-2.19-.48A2.77,2.77,0,0,1,193.3,136l-1.84-10.36a.08.08,0,0,0-.09-.07,42.34,42.34,0,0,1-2.81,10.2A2.2,2.2,0,0,1,187,137a2.29,2.29,0,0,1-2-.44c-.87-.56-1.73-1.09-2.59-1.6a3,3,0,0,1-1.42-1.69,2.91,2.91,0,0,1,.06-2.21q4.62-11.59,1.22-30.7l-1.92-10.83c-.05-.27-.17-.31-.35-.11a2.69,2.69,0,0,1-2.05.78,2.75,2.75,0,0,1-2-.88q-1.27-1.09-2.7-2.16a2.14,2.14,0,0,1-.91-1.41,2.17,2.17,0,0,1,.7-2.12,56.37,56.37,0,0,0,13.76-19.11,5,5,0,0,1,3.88-3.18l3-.55a8.12,8.12,0,0,1,5.35.86,155.94,155.94,0,0,1,14.83,8.69,2.81,2.81,0,0,1,1.28,1.88,2.94,2.94,0,0,1-.38,2.27l-2,3.42a2.52,2.52,0,0,1-3.67.66l-2.67-2a.12.12,0,0,0-.17,0c-.05,0-.06.1,0,.21Zm.06,13.32c0-.27-.18-.38-.39-.34L190,93.68a.37.37,0,0,0-.33.47l.39,2.17a.36.36,0,0,0,.47.33l16.07-2.89c.21,0,.3-.19.25-.45ZM190.64,76.5a.14.14,0,0,0,0,.17.13.13,0,0,0,.13,0l12.31-2.2a.14.14,0,0,0,.11-.11.13.13,0,0,0-.07-.15q-4.77-3.2-7.8-4.9a.36.36,0,0,0-.55.19Q192.65,73.41,190.64,76.5Zm.84,28.84c0,.27.12.39.39.34l16.31-2.93c.21,0,.3-.18.25-.45L208,99.89a.3.3,0,0,0-.38-.27l-16.15,2.9c-.26,0-.38.18-.34.39C191.24,103.5,191.35,104.31,191.48,105.34Zm21.72,14.49c0-.22-.19-.3-.46-.25l-13.11,2.35a.29.29,0,0,0-.26.38l.91,5.14a.29.29,0,0,0,.38.26l13.11-2.35c.27,0,.38-.18.34-.39Zm9.2-54.91a2.81,2.81,0,0,1,2.1.45,2.68,2.68,0,0,1,1.2,1.86l7.23,40.61a2.76,2.76,0,0,1-.49,2.12,2.73,2.73,0,0,1-1.81,1.19l-3.52.63a2.9,2.9,0,0,1-3.38-2.29l-7.22-40.61a2.69,2.69,0,0,1,.48-2.16,2.9,2.9,0,0,1,1.9-1.17Zm10.54-7.52a2.93,2.93,0,0,1,.44-2.19,2.66,2.66,0,0,1,1.85-1.2l3.84-.69a2.7,2.7,0,0,1,2.14.48,2.88,2.88,0,0,1,1.17,1.91l10.78,60.6a16.65,16.65,0,0,1,.16,6.47,6.28,6.28,0,0,1-2.78,3.85q-3,2.44-12,4.23h-.08a3.23,3.23,0,0,1-2.22-.42,3.53,3.53,0,0,1-1.64-1.78,37.54,37.54,0,0,0-2.24-4.24,2.18,2.18,0,0,1-.29-.69,1.9,1.9,0,0,1,.14-1.1,1.79,1.79,0,0,1,1.37-1.08c2.57-.4,5.37-.88,8.41-1.42a2.6,2.6,0,0,0,1.53-.69,1.83,1.83,0,0,0,.22-1.53Z"/><path class="cls-7" d="M340.29,51.57a2.64,2.64,0,0,1,2.15.48,2.85,2.85,0,0,1,1.15,1.82l.33,1.85a3,3,0,0,1-.44,2.19,2.66,2.66,0,0,1-1.85,1.2L276.48,70.79a2.64,2.64,0,0,1-2.15-.48,2.91,2.91,0,0,1-1.16-1.9l-.33-1.85a2.76,2.76,0,0,1,.45-2.11,2.66,2.66,0,0,1,1.84-1.2l14.31-2.57c.27,0,.35-.2.25-.46-.65-1.2-1.55-2.7-2.69-4.48-.15-.2-.09-.34.17-.45l-9,1.62a2.71,2.71,0,0,1-2.11-.49,2.74,2.74,0,0,1-1.19-1.81l-.34-1.93a2.77,2.77,0,0,1,.49-2.12,2.71,2.71,0,0,1,1.81-1.19L300,45.21a.36.36,0,0,0,.33-.47l-.2-1.13a2.8,2.8,0,0,1,2.3-3.31l4-.71a2.71,2.71,0,0,1,2.14.44,2.79,2.79,0,0,1,1.16,1.86l.2,1.13a.35.35,0,0,0,.47.33l23.26-4.17a2.92,2.92,0,0,1,3.3,2.3l.34,1.93a2.92,2.92,0,0,1-2.3,3.31l-8.55,1.53-.08,0a1,1,0,0,1,.73.41.62.62,0,0,1,0,.69q-.45,1.17-1.91,4.57c-.12.24-.05.34.22.29Zm-51.38,66.86a3.66,3.66,0,0,1-2.09,1.24,3.79,3.79,0,0,1-2.44-.27l-3.31-1.47a1.9,1.9,0,0,1-1.09-1.46,2.12,2.12,0,0,1,.5-1.83,26.51,26.51,0,0,0,5.58-10.86,3.39,3.39,0,0,1,1.35-1.9,2.72,2.72,0,0,1,2.11-.46l3,.45a2.68,2.68,0,0,1,1.87,1.2,2.52,2.52,0,0,1,.38,2.12A31.64,31.64,0,0,1,288.91,118.43ZM313,108.64l11.27-2a3.64,3.64,0,0,0,2.51-1.24,6.17,6.17,0,0,0,.47-3.35,2,2,0,0,1,.74-1.63,2,2,0,0,1,1.79-.4,20.87,20.87,0,0,0,3.16.59,3.22,3.22,0,0,1,2.11,1,3.11,3.11,0,0,1,.91,2.11c-.05,3.44-.76,5.9-2.15,7.39s-3.78,2.54-7.19,3.15l-13.19,2.37q-7.68,1.38-10.65-.29c-2-1.1-3.33-3.64-4-7.6l-1-5.78a2.84,2.84,0,0,1,.48-2.19,2.76,2.76,0,0,1,1.81-1.2l5.91-1.06a.6.6,0,0,1-.44-.42.64.64,0,0,1,.1-.59l2-2.84c.05,0,.06,0,0-.13s-.09-.11-.14-.1l-17.27,3.1A2.84,2.84,0,0,1,288,97a2.71,2.71,0,0,1-1.19-1.81l-3.43-19.27a2.74,2.74,0,0,1,.49-2.11,2.78,2.78,0,0,1,1.89-1.21l48.61-8.72a2.91,2.91,0,0,1,3.3,2.31L341,85.47a2.92,2.92,0,0,1-2.3,3.31L315.32,93c-.05,0-.07.07-.05.18a52.12,52.12,0,0,1,6.5,2.23,2.19,2.19,0,0,1,1.3,1.5,2.31,2.31,0,0,1-.34,2l-1.56,2.35a2.77,2.77,0,0,1-1.87,1.29,3.62,3.62,0,0,1-2.31-.21,52.54,52.54,0,0,0-9.88-3.61c-.23-.07-.33,0-.28.3l1.4,7.87a3.07,3.07,0,0,0,.61,1.55,1.84,1.84,0,0,0,1.28.47A14.22,14.22,0,0,0,313,108.64ZM293.5,77.43a.3.3,0,0,0-.27.38l.5,2.81c0,.27.18.38.4.34l34.69-6.22c.21,0,.3-.19.25-.46l-.5-2.81a.29.29,0,0,0-.38-.26Zm1.63,9.15c-.22,0-.3.2-.25.46l.53,3a.27.27,0,0,0,.37.26l34.7-6.22a.29.29,0,0,0,.26-.38l-.53-3c0-.26-.18-.38-.39-.34Zm21.59-36.26c.07-.23,0-.33-.21-.29l-19.59,3.51c-.27.05-.33.18-.18.37Q298,55.85,299,57.73a.75.75,0,0,1,.09.73.87.87,0,0,1-.52.51v.08l17.91-3.21,0-.08a.8.8,0,0,1-.63-.3.9.9,0,0,1-.13-.73C316.19,52.88,316.53,51.41,316.72,50.32ZM335,97.58a2,2,0,0,1-.9-1.33,2,2,0,0,1,.71-2l2.3-1.91a4.16,4.16,0,0,1,1.9-.92,1.16,1.16,0,0,1,.42,0,3.63,3.63,0,0,1,2.41.56,67,67,0,0,1,11.63,8.85,2.63,2.63,0,0,1,.66,1.37,2.93,2.93,0,0,1,0,.66,2.74,2.74,0,0,1-1,2l-2.79,2.4a3.61,3.61,0,0,1-1.38.58,4.1,4.1,0,0,1-.74.05,3.07,3.07,0,0,1-2-1A76.61,76.61,0,0,0,335,97.58Z"/><path class="cls-7" d="M370.69,47.69a2.42,2.42,0,0,1,.54-2,2.46,2.46,0,0,1,1.89-1l.56-.1a3.37,3.37,0,0,1,2.23.72,2.83,2.83,0,0,1,1.14,2,62.74,62.74,0,0,1,.32,18.5,2.59,2.59,0,0,1-1.25,1.76,2.71,2.71,0,0,1-2.17.34l-.95-.24a2.73,2.73,0,0,1-1.71-1.27,2.81,2.81,0,0,1-.44-1.08,4,4,0,0,1,0-1.15A57.49,57.49,0,0,0,370.69,47.69Zm26.49,3.78a3.34,3.34,0,0,1,.05,2.35,3.57,3.57,0,0,1-1.52,1.89l-.67.45a1.87,1.87,0,0,1-1.89.26,2.51,2.51,0,0,1-1.44-1.4,82.86,82.86,0,0,0-4.16-8.53c0-.06-.07-.05-.16,0l9.44,53.06a2.84,2.84,0,0,1-.45,2.11,2.68,2.68,0,0,1-1.85,1.2l-3.6.65a2.71,2.71,0,0,1-2.11-.5,2.74,2.74,0,0,1-1.19-1.81L375,30.18a2.64,2.64,0,0,1,.48-2.15,2.8,2.8,0,0,1,1.81-1.16l3.6-.64a2.71,2.71,0,0,1,2.14.44,2.75,2.75,0,0,1,1.16,1.87l2.16,12.11c0,.22.18.28.44.17l.74-.46a3.15,3.15,0,0,1,2.25-.36,2.81,2.81,0,0,1,1.87,1.28A68.42,68.42,0,0,1,397.18,51.47Zm44.08,30.77c0,.28.1.4.31.36l8.16-1.46a2.78,2.78,0,0,1,2.1.45,2.73,2.73,0,0,1,1.2,1.86l.6,3.37a2.68,2.68,0,0,1-.49,2.15,2.8,2.8,0,0,1-1.81,1.16L404.4,98.54a2.72,2.72,0,0,1-2.1-.45,2.66,2.66,0,0,1-1.2-1.85l-.6-3.38a2.71,2.71,0,0,1,.48-2.15,2.82,2.82,0,0,1,1.82-1.16l27.66-5a.45.45,0,0,0,.41-.48q-.14-15.63-1.41-35.28c0-.27-.18-.39-.39-.35L414,51.19c-.21,0-.32.2-.33.47q0,13.92-.28,23.49a3.52,3.52,0,0,1-.93,2.16,3.17,3.17,0,0,1-2.05,1l-4.05.4a2.37,2.37,0,0,1-2-.69,2.27,2.27,0,0,1-.72-2q.84-18,0-39.84c0-.22-.12-.31-.38-.26l-7.68,1.37a2.77,2.77,0,0,1-2.18-.47,2.84,2.84,0,0,1-1.21-1.9l-.58-3.29a2.73,2.73,0,0,1,.49-2.12,2.81,2.81,0,0,1,1.88-1.2l43.5-7.8a2.77,2.77,0,0,1,2.18.47,2.73,2.73,0,0,1,1.19,1.82l.59,3.29a2.93,2.93,0,0,1-2.37,3.41l-25.34,4.54c-.27,0-.38.18-.34.39q.12,5.37.11,7.6c0,.23.11.31.38.27l22.07-4a2.43,2.43,0,0,1,2,.51,2.57,2.57,0,0,1,1,1.84Q440.87,65.67,441.26,82.24ZM427.79,71a2.81,2.81,0,0,1,1.47,1.73,2.91,2.91,0,0,1-.18,2.26L428,77.17a2.34,2.34,0,0,1-1.59,1.28l-.32.06a2.49,2.49,0,0,1-1.8-.35q-3-1.6-7.55-3.53a2.48,2.48,0,0,1-1.5-1.47l-.09-.48a2.49,2.49,0,0,1,.29-1.62l.81-1.48A3.19,3.19,0,0,1,418,68a3.35,3.35,0,0,1,2.33-.09A71,71,0,0,1,427.79,71Zm-1.1-15a2.82,2.82,0,0,1,1.59,1.54,2.29,2.29,0,0,1,.19.63,2.68,2.68,0,0,1-.21,1.61l-.85,2.14a2.79,2.79,0,0,1-1.55,1.52l-.56.1a2.85,2.85,0,0,1-1.68-.2c-1.9-.76-4.1-1.53-6.6-2.29a2.5,2.5,0,0,1-1.55-1.3,4,4,0,0,1-.21-.71,2.49,2.49,0,0,1,.18-1.35l.78-1.63a3.35,3.35,0,0,1,1.58-1.78,6.33,6.33,0,0,1,.95-.25,3.88,3.88,0,0,1,1.4,0C422.63,54.64,424.81,55.29,426.69,56Z"/><path class="cls-7" d="M518,69.63a.29.29,0,0,0,.38.27l27.66-5a2.79,2.79,0,0,1,2.19.47,2.85,2.85,0,0,1,1.2,1.9L550,70a2.75,2.75,0,0,1-.48,2.16,3,3,0,0,1-1.9,1.17L481.14,85.28a2.87,2.87,0,0,1-2.18-.44,2.66,2.66,0,0,1-1.2-1.85l-.49-2.73a2.85,2.85,0,0,1,.48-2.2,2.82,2.82,0,0,1,1.89-1.21l28-5c.26,0,.38-.17.34-.39l-.87-4.9a.37.37,0,0,0-.47-.33l-17.91,3.22a2.91,2.91,0,0,1-2.18-.44,2.75,2.75,0,0,1-1.2-1.86L485,65.21a2.94,2.94,0,0,1,2.36-3.41l17.91-3.21c.27-.05.38-.18.34-.39l-.77-4.34c0-.21-.19-.29-.45-.25l-16.63,3a.76.76,0,0,0-.52.34,55.06,55.06,0,0,1-4.2,7,2.94,2.94,0,0,1-1.89,1.21,3.21,3.21,0,0,1-2.34-.37q-2.08-1.11-4.07-2a2.09,2.09,0,0,1-1.19-1.61,2,2,0,0,1,.45-1.65,45.07,45.07,0,0,0,8.58-16.7c.07-.23,0-.32-.3-.28l-.64.12a2.82,2.82,0,0,1-2.1-.45,2.77,2.77,0,0,1-1.2-1.86l-4.42-24.88a2.67,2.67,0,0,1,.48-2.16,2.78,2.78,0,0,1,1.82-1.15l50.36-9a2.72,2.72,0,0,1,2.1.45,2.66,2.66,0,0,1,1.2,1.85l4.43,24.88a2.69,2.69,0,0,1-.49,2.16A2.8,2.8,0,0,1,532,33.59L486.19,41.8l0,.16,3.94.37a2.33,2.33,0,0,1,1.72,1.06,2.42,2.42,0,0,1,.32,2c-.22.65-.44,1.24-.67,1.78-.07.23,0,.33.29.28l11.12-2c.26,0,.38-.18.34-.4L503,43.27a2.84,2.84,0,0,1,.45-2.11,2.66,2.66,0,0,1,1.85-1.2l4.39-.79a2.79,2.79,0,0,1,2.19.48A2.71,2.71,0,0,1,513,41.46l.33,1.85a.29.29,0,0,0,.38.26l22.54-4a2.7,2.7,0,0,1,2.11.49,2.8,2.8,0,0,1,1.2,1.9l.42,2.32a2.85,2.85,0,0,1-.48,2.2,2.71,2.71,0,0,1-1.81,1.19l-22.54,4a.29.29,0,0,0-.26.38l.77,4.33a.28.28,0,0,0,.38.26l18.7-3.35a2.93,2.93,0,0,1,3.4,2.37l.34,1.93a2.75,2.75,0,0,1-.48,2.16,2.91,2.91,0,0,1-1.9,1.16l-18.71,3.36c-.21,0-.29.19-.25.46ZM484.71,18.21a.29.29,0,0,0-.26.38l.64,3.61c.05.27.18.38.4.35L521,16.18c.21,0,.3-.19.25-.46l-.64-3.61a.29.29,0,0,0-.38-.26Zm2,11.24a.29.29,0,0,0-.26.38l.67,3.77a.29.29,0,0,0,.38.26L523,27.5a.29.29,0,0,0,.27-.38l-.67-3.77a.29.29,0,0,0-.38-.27Z"/><polygon class="cls-7" points="474.76 102.15 475.96 107.75 481.23 109.93 476.3 112.81 475.86 118.51 471.62 114.69 466.07 116.03 468.38 110.8 465.4 105.92 471.07 106.51 474.76 102.15"/></g><path class="cls-8" d="M148.14,204.58a1.9,1.9,0,0,1,1.55,0,1.79,1.79,0,0,1,1.05,1.12l.84,2.52a2.4,2.4,0,0,1-.07,1.69,2.34,2.34,0,0,1-1.16,1.24l-5.07,2.46a.34.34,0,0,0-.22.41l2.57,13.42a11.28,11.28,0,0,1,.17,4.21,4.26,4.26,0,0,1-1.67,2.59q-1.84,1.62-6.75,2.68a2.27,2.27,0,0,1-1.63-.29,2.82,2.82,0,0,1-1.17-1.27,27.12,27.12,0,0,0-1.43-2.53,1.34,1.34,0,0,1-.07-1.3,1.16,1.16,0,0,1,1-.73l3.56-.68a1.12,1.12,0,0,0,.81-.43,1.36,1.36,0,0,0,.06-.93l-2.19-11.47c0-.16-.12-.2-.26-.13L134.17,219a2,2,0,0,1-1.59.1,2.11,2.11,0,0,1-1.22-1.11l-1.44-2.83a3.47,3.47,0,0,1-.15-.51,1.93,1.93,0,0,1,1.2-2.14c1.87-.8,3.76-1.66,5.69-2.59a.29.29,0,0,0,.18-.34L135,199.88a.21.21,0,0,0-.28-.18l-5.28,1a2,2,0,0,1-1.58-.32A2.08,2.08,0,0,1,127,199l-.47-2.47a2.07,2.07,0,0,1,.32-1.59,2,2,0,0,1,1.35-.89l5.28-1a.22.22,0,0,0,.19-.28l-1.7-8.87a2,2,0,0,1,.33-1.56,2.09,2.09,0,0,1,1.35-.86l3-.58a2,2,0,0,1,1.52.3,1.94,1.94,0,0,1,.88,1.33l1.69,8.87q0,.24.33.18l4.31-.83a2.08,2.08,0,0,1,2.46,1.68l.47,2.48a2.1,2.1,0,0,1-1.67,2.47l-4.3.83c-.19,0-.27.13-.24.28l1.51,8c0,.15.12.19.27.13Zm28.74-26.86a2,2,0,0,1,1.52.34,2,2,0,0,1,.88,1.35l.56,2.94a2,2,0,0,1-.32,1.56,2,2,0,0,1-1.3.85l-7.06,1.35a.26.26,0,0,0-.23.35l6.51,34.11a11.85,11.85,0,0,1,.12,5,5.64,5.64,0,0,1-2.32,3.13q-2.6,2-9.77,3.38a2.28,2.28,0,0,1-1.63-.29,3.26,3.26,0,0,1-1.22-1.25,27.7,27.7,0,0,0-2.11-3.54,1.22,1.22,0,0,1-.14-1.23,1,1,0,0,1,.9-.71c1.39-.23,3.8-.67,7.25-1.34a1.94,1.94,0,0,0,1.17-.55,1.52,1.52,0,0,0,.15-1.25l-6.49-34c0-.19-.13-.27-.28-.24l-12.57,2.42a2.08,2.08,0,0,1-1.58-.3,2,2,0,0,1-.88-1.32l-.56-2.94a2,2,0,0,1,.33-1.59,2,2,0,0,1,1.34-.88Z"/><path class="cls-8" d="M210,175.72a2,2,0,0,1,.78,1.43,2.08,2.08,0,0,1-.51,1.56l-2,2.48a1.76,1.76,0,0,1-1.35.68,2.08,2.08,0,0,1-1.47-.49,47.86,47.86,0,0,0-7.88-5.12,1.81,1.81,0,0,1-.85-1.18,1.54,1.54,0,0,1,.36-1.41l1.7-2a2.81,2.81,0,0,1,1.49-.95h.05a2.6,2.6,0,0,1,1.65.22A53.91,53.91,0,0,1,210,175.72Zm.47,14.66a2.12,2.12,0,0,1,2.46,1.62l3.1,16.25a.75.75,0,0,0,.2.44q4.34,4.6,13.87,3.13c2.15-.33,4.76-.8,7.83-1.38l4.53-.88q7.67-1.59,13.46-3.06a1.14,1.14,0,0,1,1.19.31,1.17,1.17,0,0,1,.43.69,1.44,1.44,0,0,1,0,.54c-.14,1.1-.27,2.22-.37,3.36a2.89,2.89,0,0,1-.64,1.64,2.3,2.3,0,0,1-1.43.91q-7.23,1.68-13.67,2.92-5.33,1-10.13,1.77a29.45,29.45,0,0,1-9.53.11,16.64,16.64,0,0,1-7.42-3.48.21.21,0,0,0-.34.07q-3.39,4.41-5.53,6.92a1.49,1.49,0,0,1-1.31.58,1.69,1.69,0,0,1-1.27-.69l-2.35-3.31a2,2,0,0,1-.41-.87,2.46,2.46,0,0,1,0-.72,2.18,2.18,0,0,1,.74-1.45c1.92-1.81,3.67-3.62,5.27-5.44a.41.41,0,0,0,.15-.45L207,198c0-.15-.13-.21-.33-.17l-4.42.85a2,2,0,0,1-1.57-.32,2.06,2.06,0,0,1-.89-1.36l-.45-2.36a2,2,0,0,1,.33-1.53,2,2,0,0,1,1.35-.88Zm3.34-4a2,2,0,0,1,.33-1.53,2.06,2.06,0,0,1,1.35-.89l2-.38s0,0,0-.07a.5.5,0,0,0,0-.12,38.64,38.64,0,0,0-4.27-1.51,1.41,1.41,0,0,1-1-.92,1.39,1.39,0,0,1,.16-1.31A31.86,31.86,0,0,0,216.66,168a2.53,2.53,0,0,1,.86-1.42,2.43,2.43,0,0,1,1.57-.54l2.63.09a2,2,0,0,1,1.39.72,1.68,1.68,0,0,1,.39,1.45c-.18.91-.37,1.76-.58,2.56,0,.17,0,.23.22.2l3.56-.69c.19,0,.27-.13.24-.28l-.81-4.27a1.93,1.93,0,0,1,.32-1.55,2,2,0,0,1,1.3-.85l2.87-.55a2.05,2.05,0,0,1,1.57.29,1.94,1.94,0,0,1,.88,1.33l.81,4.26a.21.21,0,0,0,.28.19l10.5-2a2,2,0,0,1,1.58.32,2,2,0,0,1,.88,1.35l.36,1.85a2.12,2.12,0,0,1-1.67,2.47l-10.51,2a.21.21,0,0,0-.18.28l.85,4.49c0,.19.14.27.29.24l12.91-2.48a2,2,0,0,1,1.58.32,2,2,0,0,1,.88,1.3l.34,1.79a2.1,2.1,0,0,1-1.69,2.41l-33.69,6.48a2.05,2.05,0,0,1-1.58-.32,2,2,0,0,1-.87-1.3Zm14.37-9.82c0-.15-.14-.21-.33-.17L221,177.66a.52.52,0,0,0-.36.31,34.22,34.22,0,0,1-2.68,5.29q0,.08,0,.12s.07.05.15,0l10.68-2A.26.26,0,0,0,229,181Zm24.13,25.41a2.11,2.11,0,0,1-.29,1.58,1.94,1.94,0,0,1-1.32.88L225.2,209.3a2.1,2.1,0,0,1-2.46-1.68l-2.5-13.08a2,2,0,0,1,.33-1.56,2.09,2.09,0,0,1,1.35-.86l25.49-4.9a2,2,0,0,1,2.39,1.63ZM228,196.68c-.19,0-.27.14-.24.29l1.05,5.53q0,.23.33.18l14.93-2.87a.21.21,0,0,0,.18-.28L243.23,194a.21.21,0,0,0-.28-.19Z"/><path class="cls-8" d="M283.23,156.37a2,2,0,0,1,1.52.34,2,2,0,0,1,.88,1.35l6.88,36a2,2,0,0,1-.33,1.56,2,2,0,0,1-1.3.84l-9.64,1.86a.26.26,0,0,0-.23.34l.55,2.88a2,2,0,0,1-.33,1.59,1.92,1.92,0,0,1-1.29.87l-2.41.47a1.93,1.93,0,0,1-1.55-.33,2.08,2.08,0,0,1-.85-1.36l-7.87-41.21a2.09,2.09,0,0,1,.3-1.58,1.93,1.93,0,0,1,1.32-.88Zm-3.29,7.39a.21.21,0,0,0-.28-.19l-4.88.94c-.19,0-.27.13-.24.29l1.88,9.85a.26.26,0,0,0,.34.23l4.88-.94q.23,0,.18-.33Zm-.23,28.12a.26.26,0,0,0,.34.23l4.88-.93c.15,0,.21-.14.17-.34l-2-10.54c0-.2-.13-.28-.28-.25l-4.88.94a.26.26,0,0,0-.23.34Zm43.52-24.5a1.93,1.93,0,0,1-.32,1.55,2,2,0,0,1-1.3.85l-3.79.73c-.15,0-.21.14-.17.33l.87,4.55a.2.2,0,0,0,.27.19l3.39-.65a2,2,0,0,1,1.52.33,2,2,0,0,1,.88,1.36l.37,2a2,2,0,0,1-.32,1.58,1.94,1.94,0,0,1-1.29.88l-3.39.65a.2.2,0,0,0-.18.27l2.41,12.63a10.27,10.27,0,0,1,.13,4.12,4.67,4.67,0,0,1-1.87,2.66,23.25,23.25,0,0,1-7.59,2.66h-.06a2.37,2.37,0,0,1-1.6-.29,2.84,2.84,0,0,1-1.19-1.26,19.75,19.75,0,0,0-1.49-2.53,1.38,1.38,0,0,1-.1-1.29,1.08,1.08,0,0,1,1-.72l4.94-.95a1.77,1.77,0,0,0,1-.4,1,1,0,0,0,.1-.88L313,183.27c0-.16-.14-.21-.33-.18l-18.32,3.52a1.89,1.89,0,0,1-1.55-.33,2.06,2.06,0,0,1-.85-1.35l-.37-2a2.07,2.07,0,0,1,.29-1.58,1.9,1.9,0,0,1,1.32-.88L311.5,177c.19,0,.27-.13.24-.28l-.87-4.55a.26.26,0,0,0-.34-.24l-18.42,3.55a2.08,2.08,0,0,1-1.58-.3,2,2,0,0,1-.88-1.32l-.39-2.08a2,2,0,0,1,.33-1.53,2,2,0,0,1,1.35-.88l11-2.11a.27.27,0,0,0,.24-.35l-.9-4.66c0-.16-.13-.21-.33-.18l-9,1.72a2,2,0,0,1-1.58-.32,2,2,0,0,1-.88-1.35l-.39-2a2.07,2.07,0,0,1,.32-1.59,2,2,0,0,1,1.35-.88l9-1.73c.19,0,.27-.13.24-.28l-.75-3.92a2,2,0,0,1,.33-1.56,2,2,0,0,1,1.3-.84l2.81-.54a2.1,2.1,0,0,1,1.57.29,1.94,1.94,0,0,1,.88,1.33l.75,3.91a.2.2,0,0,0,.27.19l9.47-1.82a2.1,2.1,0,0,1,2.47,1.68l.38,2a2.11,2.11,0,0,1-1.67,2.48l-9.47,1.82a.21.21,0,0,0-.19.27l.89,4.67c0,.19.13.27.29.24l11.13-2.14a2.11,2.11,0,0,1,2.4,1.63ZM297,191.84a1.88,1.88,0,0,1-.62-1.35,1.62,1.62,0,0,1,.58-1.34l1.84-1.6a2.32,2.32,0,0,1,1.57-.63,2.74,2.74,0,0,1,1.67.48,40.86,40.86,0,0,1,6,5.48,1.84,1.84,0,0,1,.49,1.52,2.25,2.25,0,0,1-.76,1.46l-2.19,1.92a1.74,1.74,0,0,1-1.44.42,2.1,2.1,0,0,1-1.36-.72A40.41,40.41,0,0,0,297,191.84Z"/><path class="cls-8" d="M349.28,142.41a2.28,2.28,0,0,1,.9-1.39,2.15,2.15,0,0,1,1.62-.41l3,.39a1.7,1.7,0,0,1,1.27.77,1.73,1.73,0,0,1,.29,1.49,93.8,93.8,0,0,1-2.81,9.62.9.9,0,0,0-.07.56L361,192.63a2,2,0,0,1-.31,1.52,1.93,1.93,0,0,1-1.32.88l-3.21.62a2,2,0,0,1-1.58-.33,2,2,0,0,1-.87-1.29l-5.48-28.7a.1.1,0,0,0-.07-.08c-.05,0-.06,0-.05,0q-1.86,3.41-3.52,5.88a1.51,1.51,0,0,1-2.45,0c-.84-1.11-1.7-2.18-2.57-3.21a2.23,2.23,0,0,1-.65-1.19,1.45,1.45,0,0,1,0-.36,2.34,2.34,0,0,1,.48-1.58,62.66,62.66,0,0,0,5.91-10.49A64.13,64.13,0,0,0,349.28,142.41Zm43.64,9.47a2,2,0,0,1-.11,1.61,2,2,0,0,1-1.17,1l-14.35,4.91c-.2,0-.25.15-.18.33q3.19,9.84,6.68,15.21t7,5.17h.06c.57-.11.92-.78,1-2a27.93,27.93,0,0,0-.15-5.83.94.94,0,0,1,.47-.93,1,1,0,0,1,1.07,0c.78.36,1.71.74,2.78,1.14a2.89,2.89,0,0,1,1.45,1.09,2.67,2.67,0,0,1,.52,1.15,1.94,1.94,0,0,1,0,.48q.21,7-1.24,10a5.48,5.48,0,0,1-3.83,3.31l-.29.05a12.38,12.38,0,0,1-6.9-1.27,17.67,17.67,0,0,1-6-5.16,44.38,44.38,0,0,1-5-8.47A93.06,93.06,0,0,1,370.34,162a.27.27,0,0,0-.33-.17L361,165a2,2,0,0,1-1.6-.11,2.31,2.31,0,0,1-1.1-1.22l-.92-2.64-.06-.34a1.89,1.89,0,0,1,.18-1.23,2,2,0,0,1,1.16-1.06l9.41-3.12a.29.29,0,0,0,.17-.34q-2.15-7.77-3.72-14.82a1.86,1.86,0,0,1,.26-1.57,2,2,0,0,1,1.3-.88l3-.58a2.05,2.05,0,0,1,1.58.32,2,2,0,0,1,.87,1.3q1.74,7.91,3.37,13.93c.08.18.19.24.33.17l14.16-4.69a2,2,0,0,1,1.57.11,2,2,0,0,1,1.07,1.23Zm-3.88-11a1.83,1.83,0,0,1,.56,1.41,2,2,0,0,1-.61,1.47l-2,1.87a1.83,1.83,0,0,1-1.45.54,2.05,2.05,0,0,1-1.43-.65,55.59,55.59,0,0,0-6.85-5.67,1.53,1.53,0,0,1-.68-1.21,1.76,1.76,0,0,1,.48-1.38l1.58-1.38a2.59,2.59,0,0,1,3.27-.33A54.56,54.56,0,0,1,389,140.86Z"/><path class="cls-8" d="M464.76,164.77a1.93,1.93,0,0,1,1.55.33,2.08,2.08,0,0,1,.85,1.36l.5,2.59a2.11,2.11,0,0,1-.29,1.58,1.94,1.94,0,0,1-1.32.88l-37.77,7.27a.2.2,0,0,0-.19.27l.12.64a2.09,2.09,0,0,1-1.68,2.41l-3.16.61a2.05,2.05,0,0,1-1.58-.32,2,2,0,0,1-.87-1.3l-9.13-47.83a2,2,0,0,1,.34-1.53,2,2,0,0,1,1.35-.89l42-8.07a2.1,2.1,0,0,1,2.45,1.62l.5,2.65a2,2,0,0,1-.32,1.59,2,2,0,0,1-1.35.88l-36.51,7a.21.21,0,0,0-.18.28l1.22,6.4a.2.2,0,0,0,.27.18L454.7,137a1.92,1.92,0,0,1,1.55.33,2.09,2.09,0,0,1,.86,1.36l3.8,19.94a2.06,2.06,0,0,1-.3,1.52,1.94,1.94,0,0,1-1.32.88l-3.16.61a1.93,1.93,0,0,1-1.55-.33,2,2,0,0,1-.84-1.3l-.08-.4a.26.26,0,0,0-.34-.24l-27.73,5.34c-.15,0-.21.14-.17.33l1.3,6.8a.21.21,0,0,0,.27.19Zm-13.91-19.85a.25.25,0,0,0-.34-.23L422.79,150c-.16,0-.21.14-.18.33l1.43,7.49a.21.21,0,0,0,.28.19L452,152.7c.19,0,.27-.13.24-.29Z"/><path class="cls-8" d="M516.21,156.91a.2.2,0,0,0,.27.18l19.86-3.82a2.12,2.12,0,0,1,2.47,1.68l.37,2a2,2,0,0,1-.33,1.56,2.08,2.08,0,0,1-1.35.85l-47.7,9.18a2.08,2.08,0,0,1-1.58-.3,1.92,1.92,0,0,1-.87-1.32l-.38-2a2.07,2.07,0,0,1,.32-1.59,2,2,0,0,1,1.35-.88l20.09-3.87c.19,0,.28-.13.25-.28l-.67-3.52a.26.26,0,0,0-.35-.23L495.11,157a2.12,2.12,0,0,1-1.58-.29,2,2,0,0,1-.88-1.33l-.26-1.38a2.07,2.07,0,0,1,.32-1.59,2,2,0,0,1,1.35-.88l12.86-2.48c.19,0,.27-.13.24-.28l-.59-3.11q0-.24-.33-.18l-11.94,2.3a.53.53,0,0,0-.37.25,39.75,39.75,0,0,1-3,5,2,2,0,0,1-1.34.88,2.28,2.28,0,0,1-1.69-.24c-1-.52-2-1-2.94-1.4a1.54,1.54,0,0,1-.88-1.15,1.49,1.49,0,0,1,.31-1.2,32.59,32.59,0,0,0,6-12.09c0-.16,0-.23-.22-.19l-.46.08a2,2,0,0,1-1.52-.3,2,2,0,0,1-.87-1.33L484,118.3a2,2,0,0,1,.32-1.56,2.07,2.07,0,0,1,1.3-.85l36.16-7a2,2,0,0,1,1.52.3,1.94,1.94,0,0,1,.88,1.33l3.41,17.86a2,2,0,0,1-.33,1.56,2,2,0,0,1-1.3.85L493,137.17l0,.11,2.85.23a1.68,1.68,0,0,1,1.24.75,1.76,1.76,0,0,1,.25,1.47c-.15.47-.31.9-.47,1.29-.05.17,0,.23.22.19l8-1.53c.19,0,.27-.13.24-.29l-.25-1.32a2,2,0,0,1,.3-1.52,1.94,1.94,0,0,1,1.32-.88l3.16-.61a2.05,2.05,0,0,1,1.58.32,2,2,0,0,1,.87,1.3l.25,1.32a.21.21,0,0,0,.28.19l16.18-3.11a1.9,1.9,0,0,1,1.52.33,2.06,2.06,0,0,1,.89,1.35l.32,1.67a2,2,0,0,1-.33,1.59,2,2,0,0,1-1.29.88L514,144a.2.2,0,0,0-.19.27l.59,3.12a.21.21,0,0,0,.28.18L528.1,145a2.08,2.08,0,0,1,2.46,1.68l.27,1.38a2,2,0,0,1-.33,1.56,2.08,2.08,0,0,1-1.36.85l-13.43,2.59c-.15,0-.21.14-.17.33ZM491.77,120.2a.21.21,0,0,0-.19.28l.5,2.59c0,.19.13.27.28.24l25.49-4.9c.15,0,.21-.14.17-.33l-.49-2.59a.2.2,0,0,0-.27-.19Zm1.54,8.07a.21.21,0,0,0-.19.28l.52,2.7a.2.2,0,0,0,.27.19l25.49-4.9a.21.21,0,0,0,.19-.28l-.52-2.7a.2.2,0,0,0-.27-.19Z"/><path class="cls-8" d="M135.52,70.38a2.7,2.7,0,0,1,2.11.49,2.81,2.81,0,0,1,1.2,1.89l10.11,56.83a15.16,15.16,0,0,1,.1,6.32,6.55,6.55,0,0,1-2.92,3.8q-3.36,2.41-12.55,4.07a3.24,3.24,0,0,1-2.27-.42,4,4,0,0,1-1.59-1.79c-.58-1.11-1.3-2.33-2.14-3.67a2,2,0,0,1-.11-1.8,1.67,1.67,0,0,1,1.33-1.07q3.21-.5,8.65-1.47c1.44-.26,2-1,1.82-2.31l-2.13-12c0-.27-.18-.38-.39-.35l-16.63,3c-.22,0-.3.19-.25.45l3.51,19.75a2.73,2.73,0,0,1-.49,2.12,2.81,2.81,0,0,1-1.89,1.2l-4.15.75a2.91,2.91,0,0,1-3.3-2.31L110,124.15a.36.36,0,0,0-.47-.33l-16,2.86a.4.4,0,0,0-.35.4q.23,14.21-4.49,23.42a2.35,2.35,0,0,1-1.68,1.21,3.12,3.12,0,0,1-2.13-.37c-.57-.39-1.19-.78-1.86-1.15a17.46,17.46,0,0,0-1.92-1.07,2.57,2.57,0,0,1-1.35-1.58,1.47,1.47,0,0,1-.15-.38,2.3,2.3,0,0,1,.28-1.63,31.1,31.1,0,0,0,2.32-6.46A37.74,37.74,0,0,0,83.5,129c0-3.53-.18-6.64-.46-9.32s-.74-5.79-1.37-9.32L77,83.86a2.82,2.82,0,0,1,.47-2.2,2.71,2.71,0,0,1,1.81-1.19ZM103.26,86.1c0-.21-.19-.3-.46-.25L88.09,88.49a.29.29,0,0,0-.26.38L89.4,97.7c0,.27.18.38.39.34L104.5,95.4a.35.35,0,0,0,.33-.47ZM92.59,117c0,.22.19.3.45.25l14.87-2.66c.27,0,.38-.18.35-.4l-1.69-9.47c0-.21-.19-.29-.46-.25L91.4,107.11a.29.29,0,0,0-.26.38l.21,1.2Q92,112.55,92.59,117Zm39.09-26.47c.21,0,.3-.19.25-.46l-1.57-8.83A.29.29,0,0,0,130,81l-16.63,3a.29.29,0,0,0-.26.38l1.57,8.83c0,.27.18.38.39.34Zm-13.59,21.9a.28.28,0,0,0,.38.26l16.63-3a.29.29,0,0,0,.26-.38l-1.69-9.47a.28.28,0,0,0-.37-.26l-16.63,3a.3.3,0,0,0-.27.38Z"/><path class="cls-8" d="M203.36,74.78a2.93,2.93,0,0,1-2.3,3.31l-13.35,2.39a2.72,2.72,0,0,1-2.1-.45,2.62,2.62,0,0,1-1.19-1.77c0-.06,0-.09-.1-.11a.3.3,0,0,0-.16,0,63.65,63.65,0,0,1-5.73,6.74.14.14,0,0,0,0,.17.13.13,0,0,0,.14.06l29.5-5.29a2.79,2.79,0,0,1,2.19.47,2.83,2.83,0,0,1,1.2,1.9L215,102a2.93,2.93,0,0,1-2.37,3.4l-23.18,4.16c-.27,0-.38.18-.34.39,0,1.22,0,2.1,0,2.66,0,.27.13.39.4.34l25-4.49a2.76,2.76,0,0,1,2.14.45,2.79,2.79,0,0,1,1.16,1.86l2.91,16.37a2.88,2.88,0,0,1-.44,2.19,2.71,2.71,0,0,1-1.84,1.21l-3.6.64a1.92,1.92,0,0,1-1.51-.35,2,2,0,0,1-.85-1.3c0-.21-.13-.3-.29-.28l-13.36,2.4q-.24,0-.18.36a2.16,2.16,0,0,1-.39,1.73,2.23,2.23,0,0,1-1.45.92l-3.12.56a2.82,2.82,0,0,1-2.18-.48,2.71,2.71,0,0,1-1.19-1.81l-1.84-10.36a.08.08,0,0,0-.1-.06,41.93,41.93,0,0,1-2.81,10.19,2.18,2.18,0,0,1-1.59,1.24,2.29,2.29,0,0,1-2-.43c-.88-.57-1.74-1.1-2.6-1.61a3.07,3.07,0,0,1-1.41-1.69A2.83,2.83,0,0,1,178,128q4.62-11.59,1.22-30.7l-1.93-10.83c-.05-.27-.16-.3-.35-.1a2.75,2.75,0,0,1-2.05.78,2.8,2.8,0,0,1-2-.89c-.84-.73-1.74-1.45-2.69-2.16a2.11,2.11,0,0,1-.92-1.41,2.14,2.14,0,0,1,.7-2.11,56.23,56.23,0,0,0,13.76-19.12,5,5,0,0,1,3.89-3.18l3-.55a8.07,8.07,0,0,1,5.35.87,157.12,157.12,0,0,1,14.82,8.68,2.82,2.82,0,0,1,1.29,1.88,3,3,0,0,1-.38,2.27l-2,3.43a2.56,2.56,0,0,1-3.68.66l-2.67-2c-.06,0-.12,0-.16,0s-.07.11-.05.21Zm.06,13.32c0-.27-.18-.38-.39-.34L187,90.64a.36.36,0,0,0-.33.47l.38,2.17a.36.36,0,0,0,.48.33l16.06-2.88c.22,0,.3-.19.25-.46ZM187.61,73.46a.14.14,0,0,0,0,.17.13.13,0,0,0,.14.06l12.31-2.21a.12.12,0,0,0,.1-.1c0-.06,0-.11-.07-.16q-4.77-3.19-7.8-4.89a.35.35,0,0,0-.54.18Q189.63,70.36,187.61,73.46Zm.84,28.84c0,.28.13.39.4.34l16.3-2.92c.22,0,.3-.19.25-.46L205,96.85a.28.28,0,0,0-.37-.26l-16.15,2.89c-.27,0-.38.18-.34.39C188.21,100.46,188.33,101.27,188.45,102.3Zm21.72,14.49c0-.21-.19-.3-.46-.25l-13.11,2.35a.29.29,0,0,0-.26.38l.91,5.14a.29.29,0,0,0,.38.26l13.11-2.35c.27,0,.38-.18.35-.39Zm9.21-54.91a2.83,2.83,0,0,1,2.1.45,2.77,2.77,0,0,1,1.2,1.86l7.22,40.61a2.94,2.94,0,0,1-2.3,3.32l-3.52.63a2.81,2.81,0,0,1-2.18-.48,2.73,2.73,0,0,1-1.19-1.82l-7.23-40.61a2.75,2.75,0,0,1,.48-2.16,3,3,0,0,1,1.9-1.17Zm10.54-7.52a2.94,2.94,0,0,1,.43-2.19A2.68,2.68,0,0,1,232.2,51l3.84-.69a2.71,2.71,0,0,1,2.15.48,2.91,2.91,0,0,1,1.16,1.91l10.78,60.6a16.45,16.45,0,0,1,.16,6.47,6.23,6.23,0,0,1-2.77,3.85c-2,1.64-6,3-12,4.23l-.08,0a3.23,3.23,0,0,1-2.22-.43,3.53,3.53,0,0,1-1.64-1.78,36.79,36.79,0,0,0-2.24-4.24,1.93,1.93,0,0,1-.28-.69,1.87,1.87,0,0,1,1.51-2.18c2.56-.4,5.37-.88,8.41-1.42a2.54,2.54,0,0,0,1.52-.69,1.85,1.85,0,0,0,.23-1.53Z"/><path class="cls-8" d="M337.26,48.53a2.68,2.68,0,0,1,2.15.48,2.79,2.79,0,0,1,1.15,1.82l.33,1.85a2.94,2.94,0,0,1-.43,2.19,2.68,2.68,0,0,1-1.85,1.2L273.45,67.76a2.68,2.68,0,0,1-2.15-.49,2.89,2.89,0,0,1-1.16-1.9l-.33-1.85a2.84,2.84,0,0,1,.45-2.11,2.69,2.69,0,0,1,1.85-1.2l14.31-2.56c.26,0,.35-.2.25-.46q-1-1.81-2.7-4.49c-.14-.19-.09-.34.17-.44l-9,1.62a2.93,2.93,0,0,1-3.3-2.31l-.34-1.93a2.9,2.9,0,0,1,2.29-3.31L297,42.17a.36.36,0,0,0,.33-.47l-.2-1.12a2.78,2.78,0,0,1,2.3-3.31l4-.72a2.77,2.77,0,0,1,3.3,2.31l.2,1.12a.36.36,0,0,0,.47.33l23.27-4.17a2.68,2.68,0,0,1,2.1.49,2.73,2.73,0,0,1,1.19,1.82l.35,1.92a2.76,2.76,0,0,1-.49,2.12A2.73,2.73,0,0,1,332,43.68l-8.56,1.54h-.08a1,1,0,0,1,.74.41.66.66,0,0,1,0,.69c-.31.78-.94,2.3-1.91,4.57-.12.24-.05.34.21.29Zm-51.38,66.86a3.61,3.61,0,0,1-2.08,1.24,3.85,3.85,0,0,1-2.44-.26L278,114.89a1.86,1.86,0,0,1-1.08-1.46,2.06,2.06,0,0,1,.5-1.83A26.5,26.5,0,0,0,283,100.74a3.36,3.36,0,0,1,1.36-1.9,2.71,2.71,0,0,1,2.1-.46l3.05.45a2.68,2.68,0,0,1,1.86,1.2,2.5,2.5,0,0,1,.38,2.13A31.53,31.53,0,0,1,285.88,115.39ZM310,105.6l11.27-2a3.65,3.65,0,0,0,2.5-1.23,6.21,6.21,0,0,0,.48-3.36,2,2,0,0,1,.74-1.62,2,2,0,0,1,1.78-.41,21.09,21.09,0,0,0,3.16.6,3.24,3.24,0,0,1,2.11,1,3.14,3.14,0,0,1,.92,2.12q-.07,5.15-2.15,7.38t-7.2,3.16l-13.19,2.36q-7.68,1.38-10.65-.28t-4-7.61l-1-5.77a2.85,2.85,0,0,1,.47-2.2A2.78,2.78,0,0,1,297,96.5l5.92-1.06a.61.61,0,0,1-.45-.41.68.68,0,0,1,.1-.6l2-2.84c.05,0,.06,0,0-.13s-.09-.11-.14-.1l-17.27,3.1a2.79,2.79,0,0,1-2.19-.48,2.74,2.74,0,0,1-1.19-1.81l-3.42-19.26a2.72,2.72,0,0,1,.49-2.12,2.82,2.82,0,0,1,1.88-1.21l48.61-8.72a2.91,2.91,0,0,1,3.3,2.31L338,82.43a2.76,2.76,0,0,1-.49,2.12,2.73,2.73,0,0,1-1.81,1.19L312.29,90c-.05,0-.07.06-.05.17a52.12,52.12,0,0,1,6.5,2.23,2.16,2.16,0,0,1,1.3,1.51,2.29,2.29,0,0,1-.33,2l-1.56,2.36a2.81,2.81,0,0,1-1.88,1.28,3.66,3.66,0,0,1-2.3-.2,52.65,52.65,0,0,0-9.89-3.62q-.34-.09-.27.3l1.4,7.87a3.07,3.07,0,0,0,.6,1.55,1.86,1.86,0,0,0,1.28.47A14.3,14.3,0,0,0,310,105.6Zm-19.5-31.21a.29.29,0,0,0-.26.38l.5,2.81c.05.27.18.38.39.35l34.7-6.23c.21,0,.29-.19.24-.45l-.5-2.81a.28.28,0,0,0-.37-.27Zm1.63,9.15c-.21,0-.3.2-.25.46l.53,3a.29.29,0,0,0,.38.27L327.45,81a.29.29,0,0,0,.27-.37l-.53-3c-.05-.27-.18-.39-.39-.35Zm21.6-36.25c.07-.24,0-.33-.22-.3l-19.59,3.52c-.26,0-.32.17-.18.36Q295,52.8,296,54.69a.8.8,0,0,1,.09.73.89.89,0,0,1-.53.51V56l17.91-3.21v-.08a.77.77,0,0,1-.63-.3.85.85,0,0,1-.13-.72C313.16,49.84,313.5,48.37,313.7,47.29Zm18.22,47.25a2,2,0,0,1-.89-1.33,2,2,0,0,1,.71-2l2.3-1.9a3.88,3.88,0,0,1,1.9-.92.94.94,0,0,1,.41,0,3.62,3.62,0,0,1,2.41.57,66.21,66.21,0,0,1,11.64,8.84,2.7,2.7,0,0,1,.65,1.37,2.93,2.93,0,0,1,0,.66,2.74,2.74,0,0,1-1,2l-2.79,2.4a3.46,3.46,0,0,1-1.38.58,4,4,0,0,1-.73,0,3.07,3.07,0,0,1-2-1A76.09,76.09,0,0,0,331.92,94.54Z"/><path class="cls-8" d="M367.66,44.65a2.46,2.46,0,0,1,.54-2,2.42,2.42,0,0,1,1.89-1l.56-.1a3.34,3.34,0,0,1,2.24.71,2.85,2.85,0,0,1,1.13,2,62.4,62.4,0,0,1,.32,18.5,2.59,2.59,0,0,1-1.25,1.76,2.67,2.67,0,0,1-2.17.34l-.95-.24a2.73,2.73,0,0,1-1.71-1.27,3,3,0,0,1-.44-1.08,4.4,4.4,0,0,1,0-1.15A57.49,57.49,0,0,0,367.66,44.65Zm26.49,3.78a3.28,3.28,0,0,1,.05,2.35,3.53,3.53,0,0,1-1.52,1.89l-.66.45a1.85,1.85,0,0,1-1.89.26,2.5,2.5,0,0,1-1.45-1.4,83.87,83.87,0,0,0-4.16-8.53c0-.05-.06-.05-.16,0l9.44,53.05a2.84,2.84,0,0,1-.45,2.11,2.66,2.66,0,0,1-1.85,1.2l-3.59.65a2.91,2.91,0,0,1-3.3-2.31L372,27.15a2.73,2.73,0,0,1,.48-2.16,2.77,2.77,0,0,1,1.82-1.15l3.6-.65a2.8,2.8,0,0,1,2.14.44,2.76,2.76,0,0,1,1.15,1.87l2.16,12.12c0,.21.18.27.44.17l.75-.47a3.11,3.11,0,0,1,2.24-.36,2.86,2.86,0,0,1,1.88,1.28A69.25,69.25,0,0,1,394.15,48.43ZM438.24,79.2c0,.28.09.4.31.36l8.15-1.46a2.81,2.81,0,0,1,2.1.45,2.7,2.7,0,0,1,1.2,1.86l.6,3.37a2.75,2.75,0,0,1-.48,2.16,2.81,2.81,0,0,1-1.82,1.15l-46.93,8.42a2.79,2.79,0,0,1-2.1-.46,2.68,2.68,0,0,1-1.19-1.85l-.6-3.37a2.66,2.66,0,0,1,.48-2.16,2.75,2.75,0,0,1,1.81-1.15l27.67-5a.45.45,0,0,0,.4-.49q-.13-15.63-1.41-35.28c0-.27-.17-.38-.39-.35l-15.11,2.71c-.21,0-.32.2-.32.48q0,13.9-.28,23.49a3.47,3.47,0,0,1-.94,2.15,3.15,3.15,0,0,1-2,1l-4.06.4a2.39,2.39,0,0,1-2-.68,2.28,2.28,0,0,1-.73-2q.86-18,0-39.84c0-.22-.11-.31-.38-.26l-7.67,1.38a2.84,2.84,0,0,1-2.19-.48,2.8,2.8,0,0,1-1.2-1.9l-.59-3.29a2.77,2.77,0,0,1,.49-2.12,2.81,2.81,0,0,1,1.89-1.2l43.49-7.8a2.9,2.9,0,0,1,3.38,2.29l.58,3.29a2.81,2.81,0,0,1-.47,2.2A2.85,2.85,0,0,1,436,26.51L410.7,31.05c-.27.05-.39.18-.35.39q.13,5.37.12,7.6c0,.23.11.32.37.27l22.07-4a2.49,2.49,0,0,1,2,.51,2.6,2.6,0,0,1,1,1.84Q437.85,62.63,438.24,79.2ZM424.77,68a2.86,2.86,0,0,1,1.46,1.73,2.94,2.94,0,0,1-.17,2.27L425,74.13a2.3,2.3,0,0,1-1.59,1.28l-.32.06a2.5,2.5,0,0,1-1.79-.34q-3-1.62-7.56-3.54a2.48,2.48,0,0,1-1.5-1.47c0-.16-.06-.32-.08-.48A2.49,2.49,0,0,1,412.4,68l.82-1.47A3.11,3.11,0,0,1,415,65a3.38,3.38,0,0,1,2.34-.09A75.14,75.14,0,0,1,424.77,68Zm-1.11-15a2.76,2.76,0,0,1,1.59,1.54,2.72,2.72,0,0,1,.2.63,2.84,2.84,0,0,1-.21,1.61l-.86,2.14a2.8,2.8,0,0,1-1.54,1.52l-.56.1a2.87,2.87,0,0,1-1.69-.2c-1.89-.76-4.09-1.53-6.59-2.29a2.45,2.45,0,0,1-1.55-1.3,4,4,0,0,1-.21-.71,2.4,2.4,0,0,1,.17-1.35l.78-1.63a3.39,3.39,0,0,1,1.58-1.78,6.33,6.33,0,0,1,1-.25,3.66,3.66,0,0,1,1.4,0C419.6,51.6,421.78,52.25,423.66,52.91Z"/><path class="cls-8" d="M515,66.6a.28.28,0,0,0,.37.26l27.67-5a2.79,2.79,0,0,1,2.19.48,2.84,2.84,0,0,1,1.2,1.89l.48,2.73a2.67,2.67,0,0,1-.48,2.16,2.94,2.94,0,0,1-1.89,1.17L478.11,82.24a2.87,2.87,0,0,1-2.18-.44,2.69,2.69,0,0,1-1.2-1.85l-.48-2.73a2.81,2.81,0,0,1,.47-2.2,2.85,2.85,0,0,1,1.89-1.21l28-5c.27,0,.38-.17.35-.39l-.88-4.89a.35.35,0,0,0-.47-.33l-17.9,3.21A2.9,2.9,0,0,1,483.5,66a2.68,2.68,0,0,1-1.19-1.85L482,62.17a2.81,2.81,0,0,1,.47-2.2,2.85,2.85,0,0,1,1.89-1.21l17.91-3.21c.26,0,.38-.18.34-.39l-.77-4.34c0-.21-.19-.29-.46-.25l-16.63,3a.77.77,0,0,0-.51.34,55.08,55.08,0,0,1-4.21,7,2.91,2.91,0,0,1-1.89,1.21,3.17,3.17,0,0,1-2.33-.36q-2.1-1.12-4.07-2a2.09,2.09,0,0,1-1.19-1.61,2,2,0,0,1,.44-1.65,45.07,45.07,0,0,0,8.58-16.7c.07-.23,0-.32-.29-.27l-.64.11a2.84,2.84,0,0,1-2.11-.45,2.7,2.7,0,0,1-1.19-1.86l-4.43-24.88a2.75,2.75,0,0,1,.48-2.16,2.81,2.81,0,0,1,1.82-1.15l50.37-9a2.74,2.74,0,0,1,2.1.45,2.68,2.68,0,0,1,1.19,1.85l4.43,24.89a2.71,2.71,0,0,1-.48,2.15A2.82,2.82,0,0,1,529,30.55l-45.81,8.21,0,.16,3.94.37a2.34,2.34,0,0,1,1.72,1.06,2.44,2.44,0,0,1,.32,2.06c-.21.64-.44,1.23-.67,1.77-.07.24,0,.33.3.28l11.11-2c.27,0,.38-.18.34-.39l-.33-1.85a2.84,2.84,0,0,1,.45-2.11,2.66,2.66,0,0,1,1.85-1.2l4.4-.79a2.84,2.84,0,0,1,2.19.48A2.74,2.74,0,0,1,510,38.42l.32,1.85a.29.29,0,0,0,.38.26l22.55-4a2.72,2.72,0,0,1,2.1.49,2.84,2.84,0,0,1,1.21,1.9L537,41.2a2.8,2.8,0,0,1-.47,2.2,2.75,2.75,0,0,1-1.81,1.2l-22.55,4a.29.29,0,0,0-.26.38l.77,4.33a.3.3,0,0,0,.38.27l18.71-3.36a2.84,2.84,0,0,1,2.19.48,2.81,2.81,0,0,1,1.2,1.89l.34,1.93a2.75,2.75,0,0,1-.48,2.16,3,3,0,0,1-1.9,1.17l-18.7,3.35c-.22,0-.3.19-.25.46ZM481.69,15.17a.29.29,0,0,0-.26.38l.64,3.61c.05.27.18.39.39.35L518,13.14c.21,0,.29-.19.24-.46l-.64-3.61a.29.29,0,0,0-.38-.26Zm2,11.24a.3.3,0,0,0-.27.38l.68,3.77a.27.27,0,0,0,.37.26L520,24.46a.29.29,0,0,0,.26-.38l-.67-3.77a.3.3,0,0,0-.38-.27Z"/><polygon class="cls-8" points="471.74 99.12 472.93 104.71 478.2 106.89 473.27 109.77 472.83 115.47 468.59 111.65 463.05 113 465.36 107.76 462.37 102.89 468.04 103.47 471.74 99.12"/></g></g></svg>