<svg id="圖層_1" data-name="圖層 1" xmlns="http://www.w3.org/2000/svg" viewBox="0 0 8 300"><defs><style>.cls-1{fill:#68a8cf;}</style></defs><title>新網頁使用元件</title><ellipse class="cls-1" cx="4" cy="4.01" rx="4" ry="4.01"/><ellipse class="cls-1" cx="4" cy="295.99" rx="4" ry="4.01"/><ellipse class="cls-1" cx="4" cy="102.84" rx="3.5" ry="3.51"/><ellipse class="cls-1" cx="4" cy="198.16" rx="3.5" ry="3.51"/><path class="cls-1" d="M4,288a1.5,1.5,0,0,1-1.5-1.51V208.31a1.5,1.5,0,0,1,3,0v78.14A1.5,1.5,0,0,1,4,288Z"/><path class="cls-1" d="M4,189.43a1.5,1.5,0,0,1-1.5-1.5V112.34a1.5,1.5,0,1,1,3,0v75.59A1.5,1.5,0,0,1,4,189.43Z"/><path class="cls-1" d="M4,94.84a1.5,1.5,0,0,1-1.5-1.5V13.15a1.5,1.5,0,1,1,3,0V93.34A1.5,1.5,0,0,1,4,94.84Z"/></svg>