<svg id="圖層_1" data-name="圖層 1" xmlns="http://www.w3.org/2000/svg" viewBox="0 0 100 120"><defs><style>.cls-1{fill:#1a1a1a;}.cls-2{fill:#fff;}</style></defs><title>新網頁使用元件</title><polygon class="cls-1" points="48.67 1.08 0.92 29.36 2.25 88.27 51.33 118.92 99.08 90.64 97.75 31.73 48.67 1.08"/><path class="cls-2" d="M51.32,120l-50-31.19L0,28.83,48.68,0l50,31.2,1.36,60ZM3.15,87.74l48.2,30.1L98.16,90.11,96.85,32.26,48.65,2.16,1.84,29.89Z"/><path class="cls-2" d="M35.13,48.32c0,1.38-.2,2.21-1,2.71a6.47,6.47,0,0,1-3.4.55,10.46,10.46,0,0,0-.78-2.88c.88,0,1.78,0,2.08,0s.41-.1.41-.45v-5H29.86a26.87,26.87,0,0,1-1.71,8.31,11.24,11.24,0,0,0-2.35-1.38c1.52-3.42,1.62-8.43,1.62-12.1V29h7.71Zm-2.7-7.83v-3H30v.68c0,.75,0,1.53,0,2.36ZM30,31.78v2.91h2.4V31.78Zm18.46,6.45a23.37,23.37,0,0,1-2.94,8.41,11.91,11.91,0,0,0,3.62,2.64,12.3,12.3,0,0,0-1.81,2.33,15.47,15.47,0,0,1-3.47-2.74,13.79,13.79,0,0,1-3.21,2.69,9.26,9.26,0,0,0-1.44-2v2.06H36.47V29H47.73v4.85c0,1.3-.27,2-1.3,2.41a13.05,13.05,0,0,1-4.21.37,10.62,10.62,0,0,0-.85-2.51c1.22.08,2.66.08,3.06.05s.51-.1.51-.4v-2h-5.7v5.95h7.07l.44-.1Zm-9.25,11a11.39,11.39,0,0,0,3-2.57,25.84,25.84,0,0,1-2.84-6.22h-.14Zm2.62-8.79a19.94,19.94,0,0,0,1.88,3.92,17.77,17.77,0,0,0,1.59-3.92Z"/><path class="cls-2" d="M72.72,33.13a12.54,12.54,0,0,1-2.45,3.67,19,19,0,0,0,4.5,1.48,11.39,11.39,0,0,0-1.83,2.54,17.51,17.51,0,0,1-5-2.16,19.47,19.47,0,0,1-5,2.11,9.87,9.87,0,0,0-.68-1.06,30.8,30.8,0,0,1-1.2,4.19l-2-.93a32.63,32.63,0,0,0,.78-3.46h-1.3v8.84c0,1.35-.19,2.16-1.05,2.61a7.14,7.14,0,0,1-3.45.52,9.93,9.93,0,0,0-.83-2.83c.9,0,1.88,0,2.2,0s.39-.07.39-.37V42.92a15.09,15.09,0,0,1-3.06,4.65,16.64,16.64,0,0,0-1.32-2.89A15.81,15.81,0,0,0,55,39.51H51.89V36.9h5.6a35.65,35.65,0,0,0-4.72-2.44l1.84-1.9c.58.22,1.27.5,1.93.8a15.31,15.31,0,0,0,1.54-1.58H52.21V29.27h7.9l.44-.1,1.86,1.2a18.33,18.33,0,0,1-3.57,4.14,14.57,14.57,0,0,1,1.79,1.11l-1.2,1.28H60.6l.39-.13,1.76.61-.09.57a14.42,14.42,0,0,0,3-1.15,15.22,15.22,0,0,1-1.74-2.08,13.91,13.91,0,0,1-1.1,1.08,20.11,20.11,0,0,0-2.37-1.69,14.79,14.79,0,0,0,4.67-6l2.72.75a18.25,18.25,0,0,1-.9,1.76h7.22v2.48Zm1.15,9s-.05.78-.1,1.13c-.39,4.34-.83,6.28-1.54,7.08a2.67,2.67,0,0,1-1.79.88,19,19,0,0,1-2.74,0,6.66,6.66,0,0,0-.78-2.76,19.89,19.89,0,0,0,2.1.12,1,1,0,0,0,.78-.27c.35-.33.66-1.41.93-3.74H67.89a9.92,9.92,0,0,1-6.43,7,8.48,8.48,0,0,0-1.69-2.3c2.94-1.11,4.36-2.72,5.11-4.67h-3V42.12H65.5a22.38,22.38,0,0,0,.24-2.23h2.91c-.07.75-.14,1.5-.24,2.23Zm-8-9a9.75,9.75,0,0,0,2,2.14,7.61,7.61,0,0,0,1.62-2.14Z"/><path class="cls-2" d="M35.44,80.48c-3,1.16-6.14,2.34-8.59,3.24l-1.2-2.86c.93-.28,2.11-.63,3.38-1V70.19H26.31V67.43h8.37v2.76H32V78.9l3-1Zm3.23,2.76,2.26,1.64a22.8,22.8,0,0,1-6.34,3.29,14.26,14.26,0,0,0-1.77-2,19.5,19.5,0,0,0,5.66-2.89H36V70h3.84c.12-.58.22-1.18.32-1.73H35V65.75H48.86v2.51H43.45c-.2.6-.42,1.18-.61,1.73H48V83.24Zm0-9.46h6.41V72.2H38.7Zm0,3.62h6.41V75.79H38.7Zm0,3.66h6.41V79.45H38.7Zm5.7,2.26a35,35,0,0,1,4.87,3.14L47,88.22a35.16,35.16,0,0,0-4.72-3.32Z"/><path class="cls-2" d="M71.69,66.1V87.91H68.6V86.36H57.27v1.55H54.34V66.1ZM57.27,69V71.9H68.6V69Zm0,5.7v3H68.6v-3ZM68.6,83.45v-3H57.27v3Z"/></svg>