<svg xmlns="http://www.w3.org/2000/svg" width="175.751" height="168.758" viewBox="0 0 175.751 168.758">
    <defs>
        <style>
            .cls-1{fill:#ffcb57}.cls-2{fill:#ff933b}.cls-3{fill:#ff6178}.cls-4{fill:#7d2634}.cls-5{fill:#ffbf31}
        </style>
    </defs>
    <g id="COMET" transform="translate(-3902.376 -1786.65)">
        <g id="Group_133" data-name="Group 133" transform="translate(3902.376 1786.65)">
            <path id="Path_163" d="M3911.833 1970.682c-12.04 12.04-12.668 30.932-1.4 42.2s30.156 10.636 42.2-1.4l37.995-37.995-40.793-40.793" class="cls-1" data-name="Path 163" transform="translate(-3902.376 -1852.175)"/>
            <path id="Path_164" d="M4097.7 1913.3a4.944 4.944 0 0 1 0 6.993l-45.951 45.951a4.944 4.944 0 0 1-6.993 0 4.945 4.945 0 0 1 0-6.993l45.944-45.951a4.944 4.944 0 0 1 7 0z" class="cls-1" data-name="Path 164" transform="translate(-3965.609 -1842.824)"/>
            <path id="Path_165" d="M3984.947 1952.58l26.783-26.783a4.533 4.533 0 0 1-6.41-6.41l-26.783 26.783z" class="cls-1" data-name="Path 165" transform="translate(-3936.549 -1846.207)"/>
            <path id="Path_166" d="M4038.891 1975.165l23.669-23.67a4.574 4.574 0 0 1-6.411-6.41l-23.669 23.669z" class="cls-1" data-name="Path 166" transform="translate(-3960.752 -1857.738)"/>
            <path id="Path_167" d="M4111.77 1821.2a4.945 4.945 0 0 1 0 6.993l-82.077 82.077a4.945 4.945 0 0 1-6.993 0 4.945 4.945 0 0 1 0-6.993l82.078-82.077a4.944 4.944 0 0 1 6.992 0z" class="cls-1" data-name="Path 167" transform="translate(-3955.714 -1801.5)"/>
            <path id="Path_168" d="M4046.362 1833.918l-.033-.034a4.922 4.922 0 0 0-6.96 0l-55.95 55.95a4.921 4.921 0 0 0 0 6.959l.034.034a4.921 4.921 0 0 0 6.959 0l55.95-55.95a4.921 4.921 0 0 0 0-6.959z" class="cls-1" data-name="Path 168" transform="translate(-3938.092 -1807.197)"/>
            <path id="Path_169" d="M4054.775 1879.688a4.944 4.944 0 0 0-6.993 0l-49.065 49.065a4.945 4.945 0 0 0 0 6.993 4.945 4.945 0 0 0 6.993 0l49.064-49.065a4.944 4.944 0 0 0 .001-6.993z" class="cls-1" data-name="Path 169" transform="translate(-3944.953 -1827.745)"/>
            <path id="Path_170" d="M4164.835 1878.517a4.163 4.163 0 0 1 0 5.889l-7.748 7.749a4.163 4.163 0 0 1-5.889 0 4.164 4.164 0 0 1 0-5.889l7.749-7.748a4.162 4.162 0 0 1 5.888-.001z" class="cls-1" data-name="Path 170" transform="translate(-4013.472 -1827.322)"/>
            <path id="Path_171" d="M4209.392 1787.653a3.427 3.427 0 0 1 0 4.847l-6.376 6.376a3.428 3.428 0 0 1-4.847 0 3.428 3.428 0 0 1 0-4.846l6.376-6.377a3.427 3.427 0 0 1 4.847 0z" class="cls-1" data-name="Path 171" transform="translate(-4034.645 -1786.65)"/>
            <path id="Path_172" d="M4127.161 1819.258a3.425 3.425 0 0 1 0 4.846l-6.376 6.376a3.428 3.428 0 0 1-4.847 0 3.427 3.427 0 0 1 0-4.846l6.376-6.376a3.426 3.426 0 0 1 4.847 0z" class="cls-1" data-name="Path 172" transform="translate(-3997.749 -1800.83)"/>
        </g>
        <g id="Group_134" data-name="Group 134" transform="translate(3921.532 1852.764)">
            <path id="Path_173" d="M3997.39 2017.455a4.446 4.446 0 0 0 6.267-.293l33.481-33.481a4.243 4.243 0 1 0-5.975-5.975l-33.481 33.481a4.446 4.446 0 0 0-.292 6.268z" class="cls-2" data-name="Path 173" transform="translate(-3963.644 -1937.839)"/>
            <path id="Path_174" d="M4023.874 1986.744a4.243 4.243 0 1 1-5.976-5.974l-22.283 22.283 5.975 5.974z" class="cls-2" data-name="Path 174" transform="translate(-3963.367 -1939.863)"/>
            <path id="Path_175" d="M3938.278 1959.029a4.447 4.447 0 0 0 6.268-.293l10.858-10.859a4.243 4.243 0 1 0 5.974 5.975l-3.958 3.958 5.975 5.975 10.067-10.067a4.243 4.243 0 1 0 5.975 5.975l45.7-45.7a4.243 4.243 0 1 0-5.975-5.975l-23.3 23.3a4.243 4.243 0 1 1-5.975-5.974l4.977-4.978a4.243 4.243 0 1 0-5.974-5.974l-18.551 18.551a4.243 4.243 0 1 1-5.974-5.975l-25.79 25.789a4.447 4.447 0 0 0-.297 6.272z" class="cls-2" data-name="Path 175" transform="translate(-3937.122 -1906.572)"/>
        </g>
        <path id="Path_176" d="M3915.426 1978.325a25.349 25.349 0 1 0 37.7 33.785 3.725 3.725 0 0 0 .819-.6l28.7-28.7a4.233 4.233 0 0 0-5.975-5.974l-6.011 6.011a4.233 4.233 0 0 1-5.975-5.975l28.7-28.7a4.232 4.232 0 0 0-5.975-5.975l-19.972 19.972a4.233 4.233 0 0 1-5.975-5.974l4.266-4.267a4.232 4.232 0 0 0-5.975-5.975l-15.9 15.9a4.233 4.233 0 0 1-5.974-5.975l-22.105 22.106c-.022.022-.036.049-.058.072-.101.092-.198.177-.29.269z" class="cls-3" data-name="Path 176" transform="translate(-2.524 -69.293)"/>
        <circle id="Ellipse_11" cx="19.23" cy="19.23" r="19.23" class="cls-4" data-name="Ellipse 11" transform="translate(3911.596 1907.727)"/>
        <circle id="Ellipse_12" cx="2.622" cy="2.622" r="2.622" class="cls-5" data-name="Ellipse 12" transform="translate(3918.315 1920.626)"/>
        <circle id="Ellipse_13" cx="2.622" cy="2.622" r="2.622" class="cls-5" data-name="Ellipse 13" transform="translate(3928.822 1934.842)"/>
        <path id="Path_177" d="M3964.359 2038.071a3.5 3.5 0 1 1 0 4.945 3.5 3.5 0 0 1 0-4.945z" class="cls-5" data-name="Path 177" transform="translate(-27.351 -112.35)"/>
    </g>
</svg>
