<svg xmlns="http://www.w3.org/2000/svg" width="200" height="200" viewBox="0 0 200 200"><defs><style>.a{fill:#fff;}.b{fill:#ffcb57;}.c{fill:#ff933b;}.d{fill:#ff6178;}.e{fill:#7d2634;}.f{fill:#ffbf31;}</style></defs><g transform="translate(-1239 -1749)"><rect class="a" width="200" height="200" transform="translate(1239 1749)"/><g transform="translate(-2651.376 -21.65)"><g transform="translate(3902.376 1786.65)"><path class="b" d="M3911.833,1970.682c-12.04,12.04-12.668,30.932-1.4,42.2s30.156,10.636,42.2-1.4l37.995-37.995-40.793-40.793" transform="translate(-3902.376 -1852.175)"/><path class="b" d="M4097.7,1913.3h0a4.944,4.944,0,0,1,0,6.993l-45.951,45.951a4.944,4.944,0,0,1-6.993,0h0a4.945,4.945,0,0,1,0-6.993L4090.7,1913.3A4.944,4.944,0,0,1,4097.7,1913.3Z" transform="translate(-3965.609 -1842.824)"/><path class="b" d="M3984.947,1952.58l26.783-26.783a4.533,4.533,0,0,1-6.41-6.41l-26.783,26.783Z" transform="translate(-3936.549 -1846.207)"/><path class="b" d="M4038.891,1975.165l23.669-23.67a4.574,4.574,0,0,1-6.411-6.41l-23.669,23.669Z" transform="translate(-3960.752 -1857.738)"/><path class="b" d="M4111.77,1821.2h0a4.945,4.945,0,0,1,0,6.993l-82.077,82.077a4.945,4.945,0,0,1-6.993,0h0a4.945,4.945,0,0,1,0-6.993l82.078-82.077A4.944,4.944,0,0,1,4111.77,1821.2Z" transform="translate(-3955.714 -1801.5)"/><path class="b" d="M4046.362,1833.918l-.033-.034a4.922,4.922,0,0,0-6.96,0l-55.95,55.95a4.921,4.921,0,0,0,0,6.959l.034.034a4.921,4.921,0,0,0,6.959,0l55.95-55.95A4.921,4.921,0,0,0,4046.362,1833.918Z" transform="translate(-3938.092 -1807.197)"/><path class="b" d="M4054.775,1879.688h0a4.944,4.944,0,0,0-6.993,0l-49.065,49.065a4.945,4.945,0,0,0,0,6.993h0a4.945,4.945,0,0,0,6.993,0l49.064-49.065A4.944,4.944,0,0,0,4054.775,1879.688Z" transform="translate(-3944.953 -1827.745)"/><path class="b" d="M4164.835,1878.517h0a4.163,4.163,0,0,1,0,5.889l-7.748,7.749a4.163,4.163,0,0,1-5.889,0h0a4.164,4.164,0,0,1,0-5.889l7.749-7.748A4.162,4.162,0,0,1,4164.835,1878.517Z" transform="translate(-4013.472 -1827.322)"/><path class="b" d="M4209.392,1787.653h0a3.427,3.427,0,0,1,0,4.847l-6.376,6.376a3.428,3.428,0,0,1-4.847,0h0a3.428,3.428,0,0,1,0-4.846l6.376-6.377A3.427,3.427,0,0,1,4209.392,1787.653Z" transform="translate(-4034.645 -1786.65)"/><path class="b" d="M4127.161,1819.258h0a3.425,3.425,0,0,1,0,4.846l-6.376,6.376a3.428,3.428,0,0,1-4.847,0h0a3.427,3.427,0,0,1,0-4.846l6.376-6.376A3.426,3.426,0,0,1,4127.161,1819.258Z" transform="translate(-3997.749 -1800.83)"/></g><g transform="translate(3921.532 1852.764)"><path class="c" d="M3997.39,2017.455a4.446,4.446,0,0,0,6.267-.293l33.481-33.481a4.243,4.243,0,1,0-5.975-5.975l-33.481,33.481A4.446,4.446,0,0,0,3997.39,2017.455Z" transform="translate(-3963.644 -1937.839)"/><path class="c" d="M4023.874,1986.744a4.243,4.243,0,1,1-5.976-5.974l-22.283,22.283,5.975,5.974Z" transform="translate(-3963.367 -1939.863)"/><path class="c" d="M3938.278,1959.029a4.447,4.447,0,0,0,6.268-.293l10.858-10.859a4.243,4.243,0,1,0,5.974,5.975l-3.958,3.958,5.975,5.975,10.067-10.067a4.243,4.243,0,1,0,5.975,5.975l45.7-45.7a4.243,4.243,0,1,0-5.975-5.975l-23.3,23.3a4.243,4.243,0,1,1-5.975-5.974l4.977-4.978a4.243,4.243,0,1,0-5.974-5.974l-18.551,18.551a4.243,4.243,0,1,1-5.974-5.975l-25.79,25.789A4.447,4.447,0,0,0,3938.278,1959.029Z" transform="translate(-3937.122 -1906.572)"/></g><path class="d" d="M3915.426,1978.325a25.349,25.349,0,1,0,37.7,33.785,3.725,3.725,0,0,0,.819-.6l28.7-28.7a4.233,4.233,0,0,0-5.975-5.974l-6.011,6.011a4.233,4.233,0,0,1-5.975-5.975l28.7-28.7a4.232,4.232,0,0,0-5.975-5.975l-19.972,19.972a4.233,4.233,0,0,1-5.975-5.974l4.266-4.267a4.232,4.232,0,0,0-5.975-5.975l-15.9,15.9a4.233,4.233,0,0,1-5.974-5.975l-22.105,22.106c-.022.022-.036.049-.058.072C3915.615,1978.148,3915.518,1978.233,3915.426,1978.325Z" transform="translate(-2.524 -69.293)"/><circle class="e" cx="19.23" cy="19.23" r="19.23" transform="translate(3911.596 1907.727)"/><circle class="f" cx="2.622" cy="2.622" r="2.622" transform="translate(3918.315 1920.626)"/><circle class="f" cx="2.622" cy="2.622" r="2.622" transform="translate(3928.822 1934.842)"/><path class="f" d="M3964.359,2038.071a3.5,3.5,0,1,1,0,4.945A3.5,3.5,0,0,1,3964.359,2038.071Z" transform="translate(-27.351 -112.35)"/></g></g></svg>