<svg xmlns="http://www.w3.org/2000/svg" width="159.216" height="192.986" viewBox="0 0 159.216 192.986">
    <defs>
        <style>
            .cls-1{fill:#76ffff}.cls-2{fill:#59c8e2}.cls-3{fill:#3aa471}.cls-4{fill:#ffd261}.cls-5{fill:#e8a92d}
        </style>
    </defs>
    <g id="EARTH" transform="translate(-3041.194 -620.906)">
        <g id="Group_125" data-name="Group 125" transform="translate(2996 610)">
            <g id="Group_124" data-name="Group 124" transform="translate(45.194 45.005)">
                <path id="Path_151" d="M3071.171 761.494a79.442 79.442 0 1 1 77.18 81.642 79.441 79.441 0 0 1-77.18-81.642z" class="cls-1" data-name="Path 151" transform="translate(-3070.808 -684.281)"/>
                <g id="Group_122" data-name="Group 122" transform="translate(56.503 5.034)">
                    <path id="Path_152" d="M3255.74 912.8a6.44 6.44 0 0 0-.924 12.805 79.565 79.565 0 0 0 18.624-12.308z" class="cls-2" data-name="Path 152" transform="translate(-3197.548 -779.377)"/>
                    <path id="Path_153" d="M3242.431 800.33l-21.178-.594c-3.908-.11-7.154 2.525-7.253 6.078s2.992 6.365 6.9 6.476l20.825.585a6.832 6.832 0 0 0-4.607 6.371c-.1 3.552 2.36 6.727 5.5 6.815l8.357.236a79.444 79.444 0 0 0-7.314-103.061 5.242 5.242 0 0 1-3.282 1.061l-41.5-1.165a6.432 6.432 0 0 0-.361 12.852l42.115 1.182a6.486 6.486 0 0 1 3.6 6.224c-.1 3.551-2.637 6.365-5.666 6.281l-40.179-1.128a6.429 6.429 0 1 0-.362 12.853l30.825.865a6.441 6.441 0 0 1 4.432 6.176 6.15 6.15 0 0 1-5.377 6.061l-56.224-1.578c-4.222-.119-7.728 2.66-7.828 6.211s3.244 6.522 7.468 6.639l74 2.079c2.392 1.562 4.052 3.465 3.976 6.153a6.638 6.638 0 0 1-6.867 6.328z" class="cls-2" data-name="Path 153" transform="translate(-3163.85 -704.626)"/>
                    <path id="Path_154" d="M3252.041 699.109l9.373.262a79.073 79.073 0 0 0-13.83-6.782q-.528.049-1.053.1c-.021 3.485 2.417 6.334 5.51 6.42z" class="cls-2" data-name="Path 154" transform="translate(-3196.437 -692.59)"/>
                </g>
                <g id="Group_123" data-name="Group 123" transform="translate(0 7.879)">
                    <path id="Path_155" d="M3132.554 710.128a6.383 6.383 0 0 0 6.392-6.323 6.31 6.31 0 0 0-5.466-6.519 79.948 79.948 0 0 0-18.626 12.345z" class="cls-3" data-name="Path 155" transform="translate(-3088.037 -697.286)"/>
                    <path id="Path_156" d="M3094.723 763.841l21.178.594c3.909.111 7.154-2.525 7.253-6.077s-2.992-6.366-6.9-6.476l-20.828-.586a6.834 6.834 0 0 0 4.609-6.37c.1-3.552-2.36-6.726-5.5-6.814l-8.359-.236a79.4 79.4 0 0 0 7.316 103.024 5.192 5.192 0 0 1 3.281-1.026l41.5 1.165a6.432 6.432 0 0 0 .362-12.851L3096.524 827a6.485 6.485 0 0 1-3.6-6.22c.1-3.553 2.637-6.37 5.666-6.283l40.179 1.128a6.428 6.428 0 1 0 .361-12.851l-30.824-.866a6.437 6.437 0 0 1-4.429-6.176 6.152 6.152 0 0 1 5.377-6.062l56.221 1.58c4.224.117 7.729-2.659 7.828-6.21s-3.242-6.524-7.466-6.642l-74.006-2.079c-2.389-1.562-4.051-3.464-3.974-6.152a6.637 6.637 0 0 1 6.866-6.326z" class="cls-3" data-name="Path 156" transform="translate(-3070.593 -713.284)"/>
                    <path id="Path_157" d="M3142.246 927.759l-9.374-.264a93.217 93.217 0 0 0 13.83 6.713c.352-.035.7-.033 1.053-.071.022-3.479-2.414-6.291-5.509-6.378z" class="cls-3" data-name="Path 157" transform="translate(-3095.138 -788.016)"/>
                </g>
            </g>
        </g>
        <g id="Group_127" data-name="Group 127" transform="translate(3050.302 620.906)">
            <g id="Group_126" data-name="Group 126">
                <path id="Path_158" d="M3107.9 639.136A11.136 11.136 0 1 1 3096.761 628a11.136 11.136 0 0 1 11.139 11.136z" class="cls-4" data-name="Path 158" transform="translate(-3085.626 -628)"/>
            </g>
            <path id="Path_159" d="M3101.813 630.176a10.328 10.328 0 0 1 2.323 6.551c-.02 7.933-4.66 10.408-10.408 10.408a10.4 10.4 0 0 1-2.934-.422 10.407 10.407 0 1 0 11.02-16.536z" class="cls-5" data-name="Path 159" transform="translate(-3087.663 -628.858)"/>
        </g>
    </g>
</svg>
