<svg xmlns="http://www.w3.org/2000/svg" width="200" height="200" viewBox="0 0 200 200"><defs><style>.a{fill:#fff;}.b{fill:#76ffff;}.c{fill:#59c8e2;}.d{fill:#3aa471;}.e{fill:#ffd261;}.f{fill:#e8a92d;}</style></defs><g transform="translate(-456 -1749)"><rect class="a" width="200" height="200" transform="translate(456 1749)"/><g transform="translate(-2565.194 1132.094)"><g transform="translate(2996 610)"><g transform="translate(45.194 45.005)"><path class="b" d="M3071.171,761.494a79.442,79.442,0,1,1,77.18,81.642A79.441,79.441,0,0,1,3071.171,761.494Z" transform="translate(-3070.808 -684.281)"/><g transform="translate(56.503 5.034)"><path class="c" d="M3255.74,912.8a6.44,6.44,0,0,0-.924,12.805,79.565,79.565,0,0,0,18.624-12.308Z" transform="translate(-3197.548 -779.377)"/><path class="c" d="M3242.431,800.33l-21.178-.594c-3.908-.11-7.154,2.525-7.253,6.078s2.992,6.365,6.9,6.476l20.825.585a6.832,6.832,0,0,0-4.607,6.371c-.1,3.552,2.36,6.727,5.5,6.815l8.357.236a79.444,79.444,0,0,0-7.314-103.061,5.242,5.242,0,0,1-3.282,1.061l-41.5-1.165a6.432,6.432,0,0,0-.361,12.852l42.115,1.182a6.486,6.486,0,0,1,3.6,6.224c-.1,3.551-2.637,6.365-5.666,6.281l-40.179-1.128a6.429,6.429,0,1,0-.362,12.853l30.825.865a6.441,6.441,0,0,1,4.432,6.176,6.15,6.15,0,0,1-5.377,6.061l-56.224-1.578c-4.222-.119-7.728,2.66-7.828,6.211s3.244,6.522,7.468,6.639l74,2.079c2.392,1.562,4.052,3.465,3.976,6.153A6.638,6.638,0,0,1,3242.431,800.33Z" transform="translate(-3163.85 -704.626)"/><path class="c" d="M3252.041,699.109l9.373.262a79.073,79.073,0,0,0-13.83-6.782q-.528.049-1.053.1C3246.51,696.174,3248.948,699.023,3252.041,699.109Z" transform="translate(-3196.437 -692.59)"/></g><g transform="translate(0 7.879)"><path class="d" d="M3132.554,710.128a6.383,6.383,0,0,0,6.392-6.323,6.31,6.31,0,0,0-5.466-6.519,79.948,79.948,0,0,0-18.626,12.345Z" transform="translate(-3088.037 -697.286)"/><path class="d" d="M3094.723,763.841l21.178.594c3.909.111,7.154-2.525,7.253-6.077s-2.992-6.366-6.9-6.476l-20.828-.586a6.834,6.834,0,0,0,4.609-6.37c.1-3.552-2.36-6.726-5.5-6.814l-8.359-.236a79.4,79.4,0,0,0,7.316,103.024,5.192,5.192,0,0,1,3.281-1.026l41.5,1.165a6.432,6.432,0,0,0,.362-12.851L3096.524,827a6.485,6.485,0,0,1-3.6-6.22c.1-3.553,2.637-6.37,5.666-6.283l40.179,1.128a6.428,6.428,0,1,0,.361-12.851l-30.824-.866a6.437,6.437,0,0,1-4.429-6.176,6.152,6.152,0,0,1,5.377-6.062l56.221,1.58c4.224.117,7.729-2.659,7.828-6.21s-3.242-6.524-7.466-6.642l-74.006-2.079c-2.389-1.562-4.051-3.464-3.974-6.152A6.637,6.637,0,0,1,3094.723,763.841Z" transform="translate(-3070.593 -713.284)"/><path class="d" d="M3142.246,927.759l-9.374-.264a93.217,93.217,0,0,0,13.83,6.713c.352-.035.7-.033,1.053-.071C3147.777,930.658,3145.341,927.846,3142.246,927.759Z" transform="translate(-3095.138 -788.016)"/></g></g></g><g transform="translate(3050.302 620.906)"><path class="e" d="M3107.9,639.136A11.136,11.136,0,1,1,3096.761,628,11.136,11.136,0,0,1,3107.9,639.136Z" transform="translate(-3085.626 -628)"/><path class="f" d="M3101.813,630.176a10.328,10.328,0,0,1,2.323,6.551c-.02,7.933-4.66,10.408-10.408,10.408a10.4,10.4,0,0,1-2.934-.422,10.407,10.407,0,1,0,11.02-16.536Z" transform="translate(-3087.663 -628.858)"/></g></g></g></svg>