<svg xmlns="http://www.w3.org/2000/svg" id="Group_145" width="714.587" height="702.23" data-name="Group 145" viewBox="0 0 714.587 702.23">
    <defs>
        <style>
            .cls-1{fill:#333}
        </style>
    </defs>
    <g id="Group_3" data-name="Group 3">
        <path id="Path_15" d="M93.29 421.552a3.582 3.582 0 0 0 .794.059 7.312 7.312 0 0 0 7.285-6.531C118.162 262.892 240.795 140.259 393 123.446a7.275 7.275 0 0 0 6.471-8.079c-.417-4.01-4.208-7.424-8.079-6.491-158.958 17.547-287.069 145.659-304.577 304.6a7.278 7.278 0 0 0 6.475 8.076z" class="cls-1" data-name="Path 15" transform="translate(-72.318 -94.406)"/>
        <path id="Path_16" d="M576.1 127.651c-4.526-.913-7.643 2.442-8.079 6.471C549.657 301.655 408.524 428 239.76 428a327.622 327.622 0 0 1-132.637-27.711 7.328 7.328 0 0 0-5.9 13.418 342.371 342.371 0 0 0 138.537 28.961c176.287 0 323.653-131.942 342.808-306.939a7.269 7.269 0 0 0-6.468-8.078z" class="cls-1" data-name="Path 16" transform="translate(117.549 259.561)"/>
        <path id="Path_17" d="M344 132.974a7.349 7.349 0 0 0-7.325-7.344H95.9a7.334 7.334 0 1 0 0 14.669h240.776a7.345 7.345 0 0 0 7.324-7.325z" class="cls-1" data-name="Path 17" transform="translate(-38.758 224.324)"/>
        <path id="Path_18" d="M216.773 130.993a190.966 190.966 0 0 1 32.792 109.77H113.991a7.335 7.335 0 0 0 0 14.669h134.5c-2.779 32.018-13 63.48-31.7 90.893a7.365 7.365 0 0 0 1.965 10.2 7.263 7.263 0 0 0 4.109 1.27 7.336 7.336 0 0 0 6.074-3.216c20.366-29.894 31.4-64.234 34.2-99.15h91.631a7.335 7.335 0 1 0 0-14.669h-90.555a205.555 205.555 0 0 0-35.353-118.028 7.32 7.32 0 0 0-12.089 8.258z" class="cls-1" data-name="Path 18" transform="translate(302.689 109.191)"/>
        <path id="Path_19" d="M103.187 123.484a7.159 7.159 0 0 0 7.821 6.788 191.407 191.407 0 0 1 121.144 32.673 7.344 7.344 0 1 0 8.258-12.145 206.451 206.451 0 0 0-130.434-35.134 7.291 7.291 0 0 0-6.789 7.818z" class="cls-1" data-name="Path 19" transform="translate(236.733 26.7)"/>
        <path id="Path_20" d="M105.412 208.607a7.289 7.289 0 0 0 5.181-2.144l66.338-66.339a7.334 7.334 0 0 0-10.361-10.381l-66.338 66.338a7.335 7.335 0 0 0 5.181 12.526z" class="cls-1" data-name="Path 20" transform="translate(140.976 261.439)"/>
        <path id="Path_21" d="M187.443 121.518l-79.658 79.657a7.334 7.334 0 1 0 10.362 10.382L197.8 131.9a7.334 7.334 0 0 0-10.361-10.381z" class="cls-1" data-name="Path 21" transform="translate(283.368 106.399)"/>
        <path id="Path_22" d="M143.972 151.1a19.707 19.707 0 1 0-27.869 0 19.7 19.7 0 0 0 27.869 0z" class="cls-1" data-name="Path 22" transform="translate(371.68 70.207)"/>
        <path id="Path_23" d="M115.266 115.54a19.708 19.708 0 1 0 24.157 13.934 19.714 19.714 0 0 0-24.157-13.934z" class="cls-1" data-name="Path 23" transform="translate(189.381 21.364)"/>
        <path id="Path_24" d="M101.929 137.374a19.72 19.72 0 1 0 27.889 0 19.756 19.756 0 0 0-27.889 0z" class="cls-1" data-name="Path 24" transform="translate(104.798 337.098)"/>
        <path id="Path_25" d="M135.152 132.288a19.717 19.717 0 1 0 13.935 24.158 19.731 19.731 0 0 0-13.935-24.158z" class="cls-1" data-name="Path 25" transform="translate(371.666 337.083)"/>
        <path id="Path_26" d="M122.761 147.422a19.711 19.711 0 1 0-19.711-19.711 19.709 19.709 0 0 0 19.711 19.711z" class="cls-1" data-name="Path 26" transform="translate(234.528 -108)"/>
        <circle id="Ellipse_3" cx="38.944" cy="38.944" r="38.944" class="cls-1" data-name="Ellipse 3" transform="translate(318.353 318.355)"/>
        <circle id="Ellipse_4" cx="19.71" cy="19.71" r="19.71" class="cls-1" data-name="Ellipse 4" transform="translate(0 337.589)"/>
        <path id="Path_27" d="M139.768 125.007a19.711 19.711 0 1 0 19.711 19.711 19.722 19.722 0 0 0-19.711-19.711z" class="cls-1" data-name="Path 27" transform="translate(555.108 212.58)"/>
        <path id="Path_28" d="M124.108 142.389a19.7 19.7 0 1 0 7.225 26.917 19.682 19.682 0 0 0-7.225-26.917z" class="cls-1" data-name="Path 28" transform="translate(74.243 490.207)"/>
    </g>
</svg>
