<svg xmlns="http://www.w3.org/2000/svg" width="216.453" height="56.722" viewBox="0 0 216.453 56.722">
    <defs>
        <style>
            .cls-1{fill:#fff}
        </style>
    </defs>
    <g id="logo_title" transform="translate(-86.043 -108)">
        <g id="Group_4" data-name="Group 4" transform="translate(86.043 108)">
            <g id="Group_3" data-name="Group 3">
                <path id="Path_15" d="M87.3 133.99a.289.289 0 0 0 .064 0 .591.591 0 0 0 .588-.527 26.819 26.819 0 0 1 23.557-23.557.588.588 0 0 0 .523-.653.571.571 0 0 0-.653-.524 28.008 28.008 0 0 0-24.6 24.6.588.588 0 0 0 .521.661z" class="cls-1" data-name="Path 15" transform="translate(-85.604 -107.565)"/>
                <path id="Path_16" d="M135.555 127.512a.547.547 0 0 0-.653.523 26.693 26.693 0 0 1-37.228 21.5.592.592 0 0 0-.476 1.084 27.873 27.873 0 0 0 38.88-22.453.587.587 0 0 0-.523-.654z" class="cls-1" data-name="Path 16" transform="translate(-79.527 -96.235)"/>
                <path id="Path_17" d="M109.186 126.223a.594.594 0 0 0-.592-.593H89.145a.592.592 0 1 0 0 1.185h19.449a.593.593 0 0 0 .592-.592z" class="cls-1" data-name="Path 17" transform="translate(-84.53 -97.363)"/>
                <path id="Path_18" d="M115.56 120.449a15.425 15.425 0 0 1 2.649 8.867h-10.951a.592.592 0 0 0 0 1.185h10.864a15.327 15.327 0 0 1-2.561 7.342.6.6 0 0 0 .159.824.587.587 0 0 0 .332.1.593.593 0 0 0 .491-.26 16.51 16.51 0 0 0 2.763-8.009h7.4a.592.592 0 1 0 0-1.185h-7.315a16.6 16.6 0 0 0-2.856-9.534.591.591 0 0 0-.976.667z" class="cls-1" data-name="Path 18" transform="translate(-73.601 -101.048)"/>
                <path id="Path_19" d="M103.169 115.819a.578.578 0 0 0 .632.548 15.461 15.461 0 0 1 9.785 2.639.593.593 0 0 0 .667-.981 16.676 16.676 0 0 0-10.536-2.838.589.589 0 0 0-.548.632z" class="cls-1" data-name="Path 19" transform="translate(-75.712 -103.688)"/>
                <path id="Path_20" d="M98.679 134.142a.589.589 0 0 0 .418-.173l5.358-5.358a.592.592 0 1 0-.837-.839l-5.358 5.358a.592.592 0 0 0 .418 1.012z" class="cls-1" data-name="Path 20" transform="translate(-78.777 -96.175)"/>
                <path id="Path_21" d="M112.248 119.547l-6.434 6.434a.592.592 0 1 0 .837.839l6.434-6.434a.592.592 0 1 0-.837-.839z" class="cls-1" data-name="Path 21" transform="translate(-74.219 -101.137)"/>
                <path id="Path_22" d="M113.044 120.172a1.592 1.592 0 1 0-2.251 0 1.591 1.591 0 0 0 2.251 0z" class="cls-1" data-name="Path 22" transform="translate(-71.392 -102.296)"/>
                <path id="Path_23" d="M101.835 114.918a1.592 1.592 0 1 0 1.951 1.126 1.592 1.592 0 0 0-1.951-1.126z" class="cls-1" data-name="Path 23" transform="translate(-77.227 -103.859)"/>
                <path id="Path_24" d="M96.633 132.078a1.593 1.593 0 1 0 2.253 0 1.6 1.6 0 0 0-2.253 0z" class="cls-1" data-name="Path 24" transform="translate(-79.935 -93.753)"/>
                <path id="Path_25" d="M112.331 131.667a1.593 1.593 0 1 0 1.126 1.951 1.594 1.594 0 0 0-1.126-1.951z" class="cls-1" data-name="Path 25" transform="translate(-71.393 -93.753)"/>
                <path id="Path_26" d="M104.642 111.184a1.592 1.592 0 1 0-1.592-1.592 1.592 1.592 0 0 0 1.592 1.592z" class="cls-1" data-name="Path 26" transform="translate(-75.782 -108)"/>
                <circle id="Ellipse_3" cx="3.146" cy="3.146" r="3.146" class="cls-1" data-name="Ellipse 3" transform="translate(25.715 25.715)"/>
                <circle id="Ellipse_4" cx="1.592" cy="1.592" r="1.592" class="cls-1" data-name="Ellipse 4" transform="translate(0 27.269)"/>
                <path id="Path_27" d="M121.649 125.007a1.592 1.592 0 1 0 1.592 1.592 1.593 1.593 0 0 0-1.592-1.592z" class="cls-1" data-name="Path 27" transform="translate(-65.521 -97.739)"/>
                <path id="Path_28" d="M96.935 139.95a1.591 1.591 0 1 0 .584 2.174 1.59 1.59 0 0 0-.584-2.174z" class="cls-1" data-name="Path 28" transform="translate(-80.913 -88.852)"/>
            </g>
        </g>
        <g id="Group_6" data-name="Group 6" transform="translate(163.867 141.778)">
            <g id="Group_5" data-name="Group 5">
                <path id="Path_29" d="M134.581 143.9l1.219-1.369a6.18 6.18 0 0 0 4.395 1.979c2.089 0 3.351-1.044 3.351-2.61 0-1.632-1.153-2.153-2.654-2.828l-2.307-1c-1.48-.632-3.242-1.764-3.242-4.092 0-2.458 2.132-4.243 5.027-4.243a6.535 6.535 0 0 1 4.7 1.98L144 133a5.164 5.164 0 0 0-3.633-1.5c-1.805 0-2.982.914-2.982 2.351 0 1.544 1.393 2.132 2.633 2.654l2.285.98c1.85.8 3.287 1.894 3.287 4.265 0 2.524-2.089 4.526-5.419 4.526a7.621 7.621 0 0 1-5.59-2.376z" class="cls-1" data-name="Path 29" transform="translate(-134.581 -128.666)"/>
                <path id="Path_30" d="M144.64 138.534c0-3.939 2.591-6.223 5.483-6.223s5.484 2.283 5.484 6.223c0 3.917-2.589 6.179-5.484 6.179s-5.483-2.262-5.483-6.179zm8.921 0c0-2.721-1.392-4.57-3.438-4.57s-3.417 1.849-3.417 4.57 1.372 4.525 3.417 4.525 3.438-1.806 3.438-4.525z" class="cls-1" data-name="Path 30" transform="translate(-128.512 -127.11)"/>
                <path id="Path_31" d="M155.324 144.038v-14.971h1.98v15.1c0 .609.26.848.564.848a1.75 1.75 0 0 0 .414-.043l.284 1.523a3.047 3.047 0 0 1-1.154.175c-1.48 0-2.088-.957-2.088-2.632z" class="cls-1" data-name="Path 31" transform="translate(-122.065 -129.067)"/>
                <path id="Path_32" d="M160.631 141.362c0-2.569 2.242-3.851 7.268-4.417 0-1.523-.5-2.981-2.437-2.981a6.51 6.51 0 0 0-3.547 1.262l-.782-1.371a8.885 8.885 0 0 1 4.656-1.544c2.872 0 4.09 1.935 4.09 4.852v7.266h-1.632l-.175-1.414h-.064a6.326 6.326 0 0 1-3.915 1.7 3.2 3.2 0 0 1-3.462-3.353zm7.268.2v-3.312c-3.981.479-5.331 1.459-5.331 2.981 0 1.35.915 1.894 2.089 1.894a4.824 4.824 0 0 0 3.243-1.567z" class="cls-1" data-name="Path 32" transform="translate(-118.863 -127.11)"/>
                <path id="Path_33" d="M170.65 132.616h1.631l.175 2.153h.064a4.082 4.082 0 0 1 3.353-2.458 2.524 2.524 0 0 1 1.262.26l-.37 1.741a2.8 2.8 0 0 0-1.153-.2c-.98 0-2.2.7-2.981 2.719v7.594h-1.98z" class="cls-1" data-name="Path 33" transform="translate(-112.818 -127.11)"/>
                <path id="Path_34" d="M186.763 131.628h-4.831v-1.719h11.684v1.719h-4.831v14.251h-2.022z" class="cls-1" data-name="Path 34" transform="translate(-106.011 -128.559)"/>
                <path id="Path_35" d="M191.231 138.534c0-3.83 2.589-6.223 5.331-6.223 3 0 4.7 2.176 4.7 5.548a7.536 7.536 0 0 1-.088 1.132h-7.962c.13 2.524 1.675 4.133 3.915 4.133a5.087 5.087 0 0 0 2.96-.936l.718 1.307a7.029 7.029 0 0 1-3.917 1.219c-3.133-.001-5.657-2.286-5.657-6.18zm8.291-.98c0-2.371-1.089-3.656-2.939-3.656-1.676 0-3.155 1.348-3.394 3.656z" class="cls-1" data-name="Path 35" transform="translate(-100.4 -127.11)"/>
                <path id="Path_36" d="M200.652 138.534c0-3.939 2.676-6.223 5.7-6.223a5.052 5.052 0 0 1 3.458 1.392l-1.021 1.305a3.494 3.494 0 0 0-2.349-1.044c-2.155 0-3.723 1.849-3.723 4.57s1.48 4.525 3.656 4.525a4.161 4.161 0 0 0 2.785-1.175l.871 1.329a5.729 5.729 0 0 1-3.83 1.5c-3.132 0-5.547-2.262-5.547-6.179z" class="cls-1" data-name="Path 36" transform="translate(-94.716 -127.11)"/>
                <path id="Path_37" d="M210.019 129.067H212v4.743l-.066 2.437a5.552 5.552 0 0 1 3.917-1.979c2.48 0 3.612 1.61 3.612 4.634v7.484h-1.98v-7.223c0-2.219-.675-3.155-2.242-3.155-1.219 0-2.044.609-3.242 1.807v8.572h-1.98z" class="cls-1" data-name="Path 37" transform="translate(-89.065 -129.067)"/>
            </g>
        </g>
        <g id="Group_8" data-name="Group 8" transform="translate(158.194 112.35)">
            <g id="Group_7" data-name="Group 7">
                <path id="Path_38" d="M131.043 120.46a13.473 13.473 0 0 0 1.132-5.548l1.11.13a14.175 14.175 0 0 1-1.153 5.92zm3.046-9.747h1.544v19.866h-1.544zm3.046 8.137a19.053 19.053 0 0 0-1.348-4.2l1-.391a16.28 16.28 0 0 1 1.437 4.111zm14.034 9.53v1.52h-14.187v-1.52h8.966c.5-2.806 1.087-7.007 1.437-10.465h-5.375l-.175 1.044a23.045 23.045 0 0 1 4.59 2.546l-.8 1.13a23.732 23.732 0 0 0-4.049-2.415c-.173.8-.327 1.566-.479 2.328a26.9 26.9 0 0 1 4.613 2.828l-.891 1.11a26.764 26.764 0 0 0-3.983-2.676c-.2.893-.391 1.7-.564 2.394l-1.589-.152c.8-3.112 1.894-8.507 2.524-12.49h-3.458v-1.5h13.12v1.5h-8.051c-.152.914-.327 1.894-.523 2.894h6.9c-.435 3.765-1.066 8.769-1.587 11.924z" class="cls-1" data-name="Path 38" transform="translate(-131.043 -110.713)"/>
                <path id="Path_39" d="M165.995 128.263v1.437h-18.866v-1.435h8.618v-2.351h-6.072v-1.305h6.072v-2.046h-5.331a20.1 20.1 0 0 1-2.242 2.415 7.263 7.263 0 0 0-1.371-1.021 13.763 13.763 0 0 0 3.981-4.983l1.589.435a19.867 19.867 0 0 1-.98 1.764h4.353v-1.741h1.654v1.741h7.223v1.392H157.4v2.046h6.332v1.305H157.4v2.351zm-2.219-9.312h-14.4v-7.682h14.4zm-1.632-6.377H150.96v1.894h11.183zm0 3.135H150.96v1.935h11.183z" class="cls-1" data-name="Path 39" transform="translate(-121.533 -110.378)"/>
                <path id="Path_40" d="M164.406 124.826a27.589 27.589 0 0 1-1.087 5.245 6.879 6.879 0 0 0-1.174-.436 26.13 26.13 0 0 0 1.023-5zm4.308-5.852a35.862 35.862 0 0 1 1.459 4.156l-1.219.478c-.066-.3-.173-.675-.261-1.044-4.852.762-5.525.914-5.918 1.13a7.265 7.265 0 0 0-.457-1.414c.436-.087.914-.63 1.546-1.457a27.9 27.9 0 0 0 1.783-2.545 10.271 10.271 0 0 0-3 .521 11.283 11.283 0 0 0-.455-1.393c.325-.087.717-.544 1.151-1.2a28.824 28.824 0 0 0 2.785-5.484l1.372.588a34.172 34.172 0 0 1-3.287 5.831l2.285-.218a32.91 32.91 0 0 0 1.591-3l1.26.762a41.719 41.719 0 0 1-4.786 7.225l3.765-.523c-.239-.7-.523-1.392-.763-2.023zm-2.153 5.57a41 41 0 0 1 .609 4.568l-1.217.306a43.111 43.111 0 0 0-.545-4.658zm2.264-.566a31.759 31.759 0 0 1 1.262 4.177l-1.11.414a31.986 31.986 0 0 0-1.219-4.222zm12.705 4.786c0 .893-.172 1.284-.739 1.546a7.134 7.134 0 0 1-2.742.282 5.076 5.076 0 0 0-.414-1.437c.914.045 1.786.022 2.047.022.282-.022.367-.107.367-.414v-15.577h-8.137v17.429h-1.456v-18.866h11.074zm-3.5-3.59a6.194 6.194 0 0 0 1.284-.109c.042.37.085.871.13 1.2a6.025 6.025 0 0 1-1.393.107h-2.785c-1.437 0-1.762-.521-1.762-1.958V122.3h-.8v-1.284h2.96a13.556 13.556 0 0 0-.85-1.914l1-.391h-3.33v-1.284h4.133a23.806 23.806 0 0 0 1.023-3.59l1.2.348a65.295 65.295 0 0 1-1.087 3.242h1.849v1.284h-3.656a17.676 17.676 0 0 1 .959 1.958l-.784.348h3.22v1.283h-4.491v2.132c0 .564.066.739.524.739zm-3.808-11.379a10.5 10.5 0 0 1 1.175 3.09l-1.044.369a11.836 11.836 0 0 0-1.132-3.111z" class="cls-1" data-name="Path 40" transform="translate(-112.277 -110.705)"/>
                <path id="Path_41" d="M196.015 113.323a16.554 16.554 0 0 1-3.178 5.788 14.577 14.577 0 0 0 4.961 3.2 6.06 6.06 0 0 0-1 1.328 18.798 18.798 0 0 0-.7-.327v7.18h-1.546v-.717h-5.439v.782h-1.5v-7.268c-.438.241-.872.436-1.307.632a4.472 4.472 0 0 0-.782-1.089h-2.285v3.9c.935-.218 1.892-.436 2.849-.675l.152 1.457c-2.958.718-6.048 1.457-8.333 2.023l-.3-1.566 1.11-.239v-7.42h1.371v7.137l1.675-.391v-8.79h-3.046v-6.636h7.029v5.766a15.826 15.826 0 0 0 3.936-6.68l1.546.369a33.18 33.18 0 0 1-.7 1.85h4.2l.282-.066zm-15.862 3.526h4.09v-3.808h-4.09zm5.766 5.591a15.546 15.546 0 0 0 4.94-3.394 19.64 19.64 0 0 1-2-2.981 15.828 15.828 0 0 1-1.98 2.5 8.841 8.841 0 0 0-1.13-.957v.653h-2.5v3.139h2.676zm9.16.3a16.386 16.386 0 0 1-3.221-2.567 17.233 17.233 0 0 1-3.263 2.567zm-.523 5.593v-4.173h-5.439v4.177zm-4.7-13.991l-.218.414a17.666 17.666 0 0 0 2.155 3.263 14.127 14.127 0 0 0 2.242-3.677z" class="cls-1" data-name="Path 41" transform="translate(-102.948 -110.713)"/>
                <path id="Path_42" d="M200.547 123.724c-.369-.718-1.284-2.132-2.023-3.242v10.074h-1.589v-9.617a23.043 23.043 0 0 1-3.154 5.679 7.25 7.25 0 0 0-.807-1.457 22.139 22.139 0 0 0 3.742-6.834h-3.438v-1.522h3.656v-3.287c-1 .2-2.023.37-2.979.5a7.489 7.489 0 0 0-.481-1.263 33.045 33.045 0 0 0 6.92-1.74l.978 1.284a19.312 19.312 0 0 1-2.849.869v3.635h3.2v1.522h-3.2v.393c.675.762 2.546 3.154 3 3.742zm9.833 1.153v5.679h-1.587v-5.418l-7.093 1.175-.26-1.546 7.353-1.175v-12.88h1.587v12.62l2.546-.393.239 1.48zm-4.2-2.894a18.753 18.753 0 0 0-3.829-3.176l1-.957a19.011 19.011 0 0 1 3.895 3.067zm.478-5.745a17 17 0 0 0-3.458-3.088l1.023-.936a16.09 16.09 0 0 1 3.545 2.981z" class="cls-1" data-name="Path 42" transform="translate(-93.676 -110.713)"/>
                <path id="Path_43" d="M215.812 121.7c-.869.261-1.764.521-2.61.784v6.157c0 .914-.24 1.348-.8 1.61a7.544 7.544 0 0 1-2.96.282 5.151 5.151 0 0 0-.5-1.478c1.044.022 1.98.022 2.24 0 .3 0 .436-.109.436-.414v-5.679l-2.61.762-.457-1.589c.871-.2 1.914-.457 3.067-.782v-4.744h-2.785v-1.522h2.785v-4.353h1.582v4.353h2.4v1.522h-2.4v4.308c.782-.216 1.61-.457 2.394-.7zm11.576-2.437a15.935 15.935 0 0 1-4.417 7.159 14.831 14.831 0 0 0 5.612 2.806 6.7 6.7 0 0 0-1.042 1.393 15.648 15.648 0 0 1-5.811-3.155 19.923 19.923 0 0 1-6.178 3.112 6.12 6.12 0 0 0-.872-1.459 17.831 17.831 0 0 0 5.9-2.763 17.344 17.344 0 0 1-3.569-5.961l.066-.022h-.718v-1.5h4.656v-3.242h-5.091v-1.5h5.091v-3.417h1.585v3.417h5.2v1.5h-5.2v3.242h3.46l.261-.066zm-8.791 1.11a14.8 14.8 0 0 0 3.2 5 13.259 13.259 0 0 0 3.5-5z" class="cls-1" data-name="Path 43" transform="translate(-84.281 -110.713)"/>
            </g>
        </g>
    </g>
</svg>
