<svg xmlns="http://www.w3.org/2000/svg" xmlns:xlink="http://www.w3.org/1999/xlink" width="200" height="200" viewBox="0 0 200 200"><defs><style>.a{fill:none;}.b{fill:#fff;}.c{clip-path:url(#a);}.d{fill:#4f5b84;}.e{fill:#627eb7;}.f{fill:#a379bf;}.g{fill:#2dc17a;}.h{fill:#76ffff;}</style><clipPath id="a"><path class="a" d="M3644.573,1326.435c0,40.627-32.021,73.559-71.521,73.559s-71.519-32.932-71.519-73.559,32.019-73.558,71.519-73.558S3644.573,1285.809,3644.573,1326.435Z" transform="translate(-3501.532 -1252.877)"/></clipPath></defs><g transform="translate(-851 -1749)"><rect class="b" width="200" height="200" transform="translate(851 1749)"/><g transform="translate(-2598.919 564.338)"><g transform="translate(3475.302 1222.932)"><g class="c" transform="translate(0 0)"><path class="d" d="M3644.573,1326.435c0,40.627-32.021,73.559-71.521,73.559s-71.519-32.932-71.519-73.559,32.019-73.558,71.519-73.558S3644.573,1285.809,3644.573,1326.435Z" transform="translate(-3501.532 -1252.877)"/><g transform="translate(-19.332 -17.597)"><path class="e" d="M3587.936,1281.892c0,38.25-29.239,69.257-65.307,69.257s-65.3-31.006-65.3-69.257,29.237-69.257,65.3-69.257S3587.936,1243.641,3587.936,1281.892Z" transform="translate(-3457.324 -1212.635)"/></g></g></g><circle class="f" cx="5.911" cy="5.911" r="5.911" transform="translate(3454.919 1247.252)"/><circle class="f" cx="5.911" cy="5.911" r="5.911" transform="translate(3583.596 1208.022) rotate(-45)"/><circle class="g" cx="5.911" cy="5.911" r="5.911" transform="translate(3479.639 1358.495)"/><ellipse class="g" cx="5.911" cy="5.911" rx="5.911" ry="5.911" transform="translate(3627.299 1267.232) rotate(-76.717)"/><ellipse class="h" cx="5.911" cy="5.911" rx="5.911" ry="5.911" transform="translate(3630.853 1312.867) rotate(-80.783)"/></g></g></svg>