<svg xmlns="http://www.w3.org/2000/svg" width="189.498" height="170.655" viewBox="0 0 189.498 170.655">
    <defs>
        <style>
            .cls-1{fill:none}.cls-2{clip-path:url(#clip-path)}.cls-3{fill:#4f5b84}.cls-4{fill:#627eb7}.cls-5{fill:#a379bf}.cls-6{fill:#2dc17a}.cls-7{fill:#76ffff}
        </style>
        <clipPath id="clip-path">
            <path id="Path_162" d="M3644.573 1326.435c0 40.627-32.021 73.559-71.521 73.559s-71.519-32.932-71.519-73.559 32.019-73.558 71.519-73.558 71.521 32.932 71.521 73.558z" class="cls-1" data-name="Path 162" transform="translate(-3501.532 -1252.877)"/>
        </clipPath>
    </defs>
    <g id="PLANET" transform="translate(-3454.919 -1199.662)">
        <g id="Group_131" data-name="Group 131" transform="translate(3475.302 1222.932)">
            <g id="Group_130" class="cls-2" data-name="Group 130">
                <g id="Group_128" data-name="Group 128">
                    <path id="Path_160" d="M3644.573 1326.435c0 40.627-32.021 73.559-71.521 73.559s-71.519-32.932-71.519-73.559 32.019-73.558 71.519-73.558 71.521 32.932 71.521 73.558z" class="cls-3" data-name="Path 160" transform="translate(-3501.532 -1252.877)"/>
                </g>
                <g id="Group_129" data-name="Group 129" transform="translate(-19.332 -17.597)">
                    <path id="Path_161" d="M3587.936 1281.892c0 38.25-29.239 69.257-65.307 69.257s-65.3-31.006-65.3-69.257 29.237-69.257 65.3-69.257 65.307 31.006 65.307 69.257z" class="cls-4" data-name="Path 161" transform="translate(-3457.324 -1212.635)"/>
                </g>
            </g>
        </g>
        <circle id="Ellipse_6" cx="5.911" cy="5.911" r="5.911" class="cls-5" data-name="Ellipse 6" transform="translate(3454.919 1247.252)"/>
        <circle id="Ellipse_7" cx="5.911" cy="5.911" r="5.911" class="cls-5" data-name="Ellipse 7" transform="rotate(-45 3250.01 -3721.772)"/>
        <circle id="Ellipse_8" cx="5.911" cy="5.911" r="5.911" class="cls-6" data-name="Ellipse 8" transform="translate(3479.639 1358.495)"/>
        <ellipse id="Ellipse_9" cx="5.911" cy="5.911" class="cls-6" data-name="Ellipse 9" rx="5.911" ry="5.911" transform="rotate(-76.717 2614.265 -1658.048)"/>
        <ellipse id="Ellipse_10" cx="5.911" cy="5.911" class="cls-7" data-name="Ellipse 10" rx="5.911" ry="5.911" transform="rotate(-80.783 2586.965 -1477.327)"/>
    </g>
</svg>
