<svg xmlns="http://www.w3.org/2000/svg" width="1681.917" height="960.554" viewBox="0 0 1681.917 960.554">
    <defs>
        <style>
            .cls-1{fill:#50b6f7;stroke:rgba(0,0,0,0)}
        </style>
    </defs>
    <g id="stars_dec" transform="translate(-70.368 -23.852)">
        <g id="Group_10" data-name="Group 10" transform="translate(1722.837 849.138)">
            <path id="Path_44" d="M913.988 459.889c12.793-1.054 13.647-1.908 14.7-14.7 1.056 12.793 1.912 13.647 14.7 14.7-12.791 1.056-13.647 1.912-14.7 14.7-1.053-12.789-1.907-13.644-14.7-14.7z" class="cls-1" data-name="Path 44" transform="translate(-913.988 -445.188)"/>
        </g>
        <g id="Group_12" data-name="Group 12" transform="translate(1274.569 923.394)">
            <path id="Path_45" d="M685.143 492.075c7.812-.644 8.333-1.167 8.979-8.979.644 7.812 1.166 8.335 8.977 8.979-7.812.645-8.333 1.166-8.977 8.979-.646-7.813-1.167-8.334-8.979-8.979z" class="cls-1" data-name="Path 45" transform="translate(-685.143 -483.096)"/>
        </g>
        <g id="Group_13" data-name="Group 13" transform="translate(1098.319 787.236)">
            <path id="Path_46" d="M595.166 431.494c15.579-1.287 16.621-2.329 17.908-17.908 1.283 15.579 2.325 16.621 17.9 17.908-15.578 1.283-16.621 2.325-17.9 17.9-1.287-15.575-2.329-16.617-17.908-17.9z" class="cls-1" data-name="Path 46" transform="translate(-595.166 -413.586)"/>
        </g>
        <g id="Group_14" data-name="Group 14" transform="translate(845.199 501.53)">
            <path id="Path_47" d="M465.946 279.284c10.053-.831 10.725-1.5 11.553-11.553.831 10.051 1.5 10.723 11.551 11.553-10.051.829-10.721 1.5-11.551 11.551-.828-10.048-1.499-10.722-11.553-11.551z" class="cls-1" data-name="Path 47" transform="translate(-465.946 -267.731)"/>
        </g>
        <g id="Group_15" data-name="Group 15" transform="translate(418.869 974.292)">
            <path id="Path_48" d="M248.3 514.114c4.382-.358 4.674-.654 5.036-5.034.362 4.38.654 4.676 5.036 5.034-4.382.362-4.674.654-5.036 5.038-.361-4.384-.653-4.675-5.036-5.038z" class="cls-1" data-name="Path 48" transform="translate(-248.301 -509.08)"/>
        </g>
        <g id="Group_16" data-name="Group 16" transform="translate(653.069 746.598)">
            <path id="Path_49" d="M367.862 405.684c11.175-.921 11.921-1.669 12.844-12.844.923 11.175 1.669 11.923 12.844 12.844-11.175.921-11.921 1.669-12.844 12.844-.923-11.175-1.669-11.928-12.844-12.844z" class="cls-1" data-name="Path 49" transform="translate(-367.862 -392.84)"/>
        </g>
        <g id="Group_17" data-name="Group 17" transform="translate(620.576 501.946)">
            <path id="Path_50" d="M351.274 283.4c13.451-1.109 14.35-2.008 15.459-15.459 1.111 13.451 2.008 14.35 15.461 15.459-13.453 1.109-14.35 2.008-15.461 15.461-1.109-13.451-2.008-14.35-15.459-15.461z" class="cls-1" data-name="Path 50" transform="translate(-351.274 -267.943)"/>
        </g>
        <g id="Group_18" data-name="Group 18" transform="translate(1277.578 392.302)">
            <path id="Path_51" d="M686.679 233.281c18.54-1.53 19.78-2.77 21.312-21.312 1.53 18.542 2.77 19.782 21.31 21.312-18.54 1.53-19.78 2.768-21.31 21.312-1.532-18.544-2.772-19.782-21.312-21.312z" class="cls-1" data-name="Path 51" transform="translate(-686.679 -211.969)"/>
        </g>
        <g id="Group_19" data-name="Group 19" transform="translate(456.632 23.893)">
            <path id="Path_52" d="M267.579 42.943c16.576-1.367 17.682-2.476 19.052-19.05C288 40.467 289.1 41.575 305.68 42.943 289.1 44.31 288 45.417 286.631 61.992c-1.37-16.575-2.476-17.682-19.052-19.049z" class="cls-1" data-name="Path 52" transform="translate(-267.579 -23.893)"/>
        </g>
        <g id="Group_20" data-name="Group 20" transform="translate(187.243 681.833)">
            <path id="Path_53" d="M130.054 380.029c17.622-1.453 18.8-2.631 20.252-20.252 1.453 17.622 2.631 18.8 20.252 20.252-17.622 1.453-18.8 2.633-20.252 20.254-1.453-17.621-2.63-18.8-20.252-20.254z" class="cls-1" data-name="Path 53" transform="translate(-130.054 -359.777)"/>
        </g>
        <g id="Group_21" data-name="Group 21" transform="translate(70.409 56.316)">
            <path id="Path_54" d="M70.409 57.877c15.167-1.252 16.182-2.264 17.434-17.432 1.25 15.167 2.264 16.18 17.432 17.432-15.167 1.252-16.182 2.266-17.432 17.432-1.252-15.166-2.267-16.181-17.434-17.432z" class="cls-1" data-name="Path 54" transform="translate(-70.409 -40.445)"/>
        </g>
        <g id="Group_22" data-name="Group 22" transform="translate(492.271 159.566)">
            <path id="Path_55" d="M285.773 107.384c12.38-1.021 13.206-1.849 14.229-14.229 1.021 12.38 1.847 13.208 14.227 14.229-12.38 1.021-13.206 1.849-14.227 14.229-1.023-12.38-1.849-13.213-14.229-14.229z" class="cls-1" data-name="Path 55" transform="translate(-285.773 -93.155)"/>
        </g>
    </g>
</svg>
