<svg xmlns="http://www.w3.org/2000/svg" xmlns:xlink="http://www.w3.org/1999/xlink" width="1681.917" height="1052.88" viewBox="0 0 1681.917 1052.88"><defs><style>.a{fill:#50b6f7;}.a,.aa,.ab,.ac,.ad,.ae,.af,.ag,.ah,.ai,.aj,.ak,.al,.am,.an,.ao,.ap,.aq,.ar,.as,.at,.au,.av,.aw,.ax,.ay,.az,.b,.ba,.bb,.bc,.bd,.be,.bf,.bg,.bh,.bi,.bj,.bk,.bl,.bm,.bn,.bo,.bp,.bq,.br,.bs,.bt,.bu,.bv,.bw,.bx,.by,.bz,.c,.ca,.cb,.cc,.cd,.ce,.cf,.cg,.ch,.ci,.cj,.d,.e,.f,.g,.h,.i,.j,.k,.l,.m,.n,.o,.p,.q,.r,.s,.t,.u,.v,.w,.x,.y,.z{stroke:rgba(0,0,0,0);}.b{fill:url(#a);}.c{fill:url(#b);}.d{fill:url(#c);}.e{fill:url(#d);}.f{fill:url(#e);}.g{fill:url(#f);}.h{fill:url(#g);}.i{fill:url(#h);}.j{fill:url(#i);}.k{fill:url(#j);}.l{fill:url(#k);}.m{fill:url(#l);}.n{fill:url(#m);}.o{fill:url(#n);}.p{fill:url(#o);}.q{fill:url(#p);}.r{fill:url(#q);}.s{fill:url(#r);}.t{fill:url(#s);}.u{fill:url(#t);}.v{fill:url(#u);}.w{fill:url(#v);}.x{fill:url(#w);}.y{fill:url(#x);}.z{fill:url(#y);}.aa{fill:url(#z);}.ab{fill:url(#aa);}.ac{fill:url(#ab);}.ad{fill:url(#ac);}.ae{fill:url(#ad);}.af{fill:url(#ae);}.ag{fill:url(#af);}.ah{fill:url(#ag);}.ai{fill:url(#ah);}.aj{fill:url(#ai);}.ak{fill:url(#aj);}.al{fill:url(#ak);}.am{fill:url(#al);}.an{fill:url(#am);}.ao{fill:url(#an);}.ap{fill:url(#ao);}.aq{fill:url(#ap);}.ar{fill:url(#aq);}.as{fill:url(#ar);}.at{fill:url(#as);}.au{fill:url(#at);}.av{fill:url(#au);}.aw{fill:url(#av);}.ax{fill:url(#aw);}.ay{fill:url(#ax);}.az{fill:url(#ay);}.ba{fill:url(#az);}.bb{fill:url(#ba);}.bc{fill:url(#bb);}.bd{fill:url(#bc);}.be{fill:url(#bd);}.bf{fill:url(#be);}.bg{fill:url(#bf);}.bh{fill:url(#bg);}.bi{fill:url(#bh);}.bj{fill:url(#bi);}.bk{fill:url(#bj);}.bl{fill:url(#bk);}.bm{fill:url(#bl);}.bn{fill:url(#bm);}.bo{fill:url(#bn);}.bp{fill:url(#bo);}.bq{fill:url(#bp);}.br{fill:url(#bq);}.bs{fill:url(#br);}.bt{fill:url(#bs);}.bu{fill:url(#bt);}.bv{fill:url(#bu);}.bw{fill:url(#bv);}.bx{fill:url(#bw);}.by{fill:url(#bx);}.bz{fill:url(#by);}.ca{fill:url(#bz);}.cb{fill:url(#ca);}.cc{fill:url(#cb);}.cd{fill:url(#cc);}.ce{fill:url(#cd);}.cf{fill:url(#ce);}.cg{fill:url(#cf);}.ch{fill:url(#cg);}.ci{fill:url(#ch);}.cj{fill:url(#ci);}</style><radialGradient id="a" cx="733.265" cy="590.141" r="2.072" gradientTransform="translate(0 0)" gradientUnits="userSpaceOnUse"><stop offset="0" stop-color="#fff"/><stop offset="0.076" stop-color="#d7d7d7"/><stop offset="0.197" stop-color="#9e9e9e" stop-opacity="0.22"/><stop offset="0.318" stop-color="#6e6e6e" stop-opacity="0"/><stop offset="0.437" stop-color="#464646" stop-opacity="0"/><stop offset="0.553" stop-color="#272727" stop-opacity="0"/><stop offset="0.666" stop-color="#111" stop-opacity="0"/><stop offset="0.774" stop-color="#040404" stop-opacity="0"/><stop offset="0.873" stop-opacity="0"/><stop offset="1" stop-opacity="0"/></radialGradient><radialGradient id="b" cx="786.955" cy="531.229" r="1.524" xlink:href="#a"/><radialGradient id="c" cx="656.733" cy="378.678" r="4.042" xlink:href="#a"/><radialGradient id="d" cx="775.677" cy="428.067" r="3.757" gradientTransform="translate(-0.001 -0.002)" xlink:href="#a"/><radialGradient id="e" cx="860.474" cy="451.652" r="3.093" gradientTransform="translate(0 -0.001)" xlink:href="#a"/><radialGradient id="f" cx="700.774" cy="446.274" r="3.718" gradientTransform="translate(0 -0.001)" xlink:href="#a"/><radialGradient id="g" cx="675.815" cy="431.811" r="4.62" xlink:href="#a"/><radialGradient id="h" cx="696.311" cy="435.058" r="2.908" gradientTransform="translate(-0.001 -0.004)" xlink:href="#a"/><radialGradient id="i" cx="823.528" cy="484.614" r="1.765" gradientTransform="translate(0 -0.001)" xlink:href="#a"/><radialGradient id="j" cx="591.356" cy="214.841" r="2.055" xlink:href="#a"/><radialGradient id="k" cx="856.677" cy="391.69" r="2.956" gradientTransform="translate(0 -0.001)" xlink:href="#a"/><radialGradient id="l" cx="665.288" cy="226.701" r="3.544" xlink:href="#a"/><radialGradient id="m" cx="846.832" cy="197.758" r="4.085" xlink:href="#a"/><radialGradient id="n" cx="676.6" cy="154.763" r="4.237" gradientTransform="translate(0.001 0)" xlink:href="#a"/><radialGradient id="o" cx="808.856" cy="353.212" r="1.889" xlink:href="#a"/><radialGradient id="p" cx="623.149" cy="393.564" r="4.608" xlink:href="#a"/><radialGradient id="q" cx="587.766" cy="560.732" r="3.809" gradientTransform="translate(0 -0.001)" xlink:href="#a"/><radialGradient id="r" cx="689.398" cy="440.679" r="1.763" xlink:href="#a"/><radialGradient id="s" cx="391.612" cy="307.221" r="4.589" gradientTransform="translate(0 -0.001)" xlink:href="#a"/><radialGradient id="t" cx="446.777" cy="288.233" r="4.615" gradientTransform="translate(0 -0.002)" xlink:href="#a"/><radialGradient id="u" cx="611.334" cy="274.585" r="3.617" gradientTransform="translate(0 -0.001)" xlink:href="#a"/><radialGradient id="v" cx="652.011" cy="188.522" r="2.732" gradientTransform="translate(0 -0.002)" xlink:href="#a"/><radialGradient id="w" cx="754.522" cy="107.306" r="2.296" gradientTransform="translate(0 -0.001)" xlink:href="#a"/><radialGradient id="x" cx="846.128" cy="3.97" r="1.945" xlink:href="#a"/><radialGradient id="y" cx="600.156" cy="37.714" r="3.93" gradientTransform="translate(0 -0.001)" xlink:href="#a"/><radialGradient id="z" cx="513.31" cy="112.103" r="3.647" gradientTransform="translate(0 -0.001)" xlink:href="#a"/><radialGradient id="aa" cx="555.004" cy="171.894" r="4.751" gradientTransform="translate(0.001 0)" xlink:href="#a"/><radialGradient id="ab" cx="739.769" cy="275.296" r="3.853" gradientTransform="translate(0 -0.001)" xlink:href="#a"/><radialGradient id="ac" cx="663.244" cy="290.992" r="3.271" gradientTransform="translate(0.001 0.001)" xlink:href="#a"/><radialGradient id="ad" cx="555.081" cy="389.249" r="4.442" gradientTransform="translate(0 -0.001)" xlink:href="#a"/><radialGradient id="ae" cx="339.828" cy="269.214" r="4.691" gradientTransform="translate(0 -0.001)" xlink:href="#a"/><radialGradient id="af" cx="617.738" cy="483.233" r="4.082" xlink:href="#a"/><radialGradient id="ag" cx="318.049" cy="296.678" r="1.589" gradientTransform="translate(0 0.001)" xlink:href="#a"/><radialGradient id="ah" cx="572.899" cy="551.551" r="4.754" xlink:href="#a"/><radialGradient id="ai" cx="337.03" cy="460.195" r="4.354" gradientTransform="translate(0 -0.001)" xlink:href="#a"/><radialGradient id="aj" cx="255.624" cy="692.283" r="2.333" gradientTransform="translate(0 -0.001)" xlink:href="#a"/><radialGradient id="ak" cx="113.631" cy="454.617" r="2.843" gradientTransform="translate(0 -0.001)" xlink:href="#a"/><radialGradient id="al" cx="355.402" cy="415.058" r="4.71" xlink:href="#a"/><radialGradient id="am" cx="484.866" cy="459.408" r="4.689" xlink:href="#a"/><radialGradient id="an" cx="253.381" cy="226.238" r="3.303" xlink:href="#a"/><radialGradient id="ao" cx="454.976" cy="321.601" r="2.127" gradientTransform="translate(0 -0.001)" xlink:href="#a"/><radialGradient id="ap" cx="542.732" cy="238.381" r="2.229" gradientTransform="translate(0 0.001)" xlink:href="#a"/><radialGradient id="aq" cx="558.147" cy="203.789" r="3.116" gradientTransform="translate(-0.001 -0.002)" xlink:href="#a"/><radialGradient id="ar" cx="600.742" cy="116.03" r="2.529" gradientTransform="translate(0.001 0.001)" xlink:href="#a"/><radialGradient id="as" cx="553.069" cy="102.708" r="4.727" gradientTransform="translate(0 -0.001)" xlink:href="#a"/><radialGradient id="at" cx="404.302" cy="-11.311" r="3.821" gradientTransform="translate(0.001 0)" xlink:href="#a"/><radialGradient id="au" cx="420.29" cy="32.407" r="2.383" gradientTransform="translate(0 -0.001)" xlink:href="#a"/><radialGradient id="av" cx="543.19" cy="274.303" r="2.686" xlink:href="#a"/><radialGradient id="aw" cx="369.018" cy="260.005" r="2.953" xlink:href="#a"/><radialGradient id="ax" cx="396.725" cy="320.042" r="2.883" gradientTransform="translate(0 -0.001)" xlink:href="#a"/><radialGradient id="ay" cx="172.976" cy="243.615" r="3.056" xlink:href="#a"/><radialGradient id="az" cx="133.804" cy="306.303" r="2.77" xlink:href="#a"/><radialGradient id="ba" cx="72.345" cy="316.953" r="3.254" xlink:href="#a"/><radialGradient id="bb" cx="91.92" cy="354.084" r="3.332" gradientTransform="translate(0 -0.001)" xlink:href="#a"/><radialGradient id="bc" cx="119.812" cy="686.343" r="4.133" gradientTransform="translate(0 -0.001)" xlink:href="#a"/><radialGradient id="bd" cx="42.536" cy="388.89" r="4.708" gradientTransform="translate(0 -0.002)" xlink:href="#a"/><radialGradient id="be" cx="38.461" cy="441.181" r="4.732" xlink:href="#a"/><radialGradient id="bf" cx="-3.264" cy="387.062" r="2.377" gradientTransform="translate(0 -0.001)" xlink:href="#a"/><radialGradient id="bg" cx="167.378" cy="415.634" r="1.786" xlink:href="#a"/><radialGradient id="bh" cx="14.712" cy="160.476" r="4.27" gradientTransform="translate(0 -0.001)" xlink:href="#a"/><radialGradient id="bi" cx="79.878" cy="156.765" r="4.74" gradientTransform="translate(0 -0.001)" xlink:href="#a"/><radialGradient id="bj" cx="134.602" cy="188.092" r="2.932" gradientTransform="translate(0 -0.001)" xlink:href="#a"/><radialGradient id="bk" cx="255.346" cy="217.522" r="3.59" gradientTransform="translate(0 -0.001)" xlink:href="#a"/><radialGradient id="bl" cx="467.079" cy="269.892" r="2.329" xlink:href="#a"/><radialGradient id="bm" cx="287.133" cy="26.562" r="4.426" gradientTransform="translate(0 -0.001)" xlink:href="#a"/><radialGradient id="bn" cx="283.018" cy="141.193" r="3.447" gradientTransform="translate(-0.001 -0.002)" xlink:href="#a"/><radialGradient id="bo" cx="339.137" cy="-53.692" r="3.082" gradientTransform="translate(0 -0.001)" xlink:href="#a"/><radialGradient id="bp" cx="294.426" cy="-49.883" r="1.657" gradientTransform="translate(0 -0.001)" xlink:href="#a"/><radialGradient id="bq" cx="179.95" cy="33.379" r="2.989" gradientTransform="translate(0.001 0.001)" xlink:href="#a"/><radialGradient id="br" cx="187.377" cy="181.732" r="3.282" gradientTransform="translate(0 -0.001)" xlink:href="#a"/><radialGradient id="bs" cx="26.342" cy="167.771" r="1.682" xlink:href="#a"/><radialGradient id="bt" cx="29.095" cy="155.86" r="2.868" gradientTransform="translate(0 -0.001)" xlink:href="#a"/><radialGradient id="bu" cx="66.113" cy="451.231" r="1.803" xlink:href="#a"/><radialGradient id="bv" cx="-13.24" cy="169.512" r="3.649" xlink:href="#a"/><radialGradient id="bw" cx="98.069" cy="233.257" r="2.428" gradientTransform="translate(0 -0.001)" xlink:href="#a"/><radialGradient id="bx" cx="136.607" cy="260.36" r="3.01" xlink:href="#a"/><radialGradient id="by" cx="43.127" cy="-7.672" r="4.406" gradientTransform="translate(0 -0.001)" xlink:href="#a"/><radialGradient id="bz" cx="135.544" cy="24.61" r="3.105" gradientTransform="translate(0.001 0)" xlink:href="#a"/><radialGradient id="ca" cx="453.365" cy="-17.334" r="2.693" xlink:href="#a"/><radialGradient id="cb" cx="359.659" cy="-109.305" r="2.553" gradientTransform="translate(0 -0.001)" xlink:href="#a"/><radialGradient id="cc" cx="230.703" cy="3.093" r="1.926" xlink:href="#a"/><radialGradient id="cd" cx="230.721" cy="88.352" r="1.906" xlink:href="#a"/><radialGradient id="ce" cx="65.401" cy="-80.332" r="4.781" gradientTransform="translate(0 -0.001)" xlink:href="#a"/><radialGradient id="cf" cx="184.001" cy="168.827" r="3.619" gradientTransform="translate(0 -0.001)" xlink:href="#a"/><radialGradient id="cg" cx="105.046" cy="137.971" r="1.936" gradientTransform="translate(0 -0.001)" xlink:href="#a"/><radialGradient id="ch" cx="-3.91" cy="41.407" r="4.762" gradientTransform="translate(0 -0.001)" xlink:href="#a"/><radialGradient id="ci" cx="-116.541" cy="-66.011" r="1.701" xlink:href="#a"/></defs><g transform="translate(-118.959 41.499)"><g transform="translate(48.591 -24.364)"><g transform="translate(1722.837 849.138)"><path class="a" d="M913.988,459.889c12.793-1.054,13.647-1.908,14.7-14.7,1.056,12.793,1.912,13.647,14.7,14.7-12.791,1.056-13.647,1.912-14.7,14.7C927.635,461.8,926.781,460.945,913.988,459.889Z" transform="translate(-913.988 -445.188)"/></g><g transform="translate(1274.569 923.394)"><path class="a" d="M685.143,492.075c7.812-.644,8.333-1.167,8.979-8.979.644,7.812,1.166,8.335,8.977,8.979-7.812.645-8.333,1.166-8.977,8.979C693.476,493.241,692.955,492.72,685.143,492.075Z" transform="translate(-685.143 -483.096)"/></g><g transform="translate(1098.319 787.236)"><path class="a" d="M595.166,431.494c15.579-1.287,16.621-2.329,17.908-17.908,1.283,15.579,2.325,16.621,17.9,17.908-15.578,1.283-16.621,2.325-17.9,17.9C611.787,433.819,610.745,432.777,595.166,431.494Z" transform="translate(-595.166 -413.586)"/></g><g transform="translate(845.199 501.53)"><path class="a" d="M465.946,279.284c10.053-.831,10.725-1.5,11.553-11.553.831,10.051,1.5,10.723,11.551,11.553-10.051.829-10.721,1.5-11.551,11.551C476.671,280.787,476,280.113,465.946,279.284Z" transform="translate(-465.946 -267.731)"/></g><g transform="translate(418.869 974.292)"><path class="a" d="M248.3,514.114c4.382-.358,4.674-.654,5.036-5.034.362,4.38.654,4.676,5.036,5.034-4.382.362-4.674.654-5.036,5.038C252.975,514.768,252.683,514.477,248.3,514.114Z" transform="translate(-248.301 -509.08)"/></g><g transform="translate(653.069 746.598)"><path class="a" d="M367.862,405.684c11.175-.921,11.921-1.669,12.844-12.844.923,11.175,1.669,11.923,12.844,12.844-11.175.921-11.921,1.669-12.844,12.844C379.783,407.353,379.037,406.6,367.862,405.684Z" transform="translate(-367.862 -392.84)"/></g><g transform="translate(620.576 501.946)"><path class="a" d="M351.274,283.4c13.451-1.109,14.35-2.008,15.459-15.459,1.111,13.451,2.008,14.35,15.461,15.459-13.453,1.109-14.35,2.008-15.461,15.461C365.624,285.41,364.725,284.511,351.274,283.4Z" transform="translate(-351.274 -267.943)"/></g><g transform="translate(1277.578 392.302)"><path class="a" d="M686.679,233.281c18.54-1.53,19.78-2.77,21.312-21.312,1.53,18.542,2.77,19.782,21.31,21.312-18.54,1.53-19.78,2.768-21.31,21.312C706.459,236.049,705.219,234.811,686.679,233.281Z" transform="translate(-686.679 -211.969)"/></g><g transform="translate(456.632 23.893)"><path class="a" d="M267.579,42.943c16.576-1.367,17.682-2.476,19.052-19.05C288,40.467,289.1,41.575,305.68,42.943,289.1,44.31,288,45.417,286.631,61.992,285.261,45.417,284.155,44.31,267.579,42.943Z" transform="translate(-267.579 -23.893)"/></g><g transform="translate(187.243 681.833)"><path class="a" d="M130.054,380.029c17.622-1.453,18.8-2.631,20.252-20.252,1.453,17.622,2.631,18.8,20.252,20.252-17.622,1.453-18.8,2.633-20.252,20.254C148.853,382.662,147.676,381.483,130.054,380.029Z" transform="translate(-130.054 -359.777)"/></g><g transform="translate(70.409 56.316)"><path class="a" d="M70.409,57.877c15.167-1.252,16.182-2.264,17.434-17.432,1.25,15.167,2.264,16.18,17.432,17.432-15.167,1.252-16.182,2.266-17.432,17.432C86.591,60.143,85.576,59.128,70.409,57.877Z" transform="translate(-70.409 -40.445)"/></g><g transform="translate(492.271 159.566)"><path class="a" d="M285.773,107.384c12.38-1.021,13.206-1.849,14.229-14.229,1.021,12.38,1.847,13.208,14.227,14.229-12.38,1.021-13.206,1.849-14.227,14.229C298.979,109.233,298.153,108.4,285.773,107.384Z" transform="translate(-285.773 -93.155)"/></g></g><g transform="translate(588.287 70.901)"><g transform="translate(992.234 803.071)"><path class="b" d="M732.9,588.491a2.071,2.071,0,1,1-1.177,2.684A2.072,2.072,0,0,1,732.9,588.491Z" transform="translate(-731.58 -588.349)"/></g><g transform="translate(1063.713 727.536)"><path class="c" d="M788.055,530.564a1.523,1.523,0,1,1-1.752,1.253A1.525,1.525,0,0,1,788.055,530.564Z" transform="translate(-786.282 -530.543)"/></g><g transform="translate(889.468 523.892)"><path class="d" d="M659.045,375.268a4.041,4.041,0,1,1-5.54,1.4A4.039,4.039,0,0,1,659.045,375.268Z" transform="translate(-652.935 -374.697)"/></g><g transform="translate(1044.54 587.95)"><path class="e" d="M778.015,424.811a3.759,3.759,0,1,1-5.316.02A3.758,3.758,0,0,1,778.015,424.811Z" transform="translate(-771.609 -423.719)"/></g><g transform="translate(1156.419 619.856)"><path class="f" d="M862.175,448.753a3.093,3.093,0,1,1-4.33.626A3.1,3.1,0,0,1,862.175,448.753Z" transform="translate(-857.229 -448.137)"/></g><g transform="translate(947.077 612.168)"><path class="g" d="M702.9,442.947a3.717,3.717,0,1,1-5.185.862A3.718,3.718,0,0,1,702.9,442.947Z" transform="translate(-697.022 -442.253)"/></g><g transform="translate(913.476 592.347)"><path class="h" d="M674.008,427.5a4.619,4.619,0,1,1-2.28,6.122A4.62,4.62,0,0,1,674.008,427.5Z" transform="translate(-671.308 -427.085)"/></g><g transform="translate(941.378 597.427)"><path class="i" d="M694.944,431.041a2.909,2.909,0,1,1-2.215,3.468A2.91,2.91,0,0,1,694.944,431.041Z" transform="translate(-692.66 -430.973)"/></g><g transform="translate(1109.741 664.453)"><path class="j" d="M824.5,482.764a1.766,1.766,0,1,1-2.5.039A1.767,1.767,0,0,1,824.5,482.764Z" transform="translate(-821.506 -482.266)"/></g><g transform="translate(806.282 312.134)"><path class="k" d="M591.292,212.642a2.056,2.056,0,1,1-2.018,2.093A2.055,2.055,0,0,1,591.292,212.642Z" transform="translate(-589.274 -212.642)"/></g><g transform="translate(1151.49 541.622)"><path class="l" d="M857.315,388.407a2.956,2.956,0,1,1-3.718,1.913A2.957,2.957,0,0,1,857.315,388.407Z" transform="translate(-853.456 -388.266)"/></g><g transform="translate(901.315 325.931)"><path class="m" d="M667.318,223.677a3.542,3.542,0,1,1-4.84,1.292A3.544,3.544,0,0,1,667.318,223.677Z" transform="translate(-662.001 -223.2)"/></g><g transform="translate(1137.774 287.327)"><path class="n" d="M848.469,193.914a4.084,4.084,0,1,1-5.253,2.4A4.086,4.086,0,0,1,848.469,193.914Z" transform="translate(-842.959 -193.657)"/></g><g transform="translate(915.221 231.017)"><path class="o" d="M676.982,150.565a4.236,4.236,0,1,1-4.338,4.132A4.235,4.235,0,0,1,676.982,150.565Z" transform="translate(-672.643 -150.564)"/></g><g transform="translate(1090.946 493.259)"><path class="p" d="M810.708,352.314a1.888,1.888,0,1,1-2.525-.868A1.888,1.888,0,0,1,810.708,352.314Z" transform="translate(-807.123 -351.254)"/></g><g transform="translate(844.663 542.399)"><path class="q" d="M625.563,389.482a4.607,4.607,0,1,1-6.3,1.676A4.607,4.607,0,0,1,625.563,389.482Z" transform="translate(-618.646 -388.861)"/></g><g transform="translate(799.353 761.615)"><path class="r" d="M586.912,556.725a3.809,3.809,0,1,1-2.841,4.575A3.81,3.81,0,0,1,586.912,556.725Z" transform="translate(-583.971 -556.624)"/></g><g transform="translate(934.858 607.531)"><path class="s" d="M689.025,438.753a1.762,1.762,0,1,1-1.305,2.123A1.765,1.765,0,0,1,689.025,438.753Z" transform="translate(-687.671 -438.705)"/></g><g transform="translate(541.961 429.429)"><path class="t" d="M389.953,302.706a4.588,4.588,0,1,1-2.662,5.917A4.587,4.587,0,0,1,389.953,302.706Z" transform="translate(-386.992 -302.406)"/></g><g transform="translate(613.924 404.5)"><path class="u" d="M450,284.739a4.616,4.616,0,1,1-6.527-.119A4.618,4.618,0,0,1,450,284.739Z" transform="translate(-442.064 -283.328)"/></g><g transform="translate(830.362 388.124)"><path class="v" d="M611.361,270.8a3.617,3.617,0,1,1-3.659,3.576A3.618,3.618,0,0,1,611.361,270.8Z" transform="translate(-607.702 -270.796)"/></g><g transform="translate(884.278 276.668)"><path class="w" d="M653.778,186.464a2.732,2.732,0,1,1-3.852-.314A2.733,2.733,0,0,1,653.778,186.464Z" transform="translate(-648.963 -185.5)"/></g><g transform="translate(1019.035 171.361)"><path class="x" d="M756.257,105.874a2.3,2.3,0,1,1-3.2-.538A2.3,2.3,0,0,1,756.257,105.874Z" transform="translate(-752.09 -104.91)"/></g><g transform="translate(1139.857 36.922)"><path class="y" d="M848.26,3.143a1.945,1.945,0,1,1-2.587-.933A1.946,1.946,0,0,1,848.26,3.143Z" transform="translate(-844.554 -2.025)"/></g><g transform="translate(815.357 78.394)"><path class="z" d="M603.609,35.828a3.93,3.93,0,1,1-5.325-1.593A3.931,3.931,0,0,1,603.609,35.828Z" transform="translate(-596.219 -33.763)"/></g><g transform="translate(702.268 175.918)"><path class="aa" d="M513.486,108.4a3.647,3.647,0,1,1-3.809,3.476A3.648,3.648,0,0,1,513.486,108.4Z" transform="translate(-509.673 -108.397)"/></g><g transform="translate(755.585 252.73)"><path class="ab" d="M555.361,167.182a4.75,4.75,0,1,1-4.883,4.614A4.75,4.75,0,0,1,555.361,167.182Z" transform="translate(-550.475 -167.18)"/></g><g transform="translate(997.876 388.745)"><path class="ac" d="M739.48,271.28a3.854,3.854,0,1,1-3.572,4.116A3.856,3.856,0,0,1,739.48,271.28Z" transform="translate(-735.898 -271.271)"/></g><g transform="translate(899.137 410.432)"><path class="ad" d="M663.394,287.875a3.27,3.27,0,1,1-3.054,3.473A3.271,3.271,0,0,1,663.394,287.875Z" transform="translate(-660.334 -287.868)"/></g><g transform="translate(755.753 536.746)"><path class="ae" d="M558.108,385.757a4.443,4.443,0,1,1-6.281.159A4.444,4.444,0,0,1,558.108,385.757Z" transform="translate(-550.604 -384.534)"/></g><g transform="translate(474.226 379.765)"><path class="af" d="M338.052,264.757a4.69,4.69,0,1,1-2.538,6.128A4.69,4.69,0,0,1,338.052,264.757Z" transform="translate(-335.156 -264.398)"/></g><g transform="translate(838.277 660.227)"><path class="ag" d="M621.1,480.652a4.082,4.082,0,1,1-5.718-.793A4.08,4.08,0,0,1,621.1,480.652Z" transform="translate(-613.759 -479.032)"/></g><g transform="translate(450.215 420.424)"><path class="ah" d="M318.547,295.524a1.587,1.587,0,1,1-1.756,1.4A1.588,1.588,0,0,1,318.547,295.524Z" transform="translate(-316.78 -295.514)"/></g><g transform="translate(778.815 748.632)"><path class="ai" d="M574.2,546.841a4.753,4.753,0,1,1-5.794,3.409A4.753,4.753,0,0,1,574.2,546.841Z" transform="translate(-568.253 -546.688)"/></g><g transform="translate(470.995 629.599)"><path class="aj" d="M337.882,455.677a4.354,4.354,0,1,1-5.116,3.426A4.356,4.356,0,0,1,337.882,455.677Z" transform="translate(-332.683 -455.593)"/></g><g transform="translate(367.254 935.305)"><path class="ak" d="M257.776,690.978a2.332,2.332,0,1,1-3.054-1.251A2.332,2.332,0,0,1,257.776,690.978Z" transform="translate(-253.291 -689.546)"/></g><g transform="translate(181.047 624.282)"><path class="al" d="M113.355,451.538a2.843,2.843,0,1,1-2.552,3.106A2.843,2.843,0,0,1,113.355,451.538Z" transform="translate(-110.79 -451.525)"/></g><g transform="translate(494.599 570.33)"><path class="am" d="M359.972,413.609a4.709,4.709,0,1,1-5.851-3.178A4.711,4.711,0,0,1,359.972,413.609Z" transform="translate(-350.747 -410.236)"/></g><g transform="translate(663.929 628.493)"><path class="an" d="M485.288,454.755a4.688,4.688,0,1,1-4.948,4.414A4.689,4.689,0,0,1,485.288,454.755Z" transform="translate(-480.332 -454.747)"/></g><g transform="translate(363.1 325.494)"><path class="ao" d="M255.131,223.347a3.3,3.3,0,1,1-4.538,1.107A3.3,3.3,0,0,1,255.131,223.347Z" transform="translate(-250.112 -222.866)"/></g><g transform="translate(627.875 451.29)"><path class="ap" d="M453.809,319.42a2.127,2.127,0,1,1-.784,2.9A2.125,2.125,0,0,1,453.809,319.42Z" transform="translate(-452.741 -319.136)"/></g><g transform="translate(743.061 343.118)"><path class="aq" d="M543.264,236.358a2.229,2.229,0,1,1-2.368,2.08A2.232,2.232,0,0,1,543.264,236.358Z" transform="translate(-540.891 -236.353)"/></g><g transform="translate(761.125 296.042)"><path class="ar" d="M559.6,200.878a3.118,3.118,0,1,1-4.337.8A3.119,3.119,0,0,1,559.6,200.878Z" transform="translate(-554.716 -200.327)"/></g><g transform="translate(818.552 182.724)"><path class="as" d="M603.409,114.921a2.528,2.528,0,1,1-3.431-1A2.526,2.526,0,0,1,603.409,114.921Z" transform="translate(-598.663 -113.606)"/></g><g transform="translate(752.717 162.203)"><path class="at" d="M555.883,98.876a4.727,4.727,0,1,1-6.628.879A4.729,4.729,0,0,1,555.883,98.876Z" transform="translate(-548.281 -97.901)"/></g><g transform="translate(559.83 14.496)"><path class="au" d="M404.349-15.134a3.821,3.821,0,0,1,3.958,3.68,3.821,3.821,0,0,1-3.68,3.957,3.82,3.82,0,0,1-3.958-3.678A3.82,3.82,0,0,1,404.349-15.134Z" transform="translate(-400.667 15.137)"/></g><g transform="translate(582.214 73.463)"><path class="av" d="M419.064,30.269a2.383,2.383,0,1,1-.989,3.221A2.382,2.382,0,0,1,419.064,30.269Z" transform="translate(-417.797 -29.989)"/></g><g transform="translate(742.712 389.147)"><path class="aw" d="M544.273,271.758A2.685,2.685,0,1,1,540.8,273.3,2.683,2.683,0,0,1,544.273,271.758Z" transform="translate(-540.624 -271.579)"/></g><g transform="translate(514.675 370.052)"><path class="ax" d="M371.848,258.937a2.952,2.952,0,1,1-3.766-1.8A2.951,2.951,0,0,1,371.848,258.937Z" transform="translate(-366.11 -256.965)"/></g><g transform="translate(550.771 448.239)"><path class="ay" d="M397.884,317.094a2.884,2.884,0,1,1-3.856,1.326A2.885,2.885,0,0,1,397.884,317.094Z" transform="translate(-393.734 -316.801)"/></g><g transform="translate(258.399 348.675)"><path class="az" d="M172.1,240.756a3.055,3.055,0,1,1-1.961,3.85A3.057,3.057,0,0,1,172.1,240.756Z" transform="translate(-169.986 -240.606)"/></g><g transform="translate(207.546 430.879)"><path class="ba" d="M135.858,304.39a2.77,2.77,0,1,1-3.916-.124A2.771,2.771,0,0,1,135.858,304.39Z" transform="translate(-131.068 -303.515)"/></g><g transform="translate(126.588 444.206)"><path class="bb" d="M71.161,313.948a3.253,3.253,0,1,1-1.815,4.227A3.253,3.253,0,0,1,71.161,313.948Z" transform="translate(-69.113 -313.715)"/></g><g transform="translate(152.025 492.252)"><path class="bc" d="M94.477,351.689a3.333,3.333,0,1,1-4.692-.439A3.334,3.334,0,0,1,94.477,351.689Z" transform="translate(-88.579 -350.483)"/></g><g transform="translate(187.446 925.32)"><path class="bd" d="M121.736,682.377a4.132,4.132,0,1,1-5.578,1.746A4.132,4.132,0,0,1,121.736,682.377Z" transform="translate(-115.686 -681.905)"/></g><g transform="translate(85.694 535.714)"><path class="be" d="M43.739,383.9a4.708,4.708,0,1,1-5.761,3.335A4.707,4.707,0,0,1,43.739,383.9Z" transform="translate(-37.817 -383.744)"/></g><g transform="translate(80.36 604.454)"><path class="bf" d="M36.738,436.679a4.73,4.73,0,1,1-2.674,6.132A4.73,4.73,0,0,1,36.738,436.679Z" transform="translate(-33.735 -436.35)"/></g><g transform="translate(28.907 536.649)"><path class="bg" d="M-3.294,384.46a2.377,2.377,0,0,1,2.407,2.347,2.379,2.379,0,0,1-2.348,2.407,2.377,2.377,0,0,1-2.406-2.348A2.375,2.375,0,0,1-3.294,384.46Z" transform="translate(5.641 -384.46)"/></g><g transform="translate(252.653 574.707)"><path class="bh" d="M168.256,413.819a1.785,1.785,0,1,1-2.434.669A1.785,1.785,0,0,1,168.256,413.819Z" transform="translate(-165.588 -413.585)"/></g><g transform="translate(49.922 238.268)"><path class="bi" d="M18.644,158.72a4.27,4.27,0,1,1-5.6-2.268A4.271,4.271,0,0,1,18.644,158.72Z" transform="translate(-10.441 -156.113)"/></g><g transform="translate(134.46 232.806)"><path class="bj" d="M79.232,151.978a4.74,4.74,0,1,1-4.051,5.339A4.74,4.74,0,0,1,79.232,151.978Z" transform="translate(-75.137 -151.933)"/></g><g transform="translate(208.316 276.04)"><path class="bk" d="M133.6,185.193a2.932,2.932,0,1,1-1.767,3.752A2.932,2.932,0,0,1,133.6,185.193Z" transform="translate(-131.658 -185.019)"/></g><g transform="translate(365.214 313.598)"><path class="bl" d="M258.133,215.12a3.591,3.591,0,1,1-5.045-.579A3.593,3.593,0,0,1,258.133,215.12Z" transform="translate(-251.73 -213.762)"/></g><g transform="translate(643.818 383.984)"><path class="bm" d="M468.628,268.063a2.329,2.329,0,1,1-3.251.536A2.329,2.329,0,0,1,468.628,268.063Z" transform="translate(-464.942 -267.627)"/></g><g transform="translate(405.711 63.186)"><path class="bn" d="M289.329,22.7a4.425,4.425,0,1,1-6.032,1.671A4.427,4.427,0,0,1,289.329,22.7Z" transform="translate(-282.722 -22.125)"/></g><g transform="translate(401.385 213.958)"><path class="bo" d="M283.315,137.539a3.449,3.449,0,1,1-3.873,2.962A3.448,3.448,0,0,1,283.315,137.539Z" transform="translate(-279.411 -137.508)"/></g><g transform="translate(475.398 -39.868)"><path class="bp" d="M339.722-56.684a3.082,3.082,0,0,1,2.438,3.613,3.085,3.085,0,0,1-3.614,2.438,3.082,3.082,0,0,1-2.437-3.614A3.08,3.08,0,0,1,339.722-56.684Z" transform="translate(-336.052 56.741)"/></g><g transform="translate(418.705 -32.987)"><path class="bq" d="M295.281-51.171a1.66,1.66,0,0,1,.4,2.312,1.658,1.658,0,0,1-2.31.4,1.657,1.657,0,0,1-.4-2.312A1.658,1.658,0,0,1,295.281-51.171Z" transform="translate(-292.665 51.475)"/></g><g transform="translate(267.642 74.007)"><path class="br" d="M179.806,30.416a2.989,2.989,0,1,1-2.736,3.221A2.989,2.989,0,0,1,179.806,30.416Z" transform="translate(-177.059 -30.406)"/></g><g transform="translate(276.761 267.176)"><path class="bs" d="M189.162,178.8a3.282,3.282,0,1,1-4.558.877A3.284,3.284,0,0,1,189.162,178.8Z" transform="translate(-184.038 -178.235)"/></g><g transform="translate(68.501 251.175)"><path class="bt" d="M26.712,166.032A1.682,1.682,0,1,1,24.7,167.3,1.682,1.682,0,0,1,26.712,166.032Z" transform="translate(-24.659 -165.99)"/></g><g transform="translate(70.535 233.925)"><path class="bu" d="M30.135,152.989a2.869,2.869,0,1,1-3.719,1.619A2.869,2.869,0,0,1,30.135,152.989Z" transform="translate(-26.216 -152.789)"/></g><g transform="translate(120.346 621.676)"><path class="bv" d="M65.351,449.712a1.8,1.8,0,1,1-.835,2.408A1.8,1.8,0,0,1,65.351,449.712Z" transform="translate(-64.336 -449.53)"/></g><g transform="translate(14.206 250.944)"><path class="bw" d="M-11.328,166.358a3.648,3.648,0,0,1,1.192,5.02,3.65,3.65,0,0,1-5.022,1.19,3.649,3.649,0,0,1-1.19-5.02A3.648,3.648,0,0,1-11.328,166.358Z" transform="translate(16.892 -165.814)"/></g><g transform="translate(161.219 335.561)"><path class="bx" d="M99.2,230.861a2.428,2.428,0,1,1-3.289.983A2.428,2.428,0,0,1,99.2,230.861Z" transform="translate(-95.615 -230.57)"/></g><g transform="translate(210.869 370.434)"><path class="by" d="M137.9,257.544a3.01,3.01,0,1,1-4,1.445A3.009,3.009,0,0,1,137.9,257.544Z" transform="translate(-133.612 -257.258)"/></g><g transform="translate(86.874 18.501)"><path class="bz" d="M47.2-9.354A4.408,4.408,0,0,1,44.817-3.6a4.406,4.406,0,0,1-5.759-2.381,4.4,4.4,0,0,1,2.38-5.757A4.406,4.406,0,0,1,47.2-9.354Z" transform="translate(-38.72 12.072)"/></g><g transform="translate(209.424 62.388)"><path class="ca" d="M135.233,21.538a3.1,3.1,0,1,1-2.7,3.46A3.106,3.106,0,0,1,135.233,21.538Z" transform="translate(-132.506 -21.514)"/></g><g transform="translate(625.487 8.094)"><path class="cb" d="M452.571-19.828a2.694,2.694,0,0,1,3.522,1.449,2.694,2.694,0,0,1-1.449,3.52,2.693,2.693,0,0,1-3.523-1.449A2.693,2.693,0,0,1,452.571-19.828Z" transform="translate(-450.913 20.036)"/></g><g transform="translate(502.829 -111.755)"><path class="cc" d="M358.352-111.431a2.555,2.555,0,0,1,3.475.983,2.554,2.554,0,0,1-.983,3.475,2.553,2.553,0,0,1-3.474-.983A2.554,2.554,0,0,1,358.352-111.431Z" transform="translate(-357.044 111.755)"/></g><g transform="translate(335.26 35.799)"><path class="cd" d="M231.258,1.24a1.925,1.925,0,1,1-2.378,1.326A1.925,1.925,0,0,1,231.258,1.24Z" transform="translate(-228.807 -1.166)"/></g><g transform="translate(335.269 147.166)"><path class="ce" d="M230.806,86.4a1.906,1.906,0,1,1-1.99,1.819A1.9,1.9,0,0,1,230.806,86.4Z" transform="translate(-228.813 -86.393)"/></g><g transform="translate(115.491 -76.878)"><path class="cf" d="M65.327-85.064a4.784,4.784,0,0,1,4.856,4.707A4.784,4.784,0,0,1,65.476-75.5a4.781,4.781,0,0,1-4.854-4.707A4.781,4.781,0,0,1,65.327-85.064Z" transform="translate(-60.621 85.064)"/></g><g transform="translate(271.929 249.926)"><path class="cg" d="M182.237,165.472a3.62,3.62,0,1,1-1.461,4.905A3.621,3.621,0,0,1,182.237,165.472Z" transform="translate(-180.34 -165.035)"/></g><g transform="translate(170.954 211.777)"><path class="ch" d="M104.277,135.981a1.935,1.935,0,1,1-1.07,2.519A1.934,1.934,0,0,1,104.277,135.981Z" transform="translate(-103.066 -135.84)"/></g><g transform="translate(24.945 82.126)"><path class="ci" d="M-5.411,36.865A4.76,4.76,0,0,1,.609,39.88,4.763,4.763,0,0,1-2.407,45.9a4.762,4.762,0,0,1-6.021-3.017A4.76,4.76,0,0,1-5.411,36.865Z" transform="translate(8.673 -36.619)"/></g><g transform="translate(-118.287 -54.219)"><path class="cj" d="M-115.786-67.523a1.7,1.7,0,0,1,.7,2.3,1.7,1.7,0,0,1-2.3.7,1.7,1.7,0,0,1-.7-2.3A1.7,1.7,0,0,1-115.786-67.523Z" transform="translate(118.287 67.724)"/></g></g></g></svg>