<svg xmlns="http://www.w3.org/2000/svg" width="486.39" height="486.39" viewBox="0 0 486.39 486.39">
    <defs>
        <style>
            .cls-1{fill:#ff8964}.cls-2{fill:#ffb674}.cls-3{fill:#ffd468}
        </style>
    </defs>
    <g id="SUN" transform="translate(-1264.755 -167.687)">
        <circle id="Ellipse_20" cx="171.965" cy="171.965" r="171.965" class="cls-1" data-name="Ellipse 20" transform="rotate(-45 1128.356 -1321.253)"/>
        <path id="Path_195" d="M955.771 964.967A171.965 171.965 0 0 0 783.8 793q-7.812 0-15.452.685a9.508 9.508 0 0 0-4.669 8.4c0 5.382 3.859 9.482 8.619 9.482h34.944a10.785 10.785 0 0 1 5.94 9.684c0 5.383-3.866 10.17-8.638 10.17h-62.887a9.646 9.646 0 0 0 0 19.286h63.816c3.32 1.134 5.717 4.8 5.717 9.116 0 5.383-3.721 9.6-8.312 9.6h-60.883a9.644 9.644 0 1 0 0 19.286H788.7c4.046 1.7 6.969 4.918 6.969 9.238 0 4.639-3.371 8.914-7.885 9.481H702.6c-6.4 0-11.588 4.542-11.588 9.927s5.188 9.927 11.588 9.927h112.136c3.686 1.7 6.281 4.923 6.281 8.994A9.927 9.927 0 0 1 810.884 946h-32.09c-5.922 0-10.724 4.343-10.724 9.725a9.455 9.455 0 0 0 6.647 8.994H751.1c-4.761 0-8.619 4.26-8.619 9.643s3.859 9.643 8.619 9.643h34.944a9.944 9.944 0 0 1 5.94 9.115c0 5.384-3.868 9.6-8.638 9.6h-62.89c-5.2 0-9.41 4.827-9.41 10.21s4.213 10.21 9.41 10.21h63.815c3.319 1.135 5.716 4.8 5.716 9.115 0 5.384-3.72 9.6-8.311 9.6h-60.881a9.928 9.928 0 0 0 0 19.853H767.5c4.045.567 6.967 4.919 6.967 9.239 0 4.638-3.37 8.346-7.884 9.48H681.4c-6.4 0-11.588 4.219-11.588 9.6a8.554 8.554 0 0 0 2.281 5.734c.8.68 1.6 1.36 2.4 2.026a13.035 13.035 0 0 0 6.9 1.924h112.142a9.408 9.408 0 0 1 6.282 8.993 9.928 9.928 0 0 1-10.134 9.725h-32.089c-5.923 0-10.726 4.345-10.726 9.728a9.035 9.035 0 0 0 1.617 5.137 172.127 172.127 0 0 0 207.285-168.34z" class="cls-2" data-name="Path 195" transform="translate(724.145 -555.085)"/>
        <g id="Group_147" data-name="Group 147" transform="translate(1516.04 276.337)">
            <path id="Path_149" d="M1263.62 1155.583a171.523 171.523 0 0 0-29.486-96.426 6.95 6.95 0 0 1-3.525.845h-59.683a9.643 9.643 0 0 0 0 19.286h45.79c3.966 1.7 6.83 4.918 6.83 9.238 0 4.639-3.3 8.914-7.729 9.481H1132.3c-6.273 0-11.359 4.542-11.359 9.927s5.086 9.927 11.359 9.927h109.932c3.612 1.7 6.156 4.923 6.156 8.994a9.822 9.822 0 0 1-9.932 9.724H1207c-5.807 0-10.514 4.343-10.514 9.725a9.434 9.434 0 0 0 6.514 8.996h-23.568c-4.666 0-8.449 4.26-8.449 9.643s3.783 9.643 8.449 9.643h34.256a9.95 9.95 0 0 1 5.822 9.115c0 5.384-3.79 9.6-8.466 9.6H1149.4c-5.094 0-9.225 4.827-9.225 10.21s4.13 10.21 9.225 10.21h62.558c3.254 1.134 5.6 4.8 5.6 9.115 0 5.384-3.648 9.6-8.147 9.6h-59.684a9.934 9.934 0 0 0 0 19.853h45.79c3.967.567 6.831 4.919 6.831 9.239a9.9 9.9 0 0 1-7.729 9.48H1111.1c-6.274 0-11.36 4.26-11.36 9.643s5.086 9.643 11.36 9.643h87.489a171.275 171.275 0 0 0 65.031-134.711z" class="cls-3" data-name="Path 149" transform="translate(-1099.744 -1021.997)"/>
            <path id="Path_150" d="M1316.769 937.94a9.4 9.4 0 0 0 9.224 9.643h49.48a169.494 169.494 0 0 0-20.466-19.286h-29.014a9.4 9.4 0 0 0-9.224 9.643z" class="cls-3" data-name="Path 150" transform="translate(-1255.142 -928.297)"/>
        </g>
    </g>
</svg>
